<?xml version="1.0" standalone="no"?>
<!DOCTYPE svg PUBLIC "-//W3C//DTD SVG 20010904//EN"
 "http://www.w3.org/TR/2001/REC-SVG-20010904/DTD/svg10.dtd">
<svg version="1.0" xmlns="http://www.w3.org/2000/svg"
 width="1000.000000pt" height="818.000000pt" viewBox="0 0 1000.000000 818.000000"
 preserveAspectRatio="xMidYMid meet">

<g transform="translate(0.000000,818.000000) scale(0.100000,-0.100000)"
fill="#000000" stroke="none">
<path d="M8745 7720 c-66 -9 -180 -49 -232 -81 -18 -11 -82 -60 -141 -107
-619 -496 -757 -609 -792 -650 -23 -26 -55 -76 -72 -112 -22 -47 -42 -74 -72
-95 -22 -15 -84 -58 -136 -95 -581 -409 -817 -573 -825 -573 -5 0 -33 16 -61
35 -30 20 -70 38 -95 41 -24 4 -195 29 -379 56 -184 28 -580 86 -880 130 -300
45 -575 86 -611 92 l-66 10 -23 67 c-32 92 -120 269 -148 298 -24 23 -181 120
-234 145 -49 22 -31 69 37 94 51 20 55 28 76 172 11 73 11 85 -4 100 -12 15
-14 33 -10 99 l6 80 -31 13 c-18 8 -35 25 -43 44 -22 55 -114 142 -182 173
-57 27 -71 29 -177 29 -104 0 -121 -3 -172 -27 -101 -47 -186 -147 -203 -239
-5 -27 -15 -40 -41 -54 -43 -23 -49 -44 -49 -178 l0 -109 31 -26 c17 -15 38
-31 46 -37 9 -5 19 -19 22 -31 6 -19 -4 -23 -125 -54 -197 -50 -203 -54 -250
-175 -62 -157 -97 -291 -121 -454 -26 -180 -20 -232 43 -349 21 -41 39 -75 39
-77 0 -2 -17 -14 -37 -26 -74 -45 -430 -293 -548 -382 -298 -224 -364 -280
-374 -311 -32 -103 -77 -702 -88 -1164 l-6 -282 -171 -153 c-369 -328 -933
-893 -958 -957 -18 -48 -38 -216 -38 -324 l0 -109 -60 -88 c-118 -171 -171
-328 -191 -554 -40 -471 160 -915 471 -1047 l55 -23 3415 -3 3415 -2 80 49
c228 141 478 394 644 651 34 52 99 172 146 265 129 261 199 471 260 769 50
250 66 406 72 718 l6 277 144 102 c155 109 169 127 158 193 -6 42 -10 51 -90
221 -142 301 -368 545 -590 638 -156 65 -572 125 -1005 145 l-145 7 -2 50 c-7
139 -14 176 -41 206 -25 27 -36 31 -152 45 -69 9 -126 17 -127 18 -1 1 -9 47
-17 103 -18 123 -45 228 -90 362 -19 56 -31 103 -28 105 4 2 115 61 247 131
132 71 352 188 488 262 l249 133 91 4 c92 4 167 21 242 55 22 10 128 56 235
101 753 318 707 297 798 367 158 121 244 271 272 473 49 356 -188 711 -534
800 -86 22 -239 31 -321 20z m325 -175 c98 -36 167 -83 235 -159 212 -237 208
-574 -10 -791 -119 -120 -239 -168 -415 -169 -110 0 -185 19 -275 69 -178 99
-291 273 -303 469 l-5 89 -18 -36 c-11 -20 -25 -70 -32 -112 l-13 -75 -313
-215 c-173 -119 -316 -214 -318 -211 -2 2 -7 37 -10 78 -8 107 34 236 100 309
55 61 518 448 746 624 135 103 174 123 326 159 11 3 67 3 125 2 83 -3 120 -10
180 -31z m-5170 -120 c47 -9 96 -23 109 -32 22 -14 23 -20 18 -77 -9 -95 -20
-116 -61 -116 -32 0 -35 3 -48 42 -14 42 -16 43 -68 51 l-54 7 -38 -41 -37
-41 -100 4 c-61 2 -105 8 -112 15 -7 7 -14 49 -17 96 -4 87 0 98 43 110 36 11
278 -2 365 -18z m-23 -244 c10 -26 23 -41 39 -45 29 -8 32 -40 8 -109 -11 -33
-25 -52 -44 -62 -66 -34 -159 -27 -213 15 -15 12 -32 41 -41 72 -19 67 -9 88
42 88 61 0 107 18 130 50 32 43 60 39 79 -9z m-383 -503 c67 -43 155 -74 244
-84 107 -12 212 35 242 107 12 28 16 30 47 24 75 -14 83 -22 83 -89 0 -56 14
-169 26 -207 4 -14 -10 -17 -93 -22 -155 -9 -230 -34 -509 -171 l-252 -124
-61 100 c-34 55 -60 102 -58 104 1 2 23 -10 47 -26 25 -17 48 -30 53 -30 4 0
7 47 7 105 0 113 -20 269 -45 350 -8 28 -15 55 -15 61 0 7 29 16 68 21 l67 9
45 -44 c25 -25 72 -62 104 -84z m4047 -353 c12 -33 26 -66 32 -73 5 -7 8 -14
6 -16 -6 -5 -388 -237 -1054 -641 -143 -86 -298 -181 -345 -210 -47 -29 -145
-89 -218 -133 l-133 -81 -10 27 c-17 42 -6 133 20 175 16 27 137 115 484 356
254 176 624 432 822 569 l360 250 7 -81 c4 -45 17 -109 29 -142z m-2311 -241
c596 -85 1090 -160 1097 -166 7 -6 10 -14 8 -19 -3 -4 -61 -47 -128 -95 l-122
-86 -60 7 c-33 3 -172 22 -310 41 -820 114 -844 117 -889 100 -22 -9 -54 -27
-70 -39 l-30 -24 32 -129 c37 -155 59 -308 68 -476 5 -84 3 -127 -4 -132 -12
-7 -503 54 -516 65 -5 4 -15 65 -22 136 -28 257 -105 578 -191 797 -19 50 -35
104 -35 121 1 34 24 55 61 55 14 0 514 -70 1111 -156z m198 -409 c224 -30 427
-59 452 -63 l45 -7 -95 -65 c-91 -62 -96 -68 -121 -130 -14 -36 -52 -149 -84
-250 -32 -102 -59 -186 -60 -187 -1 -3 -361 38 -472 53 l-43 5 20 39 c39 76
60 179 60 291 0 121 -16 180 -77 288 -46 80 -46 81 -38 81 4 0 190 -25 413
-55z m1441 -467 c16 -51 37 -121 46 -156 21 -82 44 -252 35 -257 -3 -2 -49 2
-101 10 -52 7 -120 16 -152 20 -48 5 -57 9 -53 23 20 68 28 157 24 256 l-4
115 75 40 c42 22 81 40 88 41 6 0 25 -42 42 -92z m-339 -151 c0 -70 -21 -191
-35 -205 -5 -5 -326 36 -358 45 -10 2 -17 12 -15 20 3 13 378 222 401 223 4 0
7 -37 7 -83z m-2052 -102 c214 -26 638 -78 1347 -164 444 -54 1180 -144 1337
-162 l97 -12 7 -42 c12 -80 12 -80 -103 -77 -125 5 -155 -7 -214 -85 -70 -93
-65 -91 -155 -81 -43 4 -230 24 -414 43 -184 19 -445 46 -579 60 -180 18 -247
28 -253 39 -12 22 -145 120 -237 176 -128 77 -287 121 -566 159 -139 19 -386
41 -462 41 l-33 0 0 65 c0 37 4 65 10 65 6 0 104 -11 218 -25z m-418 -245 c63
-5 219 -17 346 -25 339 -22 551 -55 716 -111 219 -74 437 -314 549 -603 22
-57 38 -105 36 -107 -1 -2 -99 6 -217 16 -118 11 -431 38 -695 60 -640 53
-568 40 -589 108 -26 82 -87 210 -134 279 -54 79 -158 174 -227 208 l-57 28
-76 -18 c-43 -9 -147 -44 -232 -75 -346 -130 -686 -292 -1189 -567 -94 -52
-66 -24 72 71 274 188 554 354 802 475 237 116 326 152 625 254 54 18 117 20
270 7z m3531 -381 c317 -18 756 -77 882 -119 181 -60 350 -211 487 -435 52
-86 123 -225 117 -231 -3 -4 -148 9 -527 46 -270 27 -627 60 -640 60 -11 0
-20 18 -29 62 -53 256 -217 457 -481 590 l-75 38 41 0 c22 0 123 -5 225 -11z
m-1636 -69 c982 -93 995 -95 1162 -186 167 -90 276 -198 344 -338 53 -108 72
-204 73 -356 l1 -125 -40 2 c-22 2 -206 19 -410 38 -203 19 -473 44 -600 55
-272 24 -494 45 -699 65 -82 8 -153 15 -157 15 -5 0 -9 26 -9 58 l0 57 126
125 126 125 -5 51 c-9 87 -102 321 -162 407 -20 29 -19 35 8 31 12 -2 121 -13
242 -24z m-2077 -537 c125 -259 161 -590 102 -923 -70 -387 -281 -719 -541
-850 -208 -105 -440 -71 -612 90 -119 111 -224 295 -273 475 -26 97 -54 286
-54 364 0 47 2 50 55 90 30 22 57 41 60 41 3 0 5 -42 5 -94 0 -52 3 -101 6
-110 5 -13 25 -16 120 -16 l114 0 6 -27 c3 -16 12 -51 20 -80 8 -28 14 -54 14
-57 0 -3 -54 -6 -120 -6 -66 0 -120 -3 -120 -6 0 -4 5 -24 12 -45 l11 -39 91
-1 c161 -1 159 -1 175 -34 72 -142 181 -269 269 -314 l37 -19 -49 -7 c-27 -4
-89 -5 -138 -3 -99 6 -99 -1 1 -32 75 -24 133 -25 220 -5 90 22 150 57 230
137 148 147 253 360 296 603 22 122 23 372 1 486 -26 136 -81 280 -138 362
-11 15 -18 31 -16 36 2 5 34 32 72 60 46 33 74 47 81 41 6 -5 34 -58 63 -117z
m1107 -173 c259 -16 482 -30 498 -30 l27 0 0 -186 0 -186 -137 8 c-76 5 -160
9 -188 9 l-50 0 -9 -69 c-6 -45 -6 -74 1 -85 8 -13 42 -18 174 -28 90 -6 173
-12 184 -12 20 -1 20 -5 12 -123 -10 -155 -42 -397 -53 -407 -5 -5 -89 -4
-187 2 -98 5 -181 7 -184 3 -3 -3 -12 -36 -19 -73 -11 -57 -10 -70 1 -82 9 -9
64 -16 187 -24 95 -5 174 -11 175 -12 6 -4 -90 -362 -118 -439 l-32 -89 -197
7 -197 7 -31 -70 c-18 -39 -29 -77 -26 -86 3 -8 7 -15 8 -15 0 0 82 -5 180
-10 98 -5 181 -11 183 -14 15 -15 -231 -449 -268 -471 -5 -4 -101 -6 -213 -5
l-204 1 -52 -66 c-79 -99 -78 -99 128 -103 94 -1 172 -6 172 -11 0 -26 -177
-162 -306 -236 l-79 -45 -634 0 -634 0 69 52 c103 77 321 299 407 415 332 449
554 1015 647 1651 23 156 50 549 50 736 l0 129 123 -6 c67 -4 334 -20 592 -37z
m3090 -290 c723 -63 715 -62 720 -84 2 -12 6 -72 8 -135 l5 -113 -62 6 c-150
14 -284 18 -289 8 -4 -5 -10 -41 -13 -80 -7 -69 -6 -71 17 -76 23 -5 284 -26
324 -26 17 0 18 -7 12 -108 -7 -123 -45 -393 -57 -406 -5 -5 -88 -3 -191 3
-148 10 -185 9 -194 -1 -7 -7 -19 -40 -28 -73 -13 -47 -14 -62 -4 -71 7 -7 85
-16 191 -23 99 -6 182 -13 184 -16 8 -7 -74 -264 -116 -365 -40 -94 -41 -95
-74 -94 -18 0 -108 4 -200 8 l-167 8 -36 -72 c-27 -54 -33 -75 -25 -85 8 -9
63 -15 196 -20 153 -6 184 -10 180 -22 -13 -34 -151 -255 -203 -327 l-58 -79
-206 2 -206 2 -40 -48 c-102 -123 -102 -123 121 -123 l171 -1 -50 -46 c-27
-26 -94 -79 -148 -120 l-98 -73 -500 0 -499 0 152 153 c207 206 331 374 471
637 156 295 288 701 351 1080 37 221 46 325 53 583 l6 228 41 -6 c23 -3 140
-14 261 -25z m-5760 -735 c14 -63 14 -71 0 -80 -8 -5 -160 -108 -336 -228
-177 -120 -325 -216 -330 -215 -5 2 -30 30 -57 63 -26 33 -69 76 -94 95 -42
30 -45 35 -30 46 9 7 197 138 417 293 l400 281 7 -93 c5 -50 15 -123 23 -162z
m-970 -517 c183 -202 235 -568 127 -890 -57 -170 -181 -332 -304 -399 -60 -32
-68 -34 -163 -34 -86 0 -107 3 -150 25 -153 75 -266 274 -294 516 -9 76 0 302
14 343 4 13 58 56 86 69 4 2 0 -25 -9 -60 -9 -37 -15 -115 -16 -188 -1 -118 0
-125 19 -127 11 -1 45 -5 76 -8 l57 -6 11 -44 c6 -24 11 -46 11 -49 0 -3 -34
-6 -75 -6 -58 0 -75 -3 -75 -14 0 -34 13 -46 50 -46 20 0 58 -3 83 -6 42 -6
49 -11 68 -48 29 -57 85 -123 131 -157 40 -28 40 -28 14 -35 -14 -3 -50 -4
-81 -2 -46 2 -53 1 -38 -9 43 -32 165 -28 239 7 90 44 183 161 235 294 121
315 53 687 -153 836 l-38 27 53 36 c28 20 55 36 59 36 3 1 32 -27 63 -61z
m840 -5 c9 -16 29 -38 43 -50 l26 -22 -137 -67 c-76 -37 -140 -64 -143 -61 -3
3 -7 29 -10 58 l-5 54 93 57 c51 31 98 57 104 57 7 1 19 -11 29 -26z m788
-337 c53 -31 111 -112 145 -206 33 -90 41 -253 18 -371 -24 -119 -97 -267
-170 -346 -77 -83 -147 -118 -236 -118 -79 1 -131 25 -186 88 -81 92 -115 198
-116 362 0 182 46 329 146 466 106 145 276 198 399 125z m-909 -186 c99 -37
176 -196 176 -363 0 -202 -103 -413 -233 -476 -61 -29 -150 -29 -198 2 -174
107 -211 444 -74 672 93 154 207 212 329 165z"/>
<path d="M8791 7475 c-130 -37 -250 -134 -306 -250 -57 -116 -57 -279 2 -403
35 -75 149 -190 224 -225 148 -70 320 -62 452 20 78 47 185 166 175 192 -2 5
-59 -8 -128 -29 -425 -129 -433 -131 -479 -93 -21 18 -17 20 221 132 134 63
287 135 341 160 91 42 97 47 97 74 0 41 -21 108 -36 114 -11 4 -109 -50 -449
-247 -212 -123 -265 -151 -275 -145 -13 8 -70 106 -70 121 0 11 456 441 517
488 24 18 46 17 118 -9 45 -16 -32 39 -103 73 -62 29 -85 35 -160 38 -58 3
-105 -1 -141 -11z"/>
<path d="M4340 6080 c-28 -28 -26 -81 3 -108 30 -28 52 -28 82 3 30 30 32 64
4 99 -25 31 -61 34 -89 6z"/>
<path d="M4441 5694 c-24 -30 -26 -46 -10 -77 16 -29 28 -37 61 -37 37 0 58
25 58 69 0 69 -68 97 -109 45z"/>
<path d="M4502 5290 c-45 -42 -16 -130 42 -130 30 0 66 43 66 77 0 28 -41 73
-68 73 -10 0 -28 -9 -40 -20z"/>
<path d="M5822 3617 c-45 -48 -14 -117 52 -117 26 0 40 7 56 27 55 71 -47 156
-108 90z"/>
<path d="M6322 3567 c-42 -45 -22 -107 39 -122 38 -9 82 31 82 75 0 63 -78 93
-121 47z"/>
<path d="M6822 3517 c-44 -47 -15 -120 48 -120 44 0 84 44 75 82 -14 59 -83
80 -123 38z"/>
<path d="M7270 3468 c-43 -47 -10 -118 56 -118 35 0 74 37 74 70 0 10 -9 29
-21 44 -27 34 -79 36 -109 4z"/>
<path d="M2749 1546 c-76 -27 -126 -79 -181 -191 -35 -71 -50 -133 -52 -217
l-1 -73 45 -3 c48 -4 60 -13 60 -49 0 -21 -5 -23 -49 -23 -44 0 -49 -2 -44
-20 4 -17 14 -20 57 -20 51 -1 51 -1 81 -53 17 -28 45 -62 64 -74 l34 -23 -59
0 c-42 0 -55 -3 -44 -10 25 -16 112 -11 155 9 125 57 224 273 212 461 -10 146
-81 266 -172 289 -54 14 -61 13 -106 -3z"/>
<path d="M1895 1361 c-102 -48 -175 -192 -175 -348 0 -30 2 -32 43 -35 38 -3
42 -6 45 -30 3 -26 1 -28 -37 -28 -32 0 -39 -3 -35 -15 4 -10 20 -15 45 -15
35 0 41 -4 65 -42 14 -24 38 -53 52 -65 l27 -23 -40 0 c-30 0 -36 -3 -25 -10
39 -25 119 -1 169 51 73 76 110 180 111 306 0 107 -49 221 -109 252 -38 20
-96 21 -136 2z"/>
</g>
</svg>
