%TF.GenerationSoftware,KiCad,Pcbnew,7.0.1*%
%TF.CreationDate,2023-08-31T02:32:48+03:00*%
%TF.ProjectId,miranda-pdb,6d697261-6e64-4612-9d70-64622e6b6963,rev?*%
%TF.SameCoordinates,Original*%
%TF.FileFunction,Drillmap*%
%TF.FilePolarity,Positive*%
%FSLAX45Y45*%
G04 Gerber Fmt 4.5, Leading zero omitted, Abs format (unit mm)*
G04 Created by KiCad (PCBNEW 7.0.1) date 2023-08-31 02:32:48*
%MOMM*%
%LPD*%
G01*
G04 APERTURE LIST*
%ADD10C,0.100000*%
%ADD11C,0.200000*%
G04 APERTURE END LIST*
D10*
X7960360Y-12954000D02*
G75*
G03*
X8366760Y-13360400I406400J0D01*
G01*
X11419840Y-13360400D02*
G75*
G03*
X11826240Y-12954000I0J406400D01*
G01*
X8366760Y-8747760D02*
G75*
G03*
X7960360Y-9154160I0J-406400D01*
G01*
X11826240Y-9154160D02*
G75*
G03*
X11419840Y-8747760I-406400J0D01*
G01*
X8366760Y-13360400D02*
X11419840Y-13360400D01*
X7960360Y-9154160D02*
X7960360Y-12954000D01*
X11419840Y-8747760D02*
X8366760Y-8747760D01*
X11826240Y-9154160D02*
X11826240Y-12954000D01*
X11582400Y-12954000D02*
G75*
G03*
X11582400Y-12954000I-165100J0D01*
G01*
X8534400Y-12954000D02*
G75*
G03*
X8534400Y-12954000I-165100J0D01*
G01*
X8534400Y-9906000D02*
G75*
G03*
X8534400Y-9906000I-165100J0D01*
G01*
X11582400Y-9906000D02*
G75*
G03*
X11582400Y-9906000I-165100J0D01*
G01*
D11*
X8202979Y-13677924D02*
X8202979Y-13477924D01*
X8202979Y-13477924D02*
X8250598Y-13477924D01*
X8250598Y-13477924D02*
X8279169Y-13487448D01*
X8279169Y-13487448D02*
X8298217Y-13506495D01*
X8298217Y-13506495D02*
X8307741Y-13525543D01*
X8307741Y-13525543D02*
X8317265Y-13563638D01*
X8317265Y-13563638D02*
X8317265Y-13592209D01*
X8317265Y-13592209D02*
X8307741Y-13630305D01*
X8307741Y-13630305D02*
X8298217Y-13649352D01*
X8298217Y-13649352D02*
X8279169Y-13668400D01*
X8279169Y-13668400D02*
X8250598Y-13677924D01*
X8250598Y-13677924D02*
X8202979Y-13677924D01*
X8402979Y-13677924D02*
X8402979Y-13544590D01*
X8402979Y-13582686D02*
X8412503Y-13563638D01*
X8412503Y-13563638D02*
X8422027Y-13554114D01*
X8422027Y-13554114D02*
X8441074Y-13544590D01*
X8441074Y-13544590D02*
X8460122Y-13544590D01*
X8526789Y-13677924D02*
X8526789Y-13544590D01*
X8526789Y-13477924D02*
X8517265Y-13487448D01*
X8517265Y-13487448D02*
X8526789Y-13496971D01*
X8526789Y-13496971D02*
X8536312Y-13487448D01*
X8536312Y-13487448D02*
X8526789Y-13477924D01*
X8526789Y-13477924D02*
X8526789Y-13496971D01*
X8650598Y-13677924D02*
X8631550Y-13668400D01*
X8631550Y-13668400D02*
X8622027Y-13649352D01*
X8622027Y-13649352D02*
X8622027Y-13477924D01*
X8755360Y-13677924D02*
X8736312Y-13668400D01*
X8736312Y-13668400D02*
X8726789Y-13649352D01*
X8726789Y-13649352D02*
X8726789Y-13477924D01*
X8983931Y-13677924D02*
X8983931Y-13477924D01*
X8983931Y-13477924D02*
X9050598Y-13620781D01*
X9050598Y-13620781D02*
X9117265Y-13477924D01*
X9117265Y-13477924D02*
X9117265Y-13677924D01*
X9298217Y-13677924D02*
X9298217Y-13573162D01*
X9298217Y-13573162D02*
X9288693Y-13554114D01*
X9288693Y-13554114D02*
X9269646Y-13544590D01*
X9269646Y-13544590D02*
X9231550Y-13544590D01*
X9231550Y-13544590D02*
X9212503Y-13554114D01*
X9298217Y-13668400D02*
X9279170Y-13677924D01*
X9279170Y-13677924D02*
X9231550Y-13677924D01*
X9231550Y-13677924D02*
X9212503Y-13668400D01*
X9212503Y-13668400D02*
X9202979Y-13649352D01*
X9202979Y-13649352D02*
X9202979Y-13630305D01*
X9202979Y-13630305D02*
X9212503Y-13611257D01*
X9212503Y-13611257D02*
X9231550Y-13601733D01*
X9231550Y-13601733D02*
X9279170Y-13601733D01*
X9279170Y-13601733D02*
X9298217Y-13592209D01*
X9393455Y-13544590D02*
X9393455Y-13744590D01*
X9393455Y-13554114D02*
X9412503Y-13544590D01*
X9412503Y-13544590D02*
X9450598Y-13544590D01*
X9450598Y-13544590D02*
X9469646Y-13554114D01*
X9469646Y-13554114D02*
X9479170Y-13563638D01*
X9479170Y-13563638D02*
X9488693Y-13582686D01*
X9488693Y-13582686D02*
X9488693Y-13639828D01*
X9488693Y-13639828D02*
X9479170Y-13658876D01*
X9479170Y-13658876D02*
X9469646Y-13668400D01*
X9469646Y-13668400D02*
X9450598Y-13677924D01*
X9450598Y-13677924D02*
X9412503Y-13677924D01*
X9412503Y-13677924D02*
X9393455Y-13668400D01*
X9574408Y-13658876D02*
X9583931Y-13668400D01*
X9583931Y-13668400D02*
X9574408Y-13677924D01*
X9574408Y-13677924D02*
X9564884Y-13668400D01*
X9564884Y-13668400D02*
X9574408Y-13658876D01*
X9574408Y-13658876D02*
X9574408Y-13677924D01*
X9574408Y-13554114D02*
X9583931Y-13563638D01*
X9583931Y-13563638D02*
X9574408Y-13573162D01*
X9574408Y-13573162D02*
X9564884Y-13563638D01*
X9564884Y-13563638D02*
X9574408Y-13554114D01*
X9574408Y-13554114D02*
X9574408Y-13573162D01*
M02*
