M48
; DRILL file {KiCad 7.0.1} date Thu Aug 31 02:32:45 2023
; FORMAT={-:-/ absolute / metric / decimal}
; #@! TF.CreationDate,2023-08-31T02:32:45+03:00
; #@! TF.GenerationSoftware,Kicad,Pcbnew,7.0.1
; #@! TF.FileFunction,Plated,1,2,PTH
FMAT,2
METRIC
; #@! TA.AperFunction,Plated,PTH,ViaDrill
T1C0.350
; #@! TA.AperFunction,Plated,PTH,ComponentDrill
T2C1.000
; #@! TA.AperFunction,Plated,PTH,ComponentDrill
T3C1.100
; #@! TA.AperFunction,Plated,PTH,ComponentDrill
T4C1.800
%
G90
G05
T1
X86.258Y-118.618
X86.817Y-108.61
X86.817Y-109.474
X86.817Y-110.338
X86.817Y-111.201
X87.224Y-117.551
X87.351Y-113.197
X87.935Y-108.61
X87.935Y-109.474
X87.935Y-110.338
X87.935Y-111.201
X88.138Y-117.551
X88.824Y-113.197
X89.052Y-117.551
X89.967Y-117.602
X90.297Y-113.045
X90.932Y-117.602
X92.024Y-115.127
X94.717Y-117.566
X95.783Y-117.566
X96.571Y-95.504
X97.815Y-117.515
X98.095Y-108.763
X98.425Y-115.432
X99.771Y-123.292
X99.771Y-124.612
X99.771Y-125.933
X100.432Y-97.993
X100.432Y-99.517
X100.432Y-101.041
X100.432Y-102.514
X100.482Y-104.191
X101.295Y-101.905
X101.346Y-100.33
X101.346Y-103.378
X101.397Y-98.704
X102.413Y-119.939
X104.496Y-117.754
X105.181Y-113.908
X105.512Y-117.754
X105.943Y-113.349
X106.477Y-117.754
X107.442Y-117.754
X107.518Y-113.095
X108.306Y-117.754
X108.814Y-109.017
X109.042Y-115.178
X109.982Y-108.661
X109.982Y-109.525
X109.982Y-110.388
X109.982Y-111.252
X111.1Y-108.661
X111.1Y-109.525
X111.1Y-110.388
X111.1Y-111.252
X111.887Y-117.617
X112.954Y-117.617
X116.408Y-113.349
X116.586Y-117.718
X116.942Y-123.19
X116.942Y-124.511
X116.942Y-125.832
T2
X81.24Y-119.619
X81.24Y-122.159
X81.24Y-124.699
X83.78Y-119.619
X83.78Y-122.159
X83.78Y-124.699
X88.28Y-129.529
X88.28Y-132.069
X90.82Y-129.529
X90.82Y-132.069
X93.36Y-129.529
X93.36Y-132.069
X95.9Y-129.529
X95.9Y-132.069
X101.387Y-129.529
X101.387Y-132.069
X103.927Y-129.529
X103.927Y-132.069
X106.467Y-129.529
X106.467Y-132.069
X109.007Y-129.529
X109.007Y-132.069
T3
X83.828Y-89.082
X96.828Y-89.082
X100.79Y-89.086
X113.79Y-89.086
T4
X86.828Y-94.082
X90.328Y-94.082
X93.828Y-94.082
X103.79Y-94.086
X107.29Y-94.086
X110.79Y-94.086
T0
M30
