G04 #@! TF.GenerationSoftware,KiCad,Pcbnew,7.0.1*
G04 #@! TF.CreationDate,2023-08-31T02:32:27+03:00*
G04 #@! TF.ProjectId,miranda-pdb,6d697261-6e64-4612-9d70-64622e6b6963,rev?*
G04 #@! TF.SameCoordinates,Original*
G04 #@! TF.FileFunction,Legend,Top*
G04 #@! TF.FilePolarity,Positive*
%FSLAX46Y46*%
G04 Gerber Fmt 4.6, Leading zero omitted, Abs format (unit mm)*
G04 Created by KiCad (PCBNEW 7.0.1) date 2023-08-31 02:32:27*
%MOMM*%
%LPD*%
G01*
G04 APERTURE LIST*
G04 Aperture macros list*
%AMRoundRect*
0 Rectangle with rounded corners*
0 $1 Rounding radius*
0 $2 $3 $4 $5 $6 $7 $8 $9 X,Y pos of 4 corners*
0 Add a 4 corners polygon primitive as box body*
4,1,4,$2,$3,$4,$5,$6,$7,$8,$9,$2,$3,0*
0 Add four circle primitives for the rounded corners*
1,1,$1+$1,$2,$3*
1,1,$1+$1,$4,$5*
1,1,$1+$1,$6,$7*
1,1,$1+$1,$8,$9*
0 Add four rect primitives between the rounded corners*
20,1,$1+$1,$2,$3,$4,$5,0*
20,1,$1+$1,$4,$5,$6,$7,0*
20,1,$1+$1,$6,$7,$8,$9,0*
20,1,$1+$1,$8,$9,$2,$3,0*%
G04 Aperture macros list end*
%ADD10C,0.200000*%
%ADD11C,0.000000*%
%ADD12C,0.120000*%
%ADD13R,6.000000X4.000000*%
%ADD14R,1.700000X1.700000*%
%ADD15O,1.700000X1.700000*%
%ADD16C,2.000000*%
%ADD17C,3.000000*%
%ADD18RoundRect,0.250000X0.250000X0.475000X-0.250000X0.475000X-0.250000X-0.475000X0.250000X-0.475000X0*%
%ADD19RoundRect,0.250000X-0.475000X0.250000X-0.475000X-0.250000X0.475000X-0.250000X0.475000X0.250000X0*%
%ADD20RoundRect,0.250000X0.475000X-0.250000X0.475000X0.250000X-0.475000X0.250000X-0.475000X-0.250000X0*%
%ADD21R,0.450000X1.150000*%
%ADD22RoundRect,0.250000X-0.450000X0.325000X-0.450000X-0.325000X0.450000X-0.325000X0.450000X0.325000X0*%
%ADD23RoundRect,0.250000X0.450000X-0.350000X0.450000X0.350000X-0.450000X0.350000X-0.450000X-0.350000X0*%
%ADD24RoundRect,0.249999X0.450001X1.425001X-0.450001X1.425001X-0.450001X-1.425001X0.450001X-1.425001X0*%
%ADD25RoundRect,0.250000X-0.450000X0.350000X-0.450000X-0.350000X0.450000X-0.350000X0.450000X0.350000X0*%
%ADD26R,7.500000X3.000000*%
%ADD27RoundRect,0.150000X0.512500X0.150000X-0.512500X0.150000X-0.512500X-0.150000X0.512500X-0.150000X0*%
G04 APERTURE END LIST*
D10*
X80215200Y-101710071D02*
X80258057Y-101667214D01*
X80258057Y-101667214D02*
X80343772Y-101624357D01*
X80343772Y-101624357D02*
X80558057Y-101624357D01*
X80558057Y-101624357D02*
X80643772Y-101667214D01*
X80643772Y-101667214D02*
X80686629Y-101710071D01*
X80686629Y-101710071D02*
X80729486Y-101795785D01*
X80729486Y-101795785D02*
X80729486Y-101881500D01*
X80729486Y-101881500D02*
X80686629Y-102010071D01*
X80686629Y-102010071D02*
X80172343Y-102524357D01*
X80172343Y-102524357D02*
X80729486Y-102524357D01*
X81115200Y-102181500D02*
X81800915Y-102181500D01*
X82615201Y-101924357D02*
X82615201Y-102524357D01*
X82400915Y-101581500D02*
X82186629Y-102224357D01*
X82186629Y-102224357D02*
X82743772Y-102224357D01*
X83043772Y-102481500D02*
X83172344Y-102524357D01*
X83172344Y-102524357D02*
X83386629Y-102524357D01*
X83386629Y-102524357D02*
X83472344Y-102481500D01*
X83472344Y-102481500D02*
X83515201Y-102438642D01*
X83515201Y-102438642D02*
X83558058Y-102352928D01*
X83558058Y-102352928D02*
X83558058Y-102267214D01*
X83558058Y-102267214D02*
X83515201Y-102181500D01*
X83515201Y-102181500D02*
X83472344Y-102138642D01*
X83472344Y-102138642D02*
X83386629Y-102095785D01*
X83386629Y-102095785D02*
X83215201Y-102052928D01*
X83215201Y-102052928D02*
X83129486Y-102010071D01*
X83129486Y-102010071D02*
X83086629Y-101967214D01*
X83086629Y-101967214D02*
X83043772Y-101881500D01*
X83043772Y-101881500D02*
X83043772Y-101795785D01*
X83043772Y-101795785D02*
X83086629Y-101710071D01*
X83086629Y-101710071D02*
X83129486Y-101667214D01*
X83129486Y-101667214D02*
X83215201Y-101624357D01*
X83215201Y-101624357D02*
X83429486Y-101624357D01*
X83429486Y-101624357D02*
X83558058Y-101667214D01*
X84800915Y-101624357D02*
X84972343Y-101624357D01*
X84972343Y-101624357D02*
X85058058Y-101667214D01*
X85058058Y-101667214D02*
X85143772Y-101752928D01*
X85143772Y-101752928D02*
X85186629Y-101924357D01*
X85186629Y-101924357D02*
X85186629Y-102224357D01*
X85186629Y-102224357D02*
X85143772Y-102395785D01*
X85143772Y-102395785D02*
X85058058Y-102481500D01*
X85058058Y-102481500D02*
X84972343Y-102524357D01*
X84972343Y-102524357D02*
X84800915Y-102524357D01*
X84800915Y-102524357D02*
X84715201Y-102481500D01*
X84715201Y-102481500D02*
X84629486Y-102395785D01*
X84629486Y-102395785D02*
X84586629Y-102224357D01*
X84586629Y-102224357D02*
X84586629Y-101924357D01*
X84586629Y-101924357D02*
X84629486Y-101752928D01*
X84629486Y-101752928D02*
X84715201Y-101667214D01*
X84715201Y-101667214D02*
X84800915Y-101624357D01*
X85572343Y-101624357D02*
X85572343Y-102352928D01*
X85572343Y-102352928D02*
X85615200Y-102438642D01*
X85615200Y-102438642D02*
X85658058Y-102481500D01*
X85658058Y-102481500D02*
X85743772Y-102524357D01*
X85743772Y-102524357D02*
X85915200Y-102524357D01*
X85915200Y-102524357D02*
X86000915Y-102481500D01*
X86000915Y-102481500D02*
X86043772Y-102438642D01*
X86043772Y-102438642D02*
X86086629Y-102352928D01*
X86086629Y-102352928D02*
X86086629Y-101624357D01*
X86386629Y-101624357D02*
X86900915Y-101624357D01*
X86643772Y-102524357D02*
X86643772Y-101624357D01*
X89281086Y-110150814D02*
X89195372Y-110107957D01*
X89195372Y-110107957D02*
X89066800Y-110107957D01*
X89066800Y-110107957D02*
X88938229Y-110150814D01*
X88938229Y-110150814D02*
X88852514Y-110236528D01*
X88852514Y-110236528D02*
X88809657Y-110322242D01*
X88809657Y-110322242D02*
X88766800Y-110493671D01*
X88766800Y-110493671D02*
X88766800Y-110622242D01*
X88766800Y-110622242D02*
X88809657Y-110793671D01*
X88809657Y-110793671D02*
X88852514Y-110879385D01*
X88852514Y-110879385D02*
X88938229Y-110965100D01*
X88938229Y-110965100D02*
X89066800Y-111007957D01*
X89066800Y-111007957D02*
X89152514Y-111007957D01*
X89152514Y-111007957D02*
X89281086Y-110965100D01*
X89281086Y-110965100D02*
X89323943Y-110922242D01*
X89323943Y-110922242D02*
X89323943Y-110622242D01*
X89323943Y-110622242D02*
X89152514Y-110622242D01*
X89709657Y-111007957D02*
X89709657Y-110107957D01*
X89709657Y-110107957D02*
X90223943Y-111007957D01*
X90223943Y-111007957D02*
X90223943Y-110107957D01*
X90652514Y-111007957D02*
X90652514Y-110107957D01*
X90652514Y-110107957D02*
X90866800Y-110107957D01*
X90866800Y-110107957D02*
X90995371Y-110150814D01*
X90995371Y-110150814D02*
X91081086Y-110236528D01*
X91081086Y-110236528D02*
X91123943Y-110322242D01*
X91123943Y-110322242D02*
X91166800Y-110493671D01*
X91166800Y-110493671D02*
X91166800Y-110622242D01*
X91166800Y-110622242D02*
X91123943Y-110793671D01*
X91123943Y-110793671D02*
X91081086Y-110879385D01*
X91081086Y-110879385D02*
X90995371Y-110965100D01*
X90995371Y-110965100D02*
X90866800Y-111007957D01*
X90866800Y-111007957D02*
X90652514Y-111007957D01*
X112260400Y-102167271D02*
X112303257Y-102124414D01*
X112303257Y-102124414D02*
X112388972Y-102081557D01*
X112388972Y-102081557D02*
X112603257Y-102081557D01*
X112603257Y-102081557D02*
X112688972Y-102124414D01*
X112688972Y-102124414D02*
X112731829Y-102167271D01*
X112731829Y-102167271D02*
X112774686Y-102252985D01*
X112774686Y-102252985D02*
X112774686Y-102338700D01*
X112774686Y-102338700D02*
X112731829Y-102467271D01*
X112731829Y-102467271D02*
X112217543Y-102981557D01*
X112217543Y-102981557D02*
X112774686Y-102981557D01*
X113160400Y-102638700D02*
X113846115Y-102638700D01*
X114660401Y-102381557D02*
X114660401Y-102981557D01*
X114446115Y-102038700D02*
X114231829Y-102681557D01*
X114231829Y-102681557D02*
X114788972Y-102681557D01*
X115088972Y-102938700D02*
X115217544Y-102981557D01*
X115217544Y-102981557D02*
X115431829Y-102981557D01*
X115431829Y-102981557D02*
X115517544Y-102938700D01*
X115517544Y-102938700D02*
X115560401Y-102895842D01*
X115560401Y-102895842D02*
X115603258Y-102810128D01*
X115603258Y-102810128D02*
X115603258Y-102724414D01*
X115603258Y-102724414D02*
X115560401Y-102638700D01*
X115560401Y-102638700D02*
X115517544Y-102595842D01*
X115517544Y-102595842D02*
X115431829Y-102552985D01*
X115431829Y-102552985D02*
X115260401Y-102510128D01*
X115260401Y-102510128D02*
X115174686Y-102467271D01*
X115174686Y-102467271D02*
X115131829Y-102424414D01*
X115131829Y-102424414D02*
X115088972Y-102338700D01*
X115088972Y-102338700D02*
X115088972Y-102252985D01*
X115088972Y-102252985D02*
X115131829Y-102167271D01*
X115131829Y-102167271D02*
X115174686Y-102124414D01*
X115174686Y-102124414D02*
X115260401Y-102081557D01*
X115260401Y-102081557D02*
X115474686Y-102081557D01*
X115474686Y-102081557D02*
X115603258Y-102124414D01*
X116674686Y-102981557D02*
X116674686Y-102081557D01*
X117103257Y-102981557D02*
X117103257Y-102081557D01*
X117103257Y-102081557D02*
X117617543Y-102981557D01*
X117617543Y-102981557D02*
X117617543Y-102081557D01*
X113766686Y-112132014D02*
X113680972Y-112089157D01*
X113680972Y-112089157D02*
X113552400Y-112089157D01*
X113552400Y-112089157D02*
X113423829Y-112132014D01*
X113423829Y-112132014D02*
X113338114Y-112217728D01*
X113338114Y-112217728D02*
X113295257Y-112303442D01*
X113295257Y-112303442D02*
X113252400Y-112474871D01*
X113252400Y-112474871D02*
X113252400Y-112603442D01*
X113252400Y-112603442D02*
X113295257Y-112774871D01*
X113295257Y-112774871D02*
X113338114Y-112860585D01*
X113338114Y-112860585D02*
X113423829Y-112946300D01*
X113423829Y-112946300D02*
X113552400Y-112989157D01*
X113552400Y-112989157D02*
X113638114Y-112989157D01*
X113638114Y-112989157D02*
X113766686Y-112946300D01*
X113766686Y-112946300D02*
X113809543Y-112903442D01*
X113809543Y-112903442D02*
X113809543Y-112603442D01*
X113809543Y-112603442D02*
X113638114Y-112603442D01*
X114195257Y-112989157D02*
X114195257Y-112089157D01*
X114195257Y-112089157D02*
X114709543Y-112989157D01*
X114709543Y-112989157D02*
X114709543Y-112089157D01*
X115138114Y-112989157D02*
X115138114Y-112089157D01*
X115138114Y-112089157D02*
X115352400Y-112089157D01*
X115352400Y-112089157D02*
X115480971Y-112132014D01*
X115480971Y-112132014D02*
X115566686Y-112217728D01*
X115566686Y-112217728D02*
X115609543Y-112303442D01*
X115609543Y-112303442D02*
X115652400Y-112474871D01*
X115652400Y-112474871D02*
X115652400Y-112603442D01*
X115652400Y-112603442D02*
X115609543Y-112774871D01*
X115609543Y-112774871D02*
X115566686Y-112860585D01*
X115566686Y-112860585D02*
X115480971Y-112946300D01*
X115480971Y-112946300D02*
X115352400Y-112989157D01*
X115352400Y-112989157D02*
X115138114Y-112989157D01*
X90311485Y-127835500D02*
X90997200Y-127835500D01*
X90654342Y-128178357D02*
X90654342Y-127492642D01*
X91897200Y-128178357D02*
X91382914Y-128178357D01*
X91640057Y-128178357D02*
X91640057Y-127278357D01*
X91640057Y-127278357D02*
X91554343Y-127406928D01*
X91554343Y-127406928D02*
X91468628Y-127492642D01*
X91468628Y-127492642D02*
X91382914Y-127535500D01*
X92240057Y-127364071D02*
X92282914Y-127321214D01*
X92282914Y-127321214D02*
X92368629Y-127278357D01*
X92368629Y-127278357D02*
X92582914Y-127278357D01*
X92582914Y-127278357D02*
X92668629Y-127321214D01*
X92668629Y-127321214D02*
X92711486Y-127364071D01*
X92711486Y-127364071D02*
X92754343Y-127449785D01*
X92754343Y-127449785D02*
X92754343Y-127535500D01*
X92754343Y-127535500D02*
X92711486Y-127664071D01*
X92711486Y-127664071D02*
X92197200Y-128178357D01*
X92197200Y-128178357D02*
X92754343Y-128178357D01*
X93011486Y-127278357D02*
X93311486Y-128178357D01*
X93311486Y-128178357D02*
X93611486Y-127278357D01*
X103948056Y-127835500D02*
X104633771Y-127835500D01*
X104290913Y-128178357D02*
X104290913Y-127492642D01*
X105490914Y-127278357D02*
X105062342Y-127278357D01*
X105062342Y-127278357D02*
X105019485Y-127706928D01*
X105019485Y-127706928D02*
X105062342Y-127664071D01*
X105062342Y-127664071D02*
X105148057Y-127621214D01*
X105148057Y-127621214D02*
X105362342Y-127621214D01*
X105362342Y-127621214D02*
X105448057Y-127664071D01*
X105448057Y-127664071D02*
X105490914Y-127706928D01*
X105490914Y-127706928D02*
X105533771Y-127792642D01*
X105533771Y-127792642D02*
X105533771Y-128006928D01*
X105533771Y-128006928D02*
X105490914Y-128092642D01*
X105490914Y-128092642D02*
X105448057Y-128135500D01*
X105448057Y-128135500D02*
X105362342Y-128178357D01*
X105362342Y-128178357D02*
X105148057Y-128178357D01*
X105148057Y-128178357D02*
X105062342Y-128135500D01*
X105062342Y-128135500D02*
X105019485Y-128092642D01*
X105790914Y-127278357D02*
X106090914Y-128178357D01*
X106090914Y-128178357D02*
X106390914Y-127278357D01*
X98069486Y-131588414D02*
X97983772Y-131545557D01*
X97983772Y-131545557D02*
X97855200Y-131545557D01*
X97855200Y-131545557D02*
X97726629Y-131588414D01*
X97726629Y-131588414D02*
X97640914Y-131674128D01*
X97640914Y-131674128D02*
X97598057Y-131759842D01*
X97598057Y-131759842D02*
X97555200Y-131931271D01*
X97555200Y-131931271D02*
X97555200Y-132059842D01*
X97555200Y-132059842D02*
X97598057Y-132231271D01*
X97598057Y-132231271D02*
X97640914Y-132316985D01*
X97640914Y-132316985D02*
X97726629Y-132402700D01*
X97726629Y-132402700D02*
X97855200Y-132445557D01*
X97855200Y-132445557D02*
X97940914Y-132445557D01*
X97940914Y-132445557D02*
X98069486Y-132402700D01*
X98069486Y-132402700D02*
X98112343Y-132359842D01*
X98112343Y-132359842D02*
X98112343Y-132059842D01*
X98112343Y-132059842D02*
X97940914Y-132059842D01*
X98498057Y-132445557D02*
X98498057Y-131545557D01*
X98498057Y-131545557D02*
X99012343Y-132445557D01*
X99012343Y-132445557D02*
X99012343Y-131545557D01*
X99440914Y-132445557D02*
X99440914Y-131545557D01*
X99440914Y-131545557D02*
X99655200Y-131545557D01*
X99655200Y-131545557D02*
X99783771Y-131588414D01*
X99783771Y-131588414D02*
X99869486Y-131674128D01*
X99869486Y-131674128D02*
X99912343Y-131759842D01*
X99912343Y-131759842D02*
X99955200Y-131931271D01*
X99955200Y-131931271D02*
X99955200Y-132059842D01*
X99955200Y-132059842D02*
X99912343Y-132231271D01*
X99912343Y-132231271D02*
X99869486Y-132316985D01*
X99869486Y-132316985D02*
X99783771Y-132402700D01*
X99783771Y-132402700D02*
X99655200Y-132445557D01*
X99655200Y-132445557D02*
X99440914Y-132445557D01*
X84912286Y-131537614D02*
X84826572Y-131494757D01*
X84826572Y-131494757D02*
X84698000Y-131494757D01*
X84698000Y-131494757D02*
X84569429Y-131537614D01*
X84569429Y-131537614D02*
X84483714Y-131623328D01*
X84483714Y-131623328D02*
X84440857Y-131709042D01*
X84440857Y-131709042D02*
X84398000Y-131880471D01*
X84398000Y-131880471D02*
X84398000Y-132009042D01*
X84398000Y-132009042D02*
X84440857Y-132180471D01*
X84440857Y-132180471D02*
X84483714Y-132266185D01*
X84483714Y-132266185D02*
X84569429Y-132351900D01*
X84569429Y-132351900D02*
X84698000Y-132394757D01*
X84698000Y-132394757D02*
X84783714Y-132394757D01*
X84783714Y-132394757D02*
X84912286Y-132351900D01*
X84912286Y-132351900D02*
X84955143Y-132309042D01*
X84955143Y-132309042D02*
X84955143Y-132009042D01*
X84955143Y-132009042D02*
X84783714Y-132009042D01*
X85340857Y-132394757D02*
X85340857Y-131494757D01*
X85340857Y-131494757D02*
X85855143Y-132394757D01*
X85855143Y-132394757D02*
X85855143Y-131494757D01*
X86283714Y-132394757D02*
X86283714Y-131494757D01*
X86283714Y-131494757D02*
X86498000Y-131494757D01*
X86498000Y-131494757D02*
X86626571Y-131537614D01*
X86626571Y-131537614D02*
X86712286Y-131623328D01*
X86712286Y-131623328D02*
X86755143Y-131709042D01*
X86755143Y-131709042D02*
X86798000Y-131880471D01*
X86798000Y-131880471D02*
X86798000Y-132009042D01*
X86798000Y-132009042D02*
X86755143Y-132180471D01*
X86755143Y-132180471D02*
X86712286Y-132266185D01*
X86712286Y-132266185D02*
X86626571Y-132351900D01*
X86626571Y-132351900D02*
X86498000Y-132394757D01*
X86498000Y-132394757D02*
X86283714Y-132394757D01*
X83379214Y-117779713D02*
X83336357Y-117865428D01*
X83336357Y-117865428D02*
X83336357Y-117993999D01*
X83336357Y-117993999D02*
X83379214Y-118122570D01*
X83379214Y-118122570D02*
X83464928Y-118208285D01*
X83464928Y-118208285D02*
X83550642Y-118251142D01*
X83550642Y-118251142D02*
X83722071Y-118293999D01*
X83722071Y-118293999D02*
X83850642Y-118293999D01*
X83850642Y-118293999D02*
X84022071Y-118251142D01*
X84022071Y-118251142D02*
X84107785Y-118208285D01*
X84107785Y-118208285D02*
X84193500Y-118122570D01*
X84193500Y-118122570D02*
X84236357Y-117993999D01*
X84236357Y-117993999D02*
X84236357Y-117908285D01*
X84236357Y-117908285D02*
X84193500Y-117779713D01*
X84193500Y-117779713D02*
X84150642Y-117736856D01*
X84150642Y-117736856D02*
X83850642Y-117736856D01*
X83850642Y-117736856D02*
X83850642Y-117908285D01*
X84236357Y-117351142D02*
X83336357Y-117351142D01*
X83336357Y-117351142D02*
X84236357Y-116836856D01*
X84236357Y-116836856D02*
X83336357Y-116836856D01*
X84236357Y-116408285D02*
X83336357Y-116408285D01*
X83336357Y-116408285D02*
X83336357Y-116193999D01*
X83336357Y-116193999D02*
X83379214Y-116065428D01*
X83379214Y-116065428D02*
X83464928Y-115979713D01*
X83464928Y-115979713D02*
X83550642Y-115936856D01*
X83550642Y-115936856D02*
X83722071Y-115893999D01*
X83722071Y-115893999D02*
X83850642Y-115893999D01*
X83850642Y-115893999D02*
X84022071Y-115936856D01*
X84022071Y-115936856D02*
X84107785Y-115979713D01*
X84107785Y-115979713D02*
X84193500Y-116065428D01*
X84193500Y-116065428D02*
X84236357Y-116193999D01*
X84236357Y-116193999D02*
X84236357Y-116408285D01*
X80738743Y-118186642D02*
X80695886Y-118229500D01*
X80695886Y-118229500D02*
X80567314Y-118272357D01*
X80567314Y-118272357D02*
X80481600Y-118272357D01*
X80481600Y-118272357D02*
X80353029Y-118229500D01*
X80353029Y-118229500D02*
X80267314Y-118143785D01*
X80267314Y-118143785D02*
X80224457Y-118058071D01*
X80224457Y-118058071D02*
X80181600Y-117886642D01*
X80181600Y-117886642D02*
X80181600Y-117758071D01*
X80181600Y-117758071D02*
X80224457Y-117586642D01*
X80224457Y-117586642D02*
X80267314Y-117500928D01*
X80267314Y-117500928D02*
X80353029Y-117415214D01*
X80353029Y-117415214D02*
X80481600Y-117372357D01*
X80481600Y-117372357D02*
X80567314Y-117372357D01*
X80567314Y-117372357D02*
X80695886Y-117415214D01*
X80695886Y-117415214D02*
X80738743Y-117458071D01*
X81124457Y-117372357D02*
X81124457Y-118100928D01*
X81124457Y-118100928D02*
X81167314Y-118186642D01*
X81167314Y-118186642D02*
X81210172Y-118229500D01*
X81210172Y-118229500D02*
X81295886Y-118272357D01*
X81295886Y-118272357D02*
X81467314Y-118272357D01*
X81467314Y-118272357D02*
X81553029Y-118229500D01*
X81553029Y-118229500D02*
X81595886Y-118186642D01*
X81595886Y-118186642D02*
X81638743Y-118100928D01*
X81638743Y-118100928D02*
X81638743Y-117372357D01*
X82581600Y-118272357D02*
X82281600Y-117843785D01*
X82067314Y-118272357D02*
X82067314Y-117372357D01*
X82067314Y-117372357D02*
X82410171Y-117372357D01*
X82410171Y-117372357D02*
X82495886Y-117415214D01*
X82495886Y-117415214D02*
X82538743Y-117458071D01*
X82538743Y-117458071D02*
X82581600Y-117543785D01*
X82581600Y-117543785D02*
X82581600Y-117672357D01*
X82581600Y-117672357D02*
X82538743Y-117758071D01*
X82538743Y-117758071D02*
X82495886Y-117800928D01*
X82495886Y-117800928D02*
X82410171Y-117843785D01*
X82410171Y-117843785D02*
X82067314Y-117843785D01*
X80246628Y-114970357D02*
X80246628Y-114070357D01*
X80246628Y-114070357D02*
X80546628Y-114713214D01*
X80546628Y-114713214D02*
X80846628Y-114070357D01*
X80846628Y-114070357D02*
X80846628Y-114970357D01*
X81746628Y-114970357D02*
X81232342Y-114970357D01*
X81489485Y-114970357D02*
X81489485Y-114070357D01*
X81489485Y-114070357D02*
X81403771Y-114198928D01*
X81403771Y-114198928D02*
X81318056Y-114284642D01*
X81318056Y-114284642D02*
X81232342Y-114327500D01*
X80246628Y-116646757D02*
X80246628Y-115746757D01*
X80246628Y-115746757D02*
X80546628Y-116389614D01*
X80546628Y-116389614D02*
X80846628Y-115746757D01*
X80846628Y-115746757D02*
X80846628Y-116646757D01*
X81232342Y-115832471D02*
X81275199Y-115789614D01*
X81275199Y-115789614D02*
X81360914Y-115746757D01*
X81360914Y-115746757D02*
X81575199Y-115746757D01*
X81575199Y-115746757D02*
X81660914Y-115789614D01*
X81660914Y-115789614D02*
X81703771Y-115832471D01*
X81703771Y-115832471D02*
X81746628Y-115918185D01*
X81746628Y-115918185D02*
X81746628Y-116003900D01*
X81746628Y-116003900D02*
X81703771Y-116132471D01*
X81703771Y-116132471D02*
X81189485Y-116646757D01*
X81189485Y-116646757D02*
X81746628Y-116646757D01*
D11*
G36*
X90048136Y-106524912D02*
G01*
X90062413Y-106526221D01*
X90076477Y-106528251D01*
X90090238Y-106530999D01*
X90103608Y-106534464D01*
X90116500Y-106538642D01*
X90128824Y-106543532D01*
X90140492Y-106549131D01*
X90158132Y-106559868D01*
X90175274Y-106573483D01*
X90191831Y-106589769D01*
X90207713Y-106608514D01*
X90222832Y-106629510D01*
X90237100Y-106652548D01*
X90250429Y-106677419D01*
X90262729Y-106703913D01*
X90273914Y-106731820D01*
X90283894Y-106760932D01*
X90292581Y-106791040D01*
X90299887Y-106821933D01*
X90305723Y-106853403D01*
X90310001Y-106885241D01*
X90312633Y-106917237D01*
X90313529Y-106949181D01*
X90312562Y-106986275D01*
X90310255Y-107022535D01*
X90306609Y-107057949D01*
X90301623Y-107092503D01*
X90295298Y-107126182D01*
X90287633Y-107158973D01*
X90278629Y-107190862D01*
X90268286Y-107221834D01*
X90256603Y-107251877D01*
X90243580Y-107280975D01*
X90229218Y-107309115D01*
X90213517Y-107336283D01*
X90196476Y-107362465D01*
X90178096Y-107387648D01*
X90158376Y-107411816D01*
X90137317Y-107434956D01*
X90121904Y-107449905D01*
X90105539Y-107463764D01*
X90088389Y-107476483D01*
X90070617Y-107488014D01*
X90052390Y-107498307D01*
X90033872Y-107507315D01*
X90015229Y-107514988D01*
X89996625Y-107521277D01*
X89978226Y-107526134D01*
X89960196Y-107529509D01*
X89942701Y-107531354D01*
X89934206Y-107531688D01*
X89925907Y-107531620D01*
X89917823Y-107531146D01*
X89909977Y-107530259D01*
X89902388Y-107528952D01*
X89895078Y-107527221D01*
X89888066Y-107525057D01*
X89881373Y-107522457D01*
X89875021Y-107519413D01*
X89869029Y-107515919D01*
X89866074Y-107513909D01*
X89863768Y-107512046D01*
X89862126Y-107510327D01*
X89861560Y-107509521D01*
X89861166Y-107508750D01*
X89860947Y-107508014D01*
X89860904Y-107507313D01*
X89861040Y-107506645D01*
X89861356Y-107506012D01*
X89861854Y-107505413D01*
X89862537Y-107504847D01*
X89863407Y-107504314D01*
X89864465Y-107503814D01*
X89867156Y-107502911D01*
X89870626Y-107502136D01*
X89874892Y-107501487D01*
X89879968Y-107500961D01*
X89885873Y-107500556D01*
X89892622Y-107500270D01*
X89900231Y-107500100D01*
X89908717Y-107500044D01*
X89972217Y-107500044D01*
X89929355Y-107463532D01*
X89925009Y-107459652D01*
X89920338Y-107455191D01*
X89910205Y-107444730D01*
X89899329Y-107432557D01*
X89888080Y-107419081D01*
X89876831Y-107404713D01*
X89865954Y-107389861D01*
X89860771Y-107382382D01*
X89855821Y-107374935D01*
X89851150Y-107367572D01*
X89846804Y-107360344D01*
X89839977Y-107349654D01*
X89833711Y-107340159D01*
X89827895Y-107331790D01*
X89822422Y-107324477D01*
X89817180Y-107318149D01*
X89814613Y-107315333D01*
X89812063Y-107312738D01*
X89809516Y-107310354D01*
X89806959Y-107308173D01*
X89804378Y-107306186D01*
X89801759Y-107304385D01*
X89799090Y-107302760D01*
X89796355Y-107301304D01*
X89793543Y-107300007D01*
X89790638Y-107298860D01*
X89787627Y-107297855D01*
X89784496Y-107296983D01*
X89781233Y-107296236D01*
X89777823Y-107295604D01*
X89770507Y-107294653D01*
X89762441Y-107294060D01*
X89753514Y-107293755D01*
X89743617Y-107293669D01*
X89736344Y-107293576D01*
X89729413Y-107293297D01*
X89722831Y-107292832D01*
X89716605Y-107292181D01*
X89710741Y-107291344D01*
X89705247Y-107290321D01*
X89702641Y-107289739D01*
X89700130Y-107289112D01*
X89697715Y-107288437D01*
X89695397Y-107287716D01*
X89693176Y-107286949D01*
X89691054Y-107286135D01*
X89689031Y-107285274D01*
X89687109Y-107284368D01*
X89685288Y-107283414D01*
X89683568Y-107282414D01*
X89681952Y-107281368D01*
X89680440Y-107280275D01*
X89679032Y-107279135D01*
X89677729Y-107277949D01*
X89676533Y-107276717D01*
X89675445Y-107275438D01*
X89674464Y-107274112D01*
X89673592Y-107272740D01*
X89672831Y-107271322D01*
X89672180Y-107269857D01*
X89671199Y-107266450D01*
X89670660Y-107263364D01*
X89670596Y-107260585D01*
X89670752Y-107259306D01*
X89671039Y-107258099D01*
X89671460Y-107256962D01*
X89672021Y-107255892D01*
X89672724Y-107254889D01*
X89673575Y-107253950D01*
X89674577Y-107253075D01*
X89675734Y-107252260D01*
X89677050Y-107251504D01*
X89678530Y-107250806D01*
X89681995Y-107249576D01*
X89686163Y-107248555D01*
X89691066Y-107247730D01*
X89696736Y-107247086D01*
X89703206Y-107246609D01*
X89710509Y-107246286D01*
X89718677Y-107246102D01*
X89727742Y-107246044D01*
X89738395Y-107245998D01*
X89747781Y-107245827D01*
X89755972Y-107245479D01*
X89763039Y-107244903D01*
X89766174Y-107244513D01*
X89769055Y-107244048D01*
X89771692Y-107243500D01*
X89774093Y-107242863D01*
X89776267Y-107242130D01*
X89778223Y-107241296D01*
X89779971Y-107240354D01*
X89781519Y-107239297D01*
X89782876Y-107238119D01*
X89784051Y-107236814D01*
X89785054Y-107235375D01*
X89785894Y-107233797D01*
X89786578Y-107232071D01*
X89787117Y-107230193D01*
X89787519Y-107228155D01*
X89787794Y-107225952D01*
X89787950Y-107223577D01*
X89787997Y-107221023D01*
X89787797Y-107215355D01*
X89787267Y-107208895D01*
X89786480Y-107201594D01*
X89785555Y-107194833D01*
X89784517Y-107188804D01*
X89783288Y-107183459D01*
X89781791Y-107178749D01*
X89780919Y-107176617D01*
X89779951Y-107174625D01*
X89778877Y-107172767D01*
X89777689Y-107171038D01*
X89776377Y-107169430D01*
X89774930Y-107167939D01*
X89773340Y-107166558D01*
X89771597Y-107165280D01*
X89769691Y-107164100D01*
X89767612Y-107163011D01*
X89765352Y-107162008D01*
X89762900Y-107161085D01*
X89757382Y-107159451D01*
X89750984Y-107158062D01*
X89743627Y-107156868D01*
X89735236Y-107155820D01*
X89725733Y-107154870D01*
X89715042Y-107153969D01*
X89703549Y-107153084D01*
X89693422Y-107152168D01*
X89684573Y-107151154D01*
X89676917Y-107149976D01*
X89673510Y-107149303D01*
X89670368Y-107148565D01*
X89667482Y-107147751D01*
X89664840Y-107146853D01*
X89662432Y-107145864D01*
X89660247Y-107144775D01*
X89658274Y-107143577D01*
X89656503Y-107142261D01*
X89654922Y-107140821D01*
X89653521Y-107139246D01*
X89652290Y-107137528D01*
X89651216Y-107135660D01*
X89650291Y-107133633D01*
X89649502Y-107131438D01*
X89648840Y-107129066D01*
X89648293Y-107126510D01*
X89647850Y-107123762D01*
X89647502Y-107120811D01*
X89647043Y-107114272D01*
X89646831Y-107106827D01*
X89646779Y-107098407D01*
X89647117Y-107075249D01*
X89648120Y-107052228D01*
X89649778Y-107029367D01*
X89652075Y-107006691D01*
X89655001Y-106984225D01*
X89658542Y-106961992D01*
X89662684Y-106940017D01*
X89667417Y-106918325D01*
X89672726Y-106896939D01*
X89678599Y-106875885D01*
X89685023Y-106855187D01*
X89691986Y-106834869D01*
X89699474Y-106814956D01*
X89707475Y-106795472D01*
X89715976Y-106776441D01*
X89724964Y-106757888D01*
X89734426Y-106739837D01*
X89744350Y-106722313D01*
X89754723Y-106705341D01*
X89765532Y-106688943D01*
X89776764Y-106673146D01*
X89788407Y-106657973D01*
X89800447Y-106643449D01*
X89812872Y-106629598D01*
X89825669Y-106616445D01*
X89838825Y-106604014D01*
X89852328Y-106592329D01*
X89866165Y-106581415D01*
X89880322Y-106571297D01*
X89894788Y-106561998D01*
X89909549Y-106553543D01*
X89924592Y-106545957D01*
X89936818Y-106540673D01*
X89949626Y-106536131D01*
X89962927Y-106532329D01*
X89976632Y-106529263D01*
X89990654Y-106526933D01*
X90004903Y-106525335D01*
X90019292Y-106524467D01*
X90033733Y-106524327D01*
X90048136Y-106524912D01*
G37*
G36*
X91376513Y-106232549D02*
G01*
X91385966Y-106233647D01*
X91396180Y-106235303D01*
X91407352Y-106237516D01*
X91419679Y-106240288D01*
X91448592Y-106247506D01*
X91462041Y-106251377D01*
X91475291Y-106256129D01*
X91488332Y-106261743D01*
X91501150Y-106268197D01*
X91526075Y-106283543D01*
X91549969Y-106302003D01*
X91572738Y-106323411D01*
X91594286Y-106347603D01*
X91614517Y-106374413D01*
X91633338Y-106403677D01*
X91650651Y-106435229D01*
X91666362Y-106468904D01*
X91680375Y-106504537D01*
X91692596Y-106541963D01*
X91702928Y-106581017D01*
X91711277Y-106621534D01*
X91717547Y-106663348D01*
X91721642Y-106706294D01*
X91722916Y-106734395D01*
X91723182Y-106762702D01*
X91722465Y-106791161D01*
X91720789Y-106819717D01*
X91718180Y-106848316D01*
X91714662Y-106876904D01*
X91710260Y-106905426D01*
X91704998Y-106933828D01*
X91691995Y-106990054D01*
X91675850Y-107045148D01*
X91656760Y-107098674D01*
X91634925Y-107150199D01*
X91610541Y-107199286D01*
X91597455Y-107222780D01*
X91583806Y-107245501D01*
X91569618Y-107267396D01*
X91554917Y-107288410D01*
X91539727Y-107308488D01*
X91524073Y-107327577D01*
X91507979Y-107345621D01*
X91491471Y-107362567D01*
X91474572Y-107378361D01*
X91457308Y-107392947D01*
X91439703Y-107406271D01*
X91421783Y-107418280D01*
X91403571Y-107428918D01*
X91385092Y-107438131D01*
X91371516Y-107443803D01*
X91356548Y-107448903D01*
X91340437Y-107453416D01*
X91323428Y-107457330D01*
X91305768Y-107460630D01*
X91287703Y-107463301D01*
X91269480Y-107465331D01*
X91251345Y-107466706D01*
X91233546Y-107467410D01*
X91216327Y-107467431D01*
X91199937Y-107466755D01*
X91184621Y-107465367D01*
X91170625Y-107463253D01*
X91158198Y-107460400D01*
X91147583Y-107456793D01*
X91143034Y-107454703D01*
X91139030Y-107452419D01*
X91136204Y-107450410D01*
X91134283Y-107448546D01*
X91133665Y-107447669D01*
X91133278Y-107446828D01*
X91133122Y-107446021D01*
X91133201Y-107445250D01*
X91133514Y-107444514D01*
X91134063Y-107443813D01*
X91135876Y-107442513D01*
X91138653Y-107441347D01*
X91142403Y-107440314D01*
X91147140Y-107439412D01*
X91152874Y-107438637D01*
X91159617Y-107437988D01*
X91167381Y-107437462D01*
X91186019Y-107436770D01*
X91208879Y-107436544D01*
X91302542Y-107436544D01*
X91248567Y-107400032D01*
X91242752Y-107396062D01*
X91236648Y-107391338D01*
X91230303Y-107385926D01*
X91223762Y-107379891D01*
X91217073Y-107373297D01*
X91210281Y-107366211D01*
X91203433Y-107358696D01*
X91196577Y-107350819D01*
X91189757Y-107342644D01*
X91183021Y-107334237D01*
X91176415Y-107325662D01*
X91169986Y-107316985D01*
X91163780Y-107308271D01*
X91157844Y-107299585D01*
X91152224Y-107290992D01*
X91146967Y-107282557D01*
X91131089Y-107255306D01*
X91124353Y-107244274D01*
X91118169Y-107234807D01*
X91112347Y-107226783D01*
X91109513Y-107223272D01*
X91106700Y-107220076D01*
X91103883Y-107217179D01*
X91101038Y-107214566D01*
X91098144Y-107212220D01*
X91095175Y-107210127D01*
X91092108Y-107208271D01*
X91088921Y-107206637D01*
X91085588Y-107205209D01*
X91082087Y-107203972D01*
X91078395Y-107202911D01*
X91074487Y-107202010D01*
X91070340Y-107201254D01*
X91065930Y-107200627D01*
X91056230Y-107199699D01*
X91045197Y-107199104D01*
X91018380Y-107198419D01*
X91006184Y-107198359D01*
X90995153Y-107198162D01*
X90985225Y-107197802D01*
X90980654Y-107197553D01*
X90976336Y-107197254D01*
X90972261Y-107196901D01*
X90968423Y-107196491D01*
X90964814Y-107196022D01*
X90961425Y-107195489D01*
X90958249Y-107194890D01*
X90955278Y-107194222D01*
X90952503Y-107193481D01*
X90949919Y-107192665D01*
X90947515Y-107191769D01*
X90945285Y-107190791D01*
X90943221Y-107189727D01*
X90941314Y-107188575D01*
X90939558Y-107187331D01*
X90937944Y-107185992D01*
X90936464Y-107184554D01*
X90935110Y-107183015D01*
X90933875Y-107181372D01*
X90932751Y-107179621D01*
X90931729Y-107177758D01*
X90930803Y-107175782D01*
X90929964Y-107173688D01*
X90929204Y-107171473D01*
X90928516Y-107169134D01*
X90927892Y-107166669D01*
X90926601Y-107161603D01*
X90925749Y-107157101D01*
X90925405Y-107153128D01*
X90925444Y-107151330D01*
X90925635Y-107149653D01*
X90925986Y-107148092D01*
X90926506Y-107146643D01*
X90927204Y-107145302D01*
X90928087Y-107144066D01*
X90929165Y-107142929D01*
X90930445Y-107141888D01*
X90931936Y-107140940D01*
X90933647Y-107140078D01*
X90937760Y-107138603D01*
X90942852Y-107137431D01*
X90948991Y-107136528D01*
X90956244Y-107135862D01*
X90964678Y-107135400D01*
X90974360Y-107135111D01*
X90997742Y-107134919D01*
X91010127Y-107134875D01*
X91021139Y-107134718D01*
X91030859Y-107134406D01*
X91039364Y-107133902D01*
X91043187Y-107133565D01*
X91046735Y-107133165D01*
X91050020Y-107132697D01*
X91053050Y-107132156D01*
X91055837Y-107131538D01*
X91058389Y-107130836D01*
X91060717Y-107130047D01*
X91062830Y-107129164D01*
X91064738Y-107128185D01*
X91066452Y-107127102D01*
X91067981Y-107125912D01*
X91069335Y-107124610D01*
X91070524Y-107123190D01*
X91071557Y-107121647D01*
X91072445Y-107119978D01*
X91073198Y-107118176D01*
X91073825Y-107116237D01*
X91074337Y-107114156D01*
X91074743Y-107111927D01*
X91075052Y-107109547D01*
X91075276Y-107107010D01*
X91075424Y-107104311D01*
X91075530Y-107098407D01*
X91075297Y-107088185D01*
X91074562Y-107078916D01*
X91073269Y-107070550D01*
X91072396Y-107066689D01*
X91071363Y-107063035D01*
X91070162Y-107059581D01*
X91068786Y-107056320D01*
X91067229Y-107053247D01*
X91065484Y-107050354D01*
X91063543Y-107047635D01*
X91061400Y-107045085D01*
X91059048Y-107042696D01*
X91056480Y-107040463D01*
X91053688Y-107038378D01*
X91050666Y-107036436D01*
X91047407Y-107034630D01*
X91043904Y-107032953D01*
X91040149Y-107031400D01*
X91036137Y-107029964D01*
X91027309Y-107027416D01*
X91017366Y-107025258D01*
X91006250Y-107023440D01*
X90993907Y-107021911D01*
X90980280Y-107020619D01*
X90908842Y-107015857D01*
X90910430Y-106899970D01*
X90911269Y-106875364D01*
X90912609Y-106851504D01*
X90914465Y-106828319D01*
X90916854Y-106805736D01*
X90919791Y-106783684D01*
X90923294Y-106762089D01*
X90927378Y-106740881D01*
X90932059Y-106719986D01*
X90937355Y-106699334D01*
X90943280Y-106678851D01*
X90949852Y-106658465D01*
X90957087Y-106638106D01*
X90965001Y-106617700D01*
X90973610Y-106597175D01*
X90982931Y-106576460D01*
X90992980Y-106555482D01*
X91009270Y-106523247D01*
X91025446Y-106493163D01*
X91041580Y-106465149D01*
X91057745Y-106439123D01*
X91074012Y-106415004D01*
X91090453Y-106392710D01*
X91107141Y-106372160D01*
X91124147Y-106353274D01*
X91141544Y-106335968D01*
X91159404Y-106320162D01*
X91177798Y-106305775D01*
X91196800Y-106292725D01*
X91216480Y-106280931D01*
X91236912Y-106270311D01*
X91258167Y-106260784D01*
X91280317Y-106252269D01*
X91304542Y-106243860D01*
X91315028Y-106240493D01*
X91324693Y-106237684D01*
X91333734Y-106235433D01*
X91342351Y-106233740D01*
X91350739Y-106232605D01*
X91359097Y-106232028D01*
X91367622Y-106232010D01*
X91376513Y-106232549D01*
G37*
G36*
X98545708Y-103164979D02*
G01*
X98551690Y-103165355D01*
X98557643Y-103166038D01*
X98563555Y-103167027D01*
X98569412Y-103168321D01*
X98575201Y-103169920D01*
X98580908Y-103171822D01*
X98586518Y-103174029D01*
X98592019Y-103176538D01*
X98597397Y-103179349D01*
X98602637Y-103182462D01*
X98607728Y-103185877D01*
X98612653Y-103189591D01*
X98617402Y-103193606D01*
X98621958Y-103197920D01*
X98626309Y-103202533D01*
X98630442Y-103207445D01*
X98633956Y-103211979D01*
X98637344Y-103216632D01*
X98640592Y-103221373D01*
X98643687Y-103226172D01*
X98646615Y-103230999D01*
X98649361Y-103235824D01*
X98651912Y-103240616D01*
X98654254Y-103245346D01*
X98656372Y-103249982D01*
X98658253Y-103254496D01*
X98659884Y-103258856D01*
X98661248Y-103263032D01*
X98662334Y-103266994D01*
X98663127Y-103270712D01*
X98663613Y-103274155D01*
X98663778Y-103277294D01*
X98663599Y-103282222D01*
X98663070Y-103287176D01*
X98662202Y-103292142D01*
X98661010Y-103297110D01*
X98659504Y-103302068D01*
X98657699Y-103307003D01*
X98655605Y-103311904D01*
X98653237Y-103316758D01*
X98650605Y-103321555D01*
X98647724Y-103326281D01*
X98644604Y-103330926D01*
X98641259Y-103335477D01*
X98633944Y-103344249D01*
X98625878Y-103352502D01*
X98617160Y-103360141D01*
X98607891Y-103367072D01*
X98598171Y-103373197D01*
X98593174Y-103375928D01*
X98588100Y-103378423D01*
X98582964Y-103380668D01*
X98577778Y-103382653D01*
X98572554Y-103384365D01*
X98567305Y-103385793D01*
X98562043Y-103386924D01*
X98556780Y-103387747D01*
X98551530Y-103388249D01*
X98546304Y-103388419D01*
X98536637Y-103388094D01*
X98527290Y-103387135D01*
X98518274Y-103385571D01*
X98509603Y-103383430D01*
X98501288Y-103380739D01*
X98493343Y-103377526D01*
X98485781Y-103373817D01*
X98478612Y-103369642D01*
X98471851Y-103365027D01*
X98465509Y-103360000D01*
X98459599Y-103354589D01*
X98454133Y-103348822D01*
X98449124Y-103342725D01*
X98444585Y-103336327D01*
X98440528Y-103329655D01*
X98436965Y-103322736D01*
X98433909Y-103315600D01*
X98431373Y-103308272D01*
X98429368Y-103300781D01*
X98427908Y-103293154D01*
X98427005Y-103285419D01*
X98426672Y-103277603D01*
X98426920Y-103269735D01*
X98427763Y-103261841D01*
X98429212Y-103253949D01*
X98431281Y-103246088D01*
X98433982Y-103238284D01*
X98437328Y-103230565D01*
X98441330Y-103222959D01*
X98446002Y-103215494D01*
X98451356Y-103208196D01*
X98457404Y-103201094D01*
X98461969Y-103196490D01*
X98466725Y-103192201D01*
X98471658Y-103188227D01*
X98476755Y-103184568D01*
X98482002Y-103181223D01*
X98487385Y-103178191D01*
X98492891Y-103175472D01*
X98498505Y-103173065D01*
X98504215Y-103170970D01*
X98510007Y-103169185D01*
X98515867Y-103167712D01*
X98521781Y-103166548D01*
X98527736Y-103165693D01*
X98533718Y-103165147D01*
X98539713Y-103164909D01*
X98545708Y-103164979D01*
G37*
G36*
X97830032Y-103088397D02*
G01*
X97837448Y-103088904D01*
X97844817Y-103089902D01*
X97852114Y-103091384D01*
X97859314Y-103093343D01*
X97866393Y-103095772D01*
X97873327Y-103098663D01*
X97880091Y-103102010D01*
X97886661Y-103105804D01*
X97893012Y-103110039D01*
X97899121Y-103114708D01*
X97904962Y-103119803D01*
X97910511Y-103125316D01*
X97915743Y-103131241D01*
X97920636Y-103137571D01*
X97925163Y-103144297D01*
X97929300Y-103151414D01*
X97933024Y-103158913D01*
X97936309Y-103166787D01*
X97939131Y-103175029D01*
X97941466Y-103183632D01*
X97942580Y-103189313D01*
X97943251Y-103195035D01*
X97943493Y-103200784D01*
X97943318Y-103206545D01*
X97942739Y-103212304D01*
X97941770Y-103218046D01*
X97940424Y-103223757D01*
X97938713Y-103229421D01*
X97936652Y-103235025D01*
X97934252Y-103240555D01*
X97931527Y-103245994D01*
X97928491Y-103251330D01*
X97925155Y-103256547D01*
X97921534Y-103261631D01*
X97917640Y-103266567D01*
X97913487Y-103271341D01*
X97909087Y-103275938D01*
X97904454Y-103280344D01*
X97899600Y-103284545D01*
X97894539Y-103288525D01*
X97889284Y-103292270D01*
X97883848Y-103295765D01*
X97878244Y-103298997D01*
X97872485Y-103301950D01*
X97866584Y-103304610D01*
X97860554Y-103306963D01*
X97854409Y-103308994D01*
X97848161Y-103310688D01*
X97841823Y-103312031D01*
X97835409Y-103313008D01*
X97828932Y-103313605D01*
X97822404Y-103313807D01*
X97813188Y-103313472D01*
X97804299Y-103312487D01*
X97795750Y-103310881D01*
X97787550Y-103308682D01*
X97779713Y-103305919D01*
X97772248Y-103302620D01*
X97765167Y-103298816D01*
X97758482Y-103294534D01*
X97752204Y-103289803D01*
X97746345Y-103284652D01*
X97740915Y-103279109D01*
X97735926Y-103273205D01*
X97731389Y-103266966D01*
X97727316Y-103260423D01*
X97723718Y-103253603D01*
X97720606Y-103246537D01*
X97717991Y-103239251D01*
X97715886Y-103231776D01*
X97714301Y-103224140D01*
X97713248Y-103216371D01*
X97712738Y-103208499D01*
X97712782Y-103200552D01*
X97713391Y-103192560D01*
X97714578Y-103184550D01*
X97716353Y-103176551D01*
X97718728Y-103168594D01*
X97721714Y-103160705D01*
X97725322Y-103152914D01*
X97729564Y-103145250D01*
X97734450Y-103137742D01*
X97739994Y-103130418D01*
X97746204Y-103123307D01*
X97752288Y-103117348D01*
X97758618Y-103111968D01*
X97765168Y-103107159D01*
X97771914Y-103102914D01*
X97778833Y-103099227D01*
X97785900Y-103096089D01*
X97793089Y-103093493D01*
X97800378Y-103091433D01*
X97807741Y-103089900D01*
X97815154Y-103088888D01*
X97822592Y-103088390D01*
X97830032Y-103088397D01*
G37*
G36*
X97043230Y-103009078D02*
G01*
X97051132Y-103010091D01*
X97058932Y-103011649D01*
X97066598Y-103013739D01*
X97074096Y-103016349D01*
X97081395Y-103019465D01*
X97088461Y-103023076D01*
X97095261Y-103027169D01*
X97101763Y-103031731D01*
X97107933Y-103036750D01*
X97113739Y-103042213D01*
X97119148Y-103048109D01*
X97124127Y-103054424D01*
X97128644Y-103061146D01*
X97132664Y-103068262D01*
X97136157Y-103075761D01*
X97139088Y-103083628D01*
X97141424Y-103091853D01*
X97143134Y-103100422D01*
X97144184Y-103109323D01*
X97144542Y-103118544D01*
X97144339Y-103125072D01*
X97143742Y-103131549D01*
X97142765Y-103137963D01*
X97141422Y-103144301D01*
X97139728Y-103150549D01*
X97137698Y-103156694D01*
X97135345Y-103162724D01*
X97132685Y-103168625D01*
X97129732Y-103174384D01*
X97126500Y-103179988D01*
X97123005Y-103185424D01*
X97119259Y-103190679D01*
X97115280Y-103195740D01*
X97111079Y-103200594D01*
X97106673Y-103205227D01*
X97102076Y-103209627D01*
X97097302Y-103213780D01*
X97092366Y-103217674D01*
X97087282Y-103221295D01*
X97082065Y-103224631D01*
X97076729Y-103227667D01*
X97071290Y-103230392D01*
X97065761Y-103232792D01*
X97060156Y-103234854D01*
X97054492Y-103236564D01*
X97048781Y-103237910D01*
X97043039Y-103238879D01*
X97037280Y-103239458D01*
X97031519Y-103239633D01*
X97025770Y-103239392D01*
X97020048Y-103238721D01*
X97014367Y-103237607D01*
X97005480Y-103235159D01*
X96996981Y-103232293D01*
X96988875Y-103229026D01*
X96981169Y-103225378D01*
X96973869Y-103221368D01*
X96966980Y-103217013D01*
X96960510Y-103212332D01*
X96954464Y-103207345D01*
X96948847Y-103202069D01*
X96943668Y-103196524D01*
X96938930Y-103190727D01*
X96934641Y-103184698D01*
X96930807Y-103178455D01*
X96927434Y-103172017D01*
X96924527Y-103165402D01*
X96922093Y-103158629D01*
X96920139Y-103151716D01*
X96918669Y-103144682D01*
X96917691Y-103137546D01*
X96917210Y-103130326D01*
X96917232Y-103123042D01*
X96917765Y-103115710D01*
X96918812Y-103108351D01*
X96920382Y-103100982D01*
X96922479Y-103093623D01*
X96925111Y-103086292D01*
X96928282Y-103079007D01*
X96932000Y-103071787D01*
X96936270Y-103064651D01*
X96941098Y-103057618D01*
X96946491Y-103050705D01*
X96952455Y-103043932D01*
X96959011Y-103037437D01*
X96965861Y-103031637D01*
X96972970Y-103026518D01*
X96980307Y-103022069D01*
X96987838Y-103018277D01*
X96995530Y-103015130D01*
X97003350Y-103012614D01*
X97011266Y-103010718D01*
X97019245Y-103009429D01*
X97027254Y-103008734D01*
X97035260Y-103008621D01*
X97043230Y-103009078D01*
G37*
G36*
X96248864Y-102927210D02*
G01*
X96258966Y-102928565D01*
X96268873Y-102930844D01*
X96278529Y-102934001D01*
X96287876Y-102937986D01*
X96296856Y-102942752D01*
X96305412Y-102948252D01*
X96313485Y-102954436D01*
X96321019Y-102961258D01*
X96327956Y-102968669D01*
X96334239Y-102976622D01*
X96339809Y-102985067D01*
X96344610Y-102993958D01*
X96348583Y-103003246D01*
X96351672Y-103012884D01*
X96353818Y-103022823D01*
X96354964Y-103033015D01*
X96355052Y-103043413D01*
X96354026Y-103053969D01*
X96351827Y-103064634D01*
X96348398Y-103075361D01*
X96343681Y-103086101D01*
X96337619Y-103096808D01*
X96330154Y-103107431D01*
X96325423Y-103113145D01*
X96320735Y-103118389D01*
X96316055Y-103123177D01*
X96311352Y-103127524D01*
X96306594Y-103131442D01*
X96301747Y-103134946D01*
X96296779Y-103138051D01*
X96291658Y-103140769D01*
X96286350Y-103143116D01*
X96280824Y-103145104D01*
X96275047Y-103146748D01*
X96268986Y-103148062D01*
X96262609Y-103149060D01*
X96255883Y-103149755D01*
X96248776Y-103150162D01*
X96241255Y-103150295D01*
X96231597Y-103149978D01*
X96222276Y-103149046D01*
X96213305Y-103147524D01*
X96204695Y-103145439D01*
X96196459Y-103142817D01*
X96188608Y-103139684D01*
X96181153Y-103136065D01*
X96174108Y-103131989D01*
X96167484Y-103127479D01*
X96161292Y-103122564D01*
X96155545Y-103117268D01*
X96150255Y-103111618D01*
X96145434Y-103105640D01*
X96141093Y-103099360D01*
X96137244Y-103092805D01*
X96133900Y-103086001D01*
X96131072Y-103078973D01*
X96128772Y-103071748D01*
X96127012Y-103064352D01*
X96125804Y-103056812D01*
X96125160Y-103049153D01*
X96125092Y-103041401D01*
X96125612Y-103033583D01*
X96126731Y-103025725D01*
X96128462Y-103017853D01*
X96130817Y-103009994D01*
X96133807Y-103002172D01*
X96137444Y-102994416D01*
X96141740Y-102986749D01*
X96146708Y-102979200D01*
X96152359Y-102971794D01*
X96158705Y-102964557D01*
X96167964Y-102955429D01*
X96177548Y-102947657D01*
X96187397Y-102941194D01*
X96197456Y-102935991D01*
X96207665Y-102932001D01*
X96217968Y-102929176D01*
X96228307Y-102927468D01*
X96238625Y-102926829D01*
X96248864Y-102927210D01*
G37*
G36*
X94130785Y-100277126D02*
G01*
X94134980Y-100277733D01*
X94139273Y-100278722D01*
X94143649Y-100280076D01*
X94148091Y-100281776D01*
X94152583Y-100283805D01*
X94157109Y-100286145D01*
X94161654Y-100288776D01*
X94170735Y-100294845D01*
X94179697Y-100301867D01*
X94188412Y-100309698D01*
X94196753Y-100318195D01*
X94204592Y-100327212D01*
X94211800Y-100336606D01*
X94218251Y-100346232D01*
X94223815Y-100355947D01*
X94228365Y-100365606D01*
X94230221Y-100370370D01*
X94231774Y-100375065D01*
X94233010Y-100379675D01*
X94233913Y-100384180D01*
X94234467Y-100388564D01*
X94234655Y-100392807D01*
X94234489Y-100397906D01*
X94234001Y-100403075D01*
X94233203Y-100408296D01*
X94232106Y-100413556D01*
X94230723Y-100418839D01*
X94229067Y-100424131D01*
X94227148Y-100429415D01*
X94224981Y-100434677D01*
X94222576Y-100439903D01*
X94219946Y-100445075D01*
X94217104Y-100450181D01*
X94214060Y-100455203D01*
X94207421Y-100464941D01*
X94200126Y-100474167D01*
X94196264Y-100478550D01*
X94192273Y-100482760D01*
X94188168Y-100486781D01*
X94183960Y-100490600D01*
X94179661Y-100494199D01*
X94175284Y-100497565D01*
X94170840Y-100500682D01*
X94166342Y-100503535D01*
X94161803Y-100506109D01*
X94157234Y-100508389D01*
X94152647Y-100510360D01*
X94148055Y-100512006D01*
X94143470Y-100513313D01*
X94138904Y-100514265D01*
X94134370Y-100514847D01*
X94129879Y-100515045D01*
X94121384Y-100514642D01*
X94113172Y-100513459D01*
X94105256Y-100511536D01*
X94097649Y-100508912D01*
X94090364Y-100505624D01*
X94083414Y-100501713D01*
X94076812Y-100497217D01*
X94070571Y-100492175D01*
X94064705Y-100486626D01*
X94059227Y-100480609D01*
X94054149Y-100474163D01*
X94049484Y-100467327D01*
X94045247Y-100460139D01*
X94041449Y-100452640D01*
X94038104Y-100444867D01*
X94035225Y-100436860D01*
X94032825Y-100428658D01*
X94030917Y-100420299D01*
X94029514Y-100411823D01*
X94028630Y-100403269D01*
X94028277Y-100394674D01*
X94028468Y-100386080D01*
X94029217Y-100377523D01*
X94030537Y-100369044D01*
X94032440Y-100360681D01*
X94034940Y-100352474D01*
X94038050Y-100344461D01*
X94041783Y-100336680D01*
X94046151Y-100329172D01*
X94051169Y-100321975D01*
X94056849Y-100315128D01*
X94063205Y-100308669D01*
X94066883Y-100305435D01*
X94070751Y-100302292D01*
X94074778Y-100299255D01*
X94078931Y-100296341D01*
X94083176Y-100293568D01*
X94087482Y-100290950D01*
X94091816Y-100288504D01*
X94096145Y-100286246D01*
X94100437Y-100284193D01*
X94104659Y-100282361D01*
X94108779Y-100280766D01*
X94112764Y-100279425D01*
X94116582Y-100278353D01*
X94120199Y-100277568D01*
X94123584Y-100277084D01*
X94126704Y-100276920D01*
X94130785Y-100277126D01*
G37*
G36*
X94049720Y-99624764D02*
G01*
X94056803Y-99625440D01*
X94063778Y-99626714D01*
X94070617Y-99628573D01*
X94077293Y-99631005D01*
X94083779Y-99634001D01*
X94090047Y-99637548D01*
X94096068Y-99641635D01*
X94101816Y-99646251D01*
X94107263Y-99651384D01*
X94112381Y-99657024D01*
X94117143Y-99663158D01*
X94121520Y-99669775D01*
X94125486Y-99676865D01*
X94129013Y-99684415D01*
X94132073Y-99692415D01*
X94134639Y-99700852D01*
X94136682Y-99709717D01*
X94138176Y-99718997D01*
X94139093Y-99728680D01*
X94139405Y-99738757D01*
X94139307Y-99745217D01*
X94139016Y-99751498D01*
X94138532Y-99757599D01*
X94137857Y-99763518D01*
X94136993Y-99769254D01*
X94135941Y-99774804D01*
X94134702Y-99780166D01*
X94133278Y-99785340D01*
X94131670Y-99790323D01*
X94129880Y-99795114D01*
X94127909Y-99799711D01*
X94125759Y-99804111D01*
X94123431Y-99808314D01*
X94120926Y-99812318D01*
X94118246Y-99816120D01*
X94115393Y-99819720D01*
X94112368Y-99823114D01*
X94109172Y-99826303D01*
X94105807Y-99829283D01*
X94102275Y-99832054D01*
X94098576Y-99834613D01*
X94094712Y-99836958D01*
X94090685Y-99839089D01*
X94086496Y-99841002D01*
X94082146Y-99842697D01*
X94077638Y-99844172D01*
X94072972Y-99845424D01*
X94068150Y-99846453D01*
X94063173Y-99847256D01*
X94058043Y-99847832D01*
X94052761Y-99848179D01*
X94047329Y-99848295D01*
X94037888Y-99848141D01*
X94029169Y-99847659D01*
X94021116Y-99846819D01*
X94017321Y-99846255D01*
X94013670Y-99845591D01*
X94010156Y-99844822D01*
X94006772Y-99843944D01*
X94003511Y-99842954D01*
X94000365Y-99841849D01*
X93997327Y-99840623D01*
X93994391Y-99839274D01*
X93991547Y-99837797D01*
X93988790Y-99836190D01*
X93986113Y-99834448D01*
X93983507Y-99832567D01*
X93980965Y-99830543D01*
X93978481Y-99828373D01*
X93976047Y-99826054D01*
X93973655Y-99823580D01*
X93971299Y-99820949D01*
X93968972Y-99818157D01*
X93964371Y-99812073D01*
X93959797Y-99805299D01*
X93955190Y-99797803D01*
X93950492Y-99789557D01*
X93946066Y-99780597D01*
X93942319Y-99772129D01*
X93939260Y-99764083D01*
X93936899Y-99756393D01*
X93935983Y-99752661D01*
X93935245Y-99748992D01*
X93934686Y-99745378D01*
X93934307Y-99741811D01*
X93934110Y-99738283D01*
X93934095Y-99734784D01*
X93934263Y-99731307D01*
X93934617Y-99727843D01*
X93935157Y-99724384D01*
X93935884Y-99720921D01*
X93936799Y-99717445D01*
X93937904Y-99713949D01*
X93939199Y-99710424D01*
X93940687Y-99706862D01*
X93942367Y-99703253D01*
X93944241Y-99699590D01*
X93948578Y-99692068D01*
X93953704Y-99684227D01*
X93959631Y-99676000D01*
X93966367Y-99667319D01*
X93972590Y-99659950D01*
X93979036Y-99653314D01*
X93985679Y-99647400D01*
X93992489Y-99642195D01*
X93999441Y-99637689D01*
X94006505Y-99633871D01*
X94013655Y-99630729D01*
X94020863Y-99628252D01*
X94028101Y-99626428D01*
X94035341Y-99625246D01*
X94042557Y-99624695D01*
X94049720Y-99624764D01*
G37*
G36*
X93878459Y-99024184D02*
G01*
X93883102Y-99024656D01*
X93887726Y-99025401D01*
X93892324Y-99026419D01*
X93896892Y-99027709D01*
X93901424Y-99029270D01*
X93905914Y-99031101D01*
X93910358Y-99033201D01*
X93914748Y-99035569D01*
X93919081Y-99038205D01*
X93923350Y-99041107D01*
X93927549Y-99044275D01*
X93931674Y-99047708D01*
X93935719Y-99051404D01*
X93939678Y-99055364D01*
X93943546Y-99059586D01*
X93947317Y-99064069D01*
X93951345Y-99069273D01*
X93955094Y-99074467D01*
X93958565Y-99079650D01*
X93961759Y-99084822D01*
X93964677Y-99089980D01*
X93967318Y-99095124D01*
X93969684Y-99100255D01*
X93971774Y-99105369D01*
X93973591Y-99110468D01*
X93975133Y-99115549D01*
X93976402Y-99120612D01*
X93977399Y-99125656D01*
X93978123Y-99130681D01*
X93978576Y-99135685D01*
X93978758Y-99140667D01*
X93978670Y-99145627D01*
X93978312Y-99150564D01*
X93977685Y-99155477D01*
X93976789Y-99160364D01*
X93975625Y-99165226D01*
X93974194Y-99170061D01*
X93972496Y-99174869D01*
X93970532Y-99179648D01*
X93968302Y-99184397D01*
X93965806Y-99189117D01*
X93963047Y-99193805D01*
X93960023Y-99198461D01*
X93956736Y-99203084D01*
X93953187Y-99207674D01*
X93949375Y-99212229D01*
X93945301Y-99216749D01*
X93940967Y-99221232D01*
X93932180Y-99229884D01*
X93927886Y-99233779D01*
X93923653Y-99237389D01*
X93919476Y-99240714D01*
X93915350Y-99243755D01*
X93911270Y-99246513D01*
X93907232Y-99248988D01*
X93903232Y-99251183D01*
X93899264Y-99253096D01*
X93895324Y-99254730D01*
X93891407Y-99256086D01*
X93887509Y-99257163D01*
X93883625Y-99257963D01*
X93879750Y-99258488D01*
X93875880Y-99258737D01*
X93872009Y-99258711D01*
X93868134Y-99258412D01*
X93864250Y-99257841D01*
X93860352Y-99256997D01*
X93856435Y-99255883D01*
X93852495Y-99254499D01*
X93848527Y-99252845D01*
X93844527Y-99250923D01*
X93840489Y-99248734D01*
X93836409Y-99246278D01*
X93832283Y-99243557D01*
X93828106Y-99240570D01*
X93823873Y-99237320D01*
X93819580Y-99233807D01*
X93810792Y-99225995D01*
X93806602Y-99221858D01*
X93802664Y-99217494D01*
X93798978Y-99212918D01*
X93795547Y-99208144D01*
X93792370Y-99203189D01*
X93789448Y-99198065D01*
X93786783Y-99192788D01*
X93784375Y-99187374D01*
X93782225Y-99181836D01*
X93780335Y-99176189D01*
X93778704Y-99170449D01*
X93777334Y-99164631D01*
X93776225Y-99158748D01*
X93775379Y-99152816D01*
X93774796Y-99146850D01*
X93774478Y-99140865D01*
X93774425Y-99134875D01*
X93774637Y-99128895D01*
X93775117Y-99122940D01*
X93775864Y-99117024D01*
X93776880Y-99111164D01*
X93778165Y-99105373D01*
X93779721Y-99099666D01*
X93781547Y-99094058D01*
X93783646Y-99088565D01*
X93786018Y-99083200D01*
X93788664Y-99077979D01*
X93791584Y-99072916D01*
X93794780Y-99068026D01*
X93798252Y-99063324D01*
X93802001Y-99058826D01*
X93806029Y-99054545D01*
X93810233Y-99050522D01*
X93814505Y-99046786D01*
X93818841Y-99043337D01*
X93823235Y-99040174D01*
X93827681Y-99037295D01*
X93832173Y-99034701D01*
X93836707Y-99032389D01*
X93841277Y-99030360D01*
X93845877Y-99028612D01*
X93850502Y-99027145D01*
X93855146Y-99025958D01*
X93859803Y-99025049D01*
X93864469Y-99024418D01*
X93869137Y-99024064D01*
X93873802Y-99023986D01*
X93878459Y-99024184D01*
G37*
G36*
X101062119Y-96821251D02*
G01*
X101095829Y-96822519D01*
X101136890Y-96824591D01*
X101155047Y-96825910D01*
X101171905Y-96827481D01*
X101187674Y-96829349D01*
X101202566Y-96831561D01*
X101216794Y-96834164D01*
X101230568Y-96837204D01*
X101244100Y-96840728D01*
X101257602Y-96844782D01*
X101271285Y-96849413D01*
X101285361Y-96854667D01*
X101300042Y-96860591D01*
X101315539Y-96867230D01*
X101349828Y-96882845D01*
X101371024Y-96893320D01*
X101392145Y-96904363D01*
X101412895Y-96915759D01*
X101432974Y-96927295D01*
X101452086Y-96938756D01*
X101469933Y-96949929D01*
X101486217Y-96960600D01*
X101500641Y-96970554D01*
X101512907Y-96979578D01*
X101522718Y-96987458D01*
X101529774Y-96993981D01*
X101532177Y-96996665D01*
X101533780Y-96998931D01*
X101534546Y-97000749D01*
X101534438Y-97002095D01*
X101534044Y-97002582D01*
X101533417Y-97002940D01*
X101531449Y-97003259D01*
X101528494Y-97003024D01*
X101524515Y-97002210D01*
X101519477Y-97000788D01*
X101513341Y-96998732D01*
X101492820Y-96991456D01*
X101474038Y-96985096D01*
X101456875Y-96979638D01*
X101441209Y-96975068D01*
X101426920Y-96971373D01*
X101413887Y-96968539D01*
X101407803Y-96967439D01*
X101401989Y-96966550D01*
X101396427Y-96965869D01*
X101391104Y-96965395D01*
X101386004Y-96965124D01*
X101381112Y-96965057D01*
X101376414Y-96965191D01*
X101371893Y-96965525D01*
X101367535Y-96966056D01*
X101363324Y-96966783D01*
X101359247Y-96967704D01*
X101355286Y-96968818D01*
X101351428Y-96970122D01*
X101347657Y-96971615D01*
X101343958Y-96973296D01*
X101340317Y-96975161D01*
X101336717Y-96977211D01*
X101333144Y-96979443D01*
X101326017Y-96984445D01*
X101262948Y-97038438D01*
X101156923Y-97134513D01*
X100879334Y-97393226D01*
X100619902Y-97641223D01*
X100536573Y-97723903D01*
X100513433Y-97748386D01*
X100505279Y-97759144D01*
X100505539Y-97761754D01*
X100506300Y-97765086D01*
X100509208Y-97773714D01*
X100513766Y-97784625D01*
X100519740Y-97797418D01*
X100526896Y-97811690D01*
X100534998Y-97827038D01*
X100553103Y-97859356D01*
X100572174Y-97891152D01*
X100581486Y-97905849D01*
X100590334Y-97919209D01*
X100598485Y-97930830D01*
X100605703Y-97940309D01*
X100611754Y-97947244D01*
X100614269Y-97949631D01*
X100616403Y-97951232D01*
X100620225Y-97952362D01*
X100625916Y-97952085D01*
X100633746Y-97950259D01*
X100643986Y-97946742D01*
X100672772Y-97934070D01*
X100714432Y-97912934D01*
X100771123Y-97882198D01*
X100845004Y-97840727D01*
X101052967Y-97721045D01*
X101237845Y-97614146D01*
X101389591Y-97526948D01*
X101511087Y-97457870D01*
X101605218Y-97405330D01*
X101642922Y-97384769D01*
X101674866Y-97367748D01*
X101701411Y-97354072D01*
X101722916Y-97343542D01*
X101739743Y-97335961D01*
X101752251Y-97331130D01*
X101756999Y-97329685D01*
X101760802Y-97328853D01*
X101763705Y-97328611D01*
X101765754Y-97328932D01*
X101768013Y-97330105D01*
X101770320Y-97331819D01*
X101775047Y-97336773D01*
X101779871Y-97343593D01*
X101784730Y-97352075D01*
X101789561Y-97362017D01*
X101794302Y-97373218D01*
X101798888Y-97385474D01*
X101803259Y-97398584D01*
X101807351Y-97412344D01*
X101811100Y-97426554D01*
X101814445Y-97441010D01*
X101817323Y-97455510D01*
X101819670Y-97469853D01*
X101821425Y-97483835D01*
X101822524Y-97497254D01*
X101822904Y-97509908D01*
X101822762Y-97517558D01*
X101822212Y-97524527D01*
X101821073Y-97530951D01*
X101819158Y-97536969D01*
X101816286Y-97542717D01*
X101812272Y-97548333D01*
X101806932Y-97553953D01*
X101800083Y-97559715D01*
X101791542Y-97565756D01*
X101781123Y-97572213D01*
X101768644Y-97579224D01*
X101753922Y-97586925D01*
X101717009Y-97604949D01*
X101668915Y-97627382D01*
X101127579Y-97881382D01*
X101061009Y-97912722D01*
X101002660Y-97940262D01*
X100952044Y-97964296D01*
X100929485Y-97975089D01*
X100908678Y-97985115D01*
X100889561Y-97994411D01*
X100872073Y-98003014D01*
X100856155Y-98010960D01*
X100841745Y-98018285D01*
X100828783Y-98025027D01*
X100817208Y-98031222D01*
X100806958Y-98036906D01*
X100797974Y-98042117D01*
X100790195Y-98046890D01*
X100786738Y-98049124D01*
X100783559Y-98051262D01*
X100780651Y-98053310D01*
X100778007Y-98055271D01*
X100775618Y-98057151D01*
X100773477Y-98058953D01*
X100771576Y-98060682D01*
X100769908Y-98062343D01*
X100768465Y-98063941D01*
X100767240Y-98065480D01*
X100766225Y-98066965D01*
X100765412Y-98068400D01*
X100764795Y-98069789D01*
X100764364Y-98071138D01*
X100764113Y-98072451D01*
X100764034Y-98073732D01*
X100764120Y-98074987D01*
X100764362Y-98076219D01*
X100764754Y-98077434D01*
X100765287Y-98078635D01*
X100765955Y-98079828D01*
X100766748Y-98081016D01*
X100767661Y-98082206D01*
X100768685Y-98083400D01*
X100771037Y-98085823D01*
X100773743Y-98088321D01*
X100776742Y-98090932D01*
X100802709Y-98110308D01*
X100816217Y-98117257D01*
X100831486Y-98122111D01*
X100849572Y-98124668D01*
X100871536Y-98124725D01*
X100898434Y-98122080D01*
X100931324Y-98116530D01*
X101019316Y-98095908D01*
X101143975Y-98061241D01*
X101537154Y-97943295D01*
X101577204Y-97931419D01*
X101614668Y-97920921D01*
X101648747Y-97911985D01*
X101678640Y-97904797D01*
X101691767Y-97901918D01*
X101703547Y-97899545D01*
X101713881Y-97897703D01*
X101722668Y-97896414D01*
X101729809Y-97895701D01*
X101735204Y-97895589D01*
X101737215Y-97895765D01*
X101738752Y-97896100D01*
X101739803Y-97896596D01*
X101740354Y-97897257D01*
X101741305Y-97901551D01*
X101741211Y-97906662D01*
X101740113Y-97912543D01*
X101738053Y-97919144D01*
X101731222Y-97934319D01*
X101721056Y-97951803D01*
X101707895Y-97971212D01*
X101692078Y-97992163D01*
X101673945Y-98014272D01*
X101653835Y-98037156D01*
X101632089Y-98060430D01*
X101609044Y-98083711D01*
X101585042Y-98106615D01*
X101560421Y-98128759D01*
X101535521Y-98149759D01*
X101510681Y-98169231D01*
X101486242Y-98186792D01*
X101462541Y-98202057D01*
X101422532Y-98225087D01*
X101381182Y-98245354D01*
X101338642Y-98262849D01*
X101295061Y-98277563D01*
X101250586Y-98289486D01*
X101205367Y-98298609D01*
X101159553Y-98304924D01*
X101113292Y-98308420D01*
X101066734Y-98309088D01*
X101020026Y-98306919D01*
X100973319Y-98301904D01*
X100926761Y-98294033D01*
X100880500Y-98283297D01*
X100834685Y-98269687D01*
X100789466Y-98253194D01*
X100744991Y-98233807D01*
X100721987Y-98221947D01*
X100697807Y-98207390D01*
X100672724Y-98190414D01*
X100647013Y-98171299D01*
X100620949Y-98150324D01*
X100594806Y-98127767D01*
X100568858Y-98103908D01*
X100543379Y-98079026D01*
X100518645Y-98053400D01*
X100494930Y-98027308D01*
X100472507Y-98001031D01*
X100451652Y-97974846D01*
X100432638Y-97949034D01*
X100415740Y-97923873D01*
X100401233Y-97899642D01*
X100389391Y-97876620D01*
X100372926Y-97839018D01*
X100358652Y-97800165D01*
X100346564Y-97760261D01*
X100336657Y-97719507D01*
X100328926Y-97678101D01*
X100323367Y-97636243D01*
X100319976Y-97594135D01*
X100318748Y-97551976D01*
X100319677Y-97509965D01*
X100322760Y-97468303D01*
X100327991Y-97427190D01*
X100335367Y-97386826D01*
X100344882Y-97347411D01*
X100356531Y-97309144D01*
X100370311Y-97272226D01*
X100386216Y-97236857D01*
X100404055Y-97202698D01*
X100424149Y-97169342D01*
X100446373Y-97136883D01*
X100470602Y-97105417D01*
X100496710Y-97075039D01*
X100524571Y-97045846D01*
X100554060Y-97017931D01*
X100585051Y-96991390D01*
X100617419Y-96966319D01*
X100651038Y-96942813D01*
X100685782Y-96920968D01*
X100721526Y-96900878D01*
X100758145Y-96882639D01*
X100795513Y-96866347D01*
X100833503Y-96852096D01*
X100871992Y-96839982D01*
X100894242Y-96834479D01*
X100918128Y-96829887D01*
X100943652Y-96826225D01*
X100970813Y-96823512D01*
X100999611Y-96821766D01*
X101030047Y-96821006D01*
X101062119Y-96821251D01*
G37*
G36*
X92074296Y-96999638D02*
G01*
X92457922Y-96999638D01*
X92458140Y-97019032D01*
X92459830Y-97065408D01*
X92460796Y-97079293D01*
X92461901Y-97092922D01*
X92463136Y-97106226D01*
X92464493Y-97119134D01*
X92465961Y-97131578D01*
X92467531Y-97143486D01*
X92469195Y-97154790D01*
X92470942Y-97165420D01*
X92472764Y-97175305D01*
X92474650Y-97184377D01*
X92476593Y-97192564D01*
X92478582Y-97199799D01*
X92480608Y-97206010D01*
X92482662Y-97211128D01*
X92484735Y-97215084D01*
X92485775Y-97216604D01*
X92486817Y-97217807D01*
X92489581Y-97219871D01*
X92493676Y-97221891D01*
X92499054Y-97223859D01*
X92505669Y-97225770D01*
X92522424Y-97229388D01*
X92543570Y-97232690D01*
X92568734Y-97235620D01*
X92597545Y-97238122D01*
X92629630Y-97240141D01*
X92664617Y-97241620D01*
X92823367Y-97247970D01*
X92882105Y-97182882D01*
X92942430Y-97117795D01*
X93028155Y-97128908D01*
X93055582Y-97133298D01*
X93066866Y-97135381D01*
X93076722Y-97137539D01*
X93081160Y-97138681D01*
X93085294Y-97139883D01*
X93089144Y-97141160D01*
X93092727Y-97142525D01*
X93096062Y-97143992D01*
X93099165Y-97145576D01*
X93102056Y-97147290D01*
X93104751Y-97149148D01*
X93107271Y-97151164D01*
X93109631Y-97153352D01*
X93111851Y-97155726D01*
X93113948Y-97158301D01*
X93115940Y-97161089D01*
X93117846Y-97164105D01*
X93119683Y-97167363D01*
X93121470Y-97170877D01*
X93124964Y-97178727D01*
X93128471Y-97187769D01*
X93132137Y-97198112D01*
X93136105Y-97209870D01*
X93139803Y-97220821D01*
X93143221Y-97230510D01*
X93146447Y-97239013D01*
X93149574Y-97246407D01*
X93151128Y-97249712D01*
X93152691Y-97252768D01*
X93154274Y-97255586D01*
X93155889Y-97258174D01*
X93157548Y-97260542D01*
X93159260Y-97262700D01*
X93161038Y-97264658D01*
X93162894Y-97266425D01*
X93164837Y-97268010D01*
X93166881Y-97269423D01*
X93169035Y-97270674D01*
X93171312Y-97271773D01*
X93173722Y-97272729D01*
X93176278Y-97273551D01*
X93178990Y-97274249D01*
X93181869Y-97274833D01*
X93184928Y-97275313D01*
X93188177Y-97275697D01*
X93195292Y-97276219D01*
X93203304Y-97276476D01*
X93212305Y-97276545D01*
X93223961Y-97276134D01*
X93234567Y-97274818D01*
X93244186Y-97272474D01*
X93252885Y-97268979D01*
X93256909Y-97266762D01*
X93260728Y-97264210D01*
X93264349Y-97261309D01*
X93267780Y-97258044D01*
X93271030Y-97254398D01*
X93274107Y-97250356D01*
X93279773Y-97241024D01*
X93284844Y-97229925D01*
X93289385Y-97216936D01*
X93293461Y-97201932D01*
X93297137Y-97184792D01*
X93300478Y-97165391D01*
X93303549Y-97143607D01*
X93306415Y-97119316D01*
X93309142Y-97092394D01*
X93310513Y-97076354D01*
X93311626Y-97062074D01*
X93312446Y-97049417D01*
X93312937Y-97038246D01*
X93313049Y-97033175D01*
X93313066Y-97028424D01*
X93312984Y-97023976D01*
X93312798Y-97019813D01*
X93312503Y-97015919D01*
X93312097Y-97012277D01*
X93311573Y-97008869D01*
X93310928Y-97005678D01*
X93310158Y-97002687D01*
X93309257Y-96999878D01*
X93308222Y-96997236D01*
X93307049Y-96994742D01*
X93305733Y-96992379D01*
X93304269Y-96990131D01*
X93302654Y-96987980D01*
X93300882Y-96985908D01*
X93298950Y-96983900D01*
X93296853Y-96981937D01*
X93294587Y-96980002D01*
X93292148Y-96978079D01*
X93289530Y-96976151D01*
X93286730Y-96974199D01*
X93280567Y-96970158D01*
X93276042Y-96967389D01*
X93270267Y-96964459D01*
X93263329Y-96961388D01*
X93255316Y-96958201D01*
X93236421Y-96951572D01*
X93214289Y-96944757D01*
X93189627Y-96937942D01*
X93163142Y-96931313D01*
X93135540Y-96925056D01*
X93107529Y-96919357D01*
X93045323Y-96910121D01*
X92966763Y-96901721D01*
X92878567Y-96894549D01*
X92787450Y-96888996D01*
X92700128Y-96885452D01*
X92623317Y-96884308D01*
X92590952Y-96884758D01*
X92563733Y-96885955D01*
X92542500Y-96887947D01*
X92528092Y-96890783D01*
X92516006Y-96894366D01*
X92505300Y-96898090D01*
X92495900Y-96902136D01*
X92487735Y-96906682D01*
X92484093Y-96909198D01*
X92480733Y-96911907D01*
X92477645Y-96914830D01*
X92474821Y-96917990D01*
X92472252Y-96921409D01*
X92469928Y-96925110D01*
X92467841Y-96929115D01*
X92465981Y-96933446D01*
X92464340Y-96938127D01*
X92462909Y-96943178D01*
X92460639Y-96954484D01*
X92459099Y-96967543D01*
X92458217Y-96982535D01*
X92457922Y-96999638D01*
X92074296Y-96999638D01*
X92076721Y-96997864D01*
X92082041Y-96993510D01*
X92086894Y-96989018D01*
X92091305Y-96984354D01*
X92095300Y-96979484D01*
X92098904Y-96974371D01*
X92102143Y-96968982D01*
X92105042Y-96963281D01*
X92107628Y-96957234D01*
X92109925Y-96950805D01*
X92111959Y-96943960D01*
X92113757Y-96936664D01*
X92115342Y-96928882D01*
X92121647Y-96901372D01*
X92130361Y-96873707D01*
X92141364Y-96846028D01*
X92154534Y-96818476D01*
X92169750Y-96791195D01*
X92186891Y-96764325D01*
X92205837Y-96738008D01*
X92226467Y-96712387D01*
X92248660Y-96687603D01*
X92272294Y-96663797D01*
X92297249Y-96641113D01*
X92323404Y-96619692D01*
X92350638Y-96599675D01*
X92378830Y-96581204D01*
X92407859Y-96564422D01*
X92437605Y-96549470D01*
X92465811Y-96536689D01*
X92478720Y-96531366D01*
X92491208Y-96526699D01*
X92503556Y-96522646D01*
X92516046Y-96519165D01*
X92528960Y-96516214D01*
X92542578Y-96513751D01*
X92557182Y-96511735D01*
X92573054Y-96510123D01*
X92590474Y-96508875D01*
X92609724Y-96507947D01*
X92654841Y-96506886D01*
X92710655Y-96506607D01*
X92767330Y-96506828D01*
X92791318Y-96507183D01*
X92812825Y-96507773D01*
X92832165Y-96508652D01*
X92849651Y-96509872D01*
X92865597Y-96511488D01*
X92880319Y-96513553D01*
X92894128Y-96516120D01*
X92907340Y-96519242D01*
X92920269Y-96522974D01*
X92933227Y-96527369D01*
X92946530Y-96532480D01*
X92960491Y-96538360D01*
X92975423Y-96545064D01*
X92991642Y-96552644D01*
X93012293Y-96562879D01*
X93033618Y-96574994D01*
X93055399Y-96588782D01*
X93077417Y-96604040D01*
X93099453Y-96620563D01*
X93121290Y-96638147D01*
X93142708Y-96656586D01*
X93163489Y-96675676D01*
X93183414Y-96695213D01*
X93202265Y-96714992D01*
X93219823Y-96734808D01*
X93235869Y-96754456D01*
X93250185Y-96773732D01*
X93262553Y-96792432D01*
X93272753Y-96810350D01*
X93276972Y-96818953D01*
X93280567Y-96827283D01*
X93283112Y-96832898D01*
X93285974Y-96838423D01*
X93289134Y-96843841D01*
X93292572Y-96849135D01*
X93296271Y-96854290D01*
X93300212Y-96859290D01*
X93304376Y-96864117D01*
X93308745Y-96868756D01*
X93313300Y-96873190D01*
X93318022Y-96877403D01*
X93322893Y-96881379D01*
X93327894Y-96885102D01*
X93333007Y-96888555D01*
X93338213Y-96891722D01*
X93343494Y-96894586D01*
X93348830Y-96897132D01*
X93398042Y-96917769D01*
X93388517Y-97044769D01*
X93387440Y-97063539D01*
X93386595Y-97080628D01*
X93385992Y-97096140D01*
X93385640Y-97110180D01*
X93385548Y-97122852D01*
X93385727Y-97134262D01*
X93386184Y-97144514D01*
X93386930Y-97153712D01*
X93387973Y-97161961D01*
X93388609Y-97165763D01*
X93389323Y-97169367D01*
X93390117Y-97172786D01*
X93390990Y-97176033D01*
X93391945Y-97179121D01*
X93392982Y-97182064D01*
X93394103Y-97184874D01*
X93395309Y-97187564D01*
X93396601Y-97190149D01*
X93397980Y-97192640D01*
X93399448Y-97195050D01*
X93401005Y-97197394D01*
X93404392Y-97201932D01*
X93408580Y-97206366D01*
X93412218Y-97210837D01*
X93415317Y-97215494D01*
X93417886Y-97220486D01*
X93419934Y-97225962D01*
X93421470Y-97232070D01*
X93422504Y-97238959D01*
X93423045Y-97246779D01*
X93423103Y-97255678D01*
X93422685Y-97265804D01*
X93421803Y-97277307D01*
X93420465Y-97290336D01*
X93416459Y-97321565D01*
X93410742Y-97360682D01*
X93404783Y-97401072D01*
X93399307Y-97436746D01*
X93394166Y-97468048D01*
X93389211Y-97495322D01*
X93386757Y-97507557D01*
X93384294Y-97518913D01*
X93381803Y-97529435D01*
X93379265Y-97539165D01*
X93376662Y-97548146D01*
X93373975Y-97556421D01*
X93371186Y-97564033D01*
X93368276Y-97571026D01*
X93365227Y-97577442D01*
X93362019Y-97583325D01*
X93358635Y-97588716D01*
X93355055Y-97593660D01*
X93351262Y-97598200D01*
X93347236Y-97602378D01*
X93342958Y-97606237D01*
X93338411Y-97609821D01*
X93333576Y-97613172D01*
X93328434Y-97616333D01*
X93322966Y-97619349D01*
X93317154Y-97622260D01*
X93304423Y-97627945D01*
X93290092Y-97633732D01*
X93280205Y-97637553D01*
X93270788Y-97641565D01*
X93261846Y-97645754D01*
X93253384Y-97650107D01*
X93245407Y-97654609D01*
X93237920Y-97659248D01*
X93230927Y-97664010D01*
X93224434Y-97668881D01*
X93218446Y-97673847D01*
X93212967Y-97678894D01*
X93208003Y-97684010D01*
X93203558Y-97689180D01*
X93199638Y-97694391D01*
X93196246Y-97699629D01*
X93193390Y-97704880D01*
X93191072Y-97710131D01*
X93189298Y-97715368D01*
X93188074Y-97720577D01*
X93187404Y-97725745D01*
X93187292Y-97730858D01*
X93187745Y-97735903D01*
X93188766Y-97740865D01*
X93190361Y-97745731D01*
X93192535Y-97750488D01*
X93195293Y-97755121D01*
X93198639Y-97759618D01*
X93202579Y-97763964D01*
X93207118Y-97768146D01*
X93212259Y-97772149D01*
X93218010Y-97775962D01*
X93224373Y-97779569D01*
X93231355Y-97782957D01*
X93269911Y-97802745D01*
X93319535Y-97830532D01*
X93375820Y-97863603D01*
X93434356Y-97899241D01*
X93490734Y-97934731D01*
X93540545Y-97967355D01*
X93579380Y-97994398D01*
X93593303Y-98004978D01*
X93602830Y-98013144D01*
X93612235Y-98024439D01*
X93623603Y-98040699D01*
X93651149Y-98085946D01*
X93683308Y-98144550D01*
X93717923Y-98212177D01*
X93752836Y-98284493D01*
X93785888Y-98357161D01*
X93814922Y-98425848D01*
X93837780Y-98486220D01*
X93874292Y-98592582D01*
X93979067Y-98608457D01*
X94949030Y-98754507D01*
X96346029Y-98960882D01*
X96742110Y-99019024D01*
X96947692Y-99049783D01*
X96955403Y-99050949D01*
X96963613Y-99052644D01*
X96972266Y-99054837D01*
X96981302Y-99057497D01*
X96990664Y-99060594D01*
X97000293Y-99064098D01*
X97010132Y-99067978D01*
X97020122Y-99072206D01*
X97030204Y-99076749D01*
X97040322Y-99081579D01*
X97050416Y-99086664D01*
X97060429Y-99091975D01*
X97070303Y-99097481D01*
X97079979Y-99103153D01*
X97089399Y-99108959D01*
X97098505Y-99114870D01*
X97115102Y-99125917D01*
X97131271Y-99136276D01*
X97146585Y-99145705D01*
X97160615Y-99153962D01*
X97172934Y-99160805D01*
X97178317Y-99163620D01*
X97183113Y-99165992D01*
X97187267Y-99167889D01*
X97190725Y-99169282D01*
X97193434Y-99170139D01*
X97194492Y-99170358D01*
X97195342Y-99170432D01*
X97275634Y-99119607D01*
X97509071Y-98959096D01*
X98505029Y-98260795D01*
X98568677Y-98215799D01*
X98630838Y-98172292D01*
X98720929Y-98109982D01*
X98729678Y-98103614D01*
X98738082Y-98096991D01*
X98746170Y-98090079D01*
X98753969Y-98082846D01*
X98761508Y-98075259D01*
X98768815Y-98067287D01*
X98775917Y-98058896D01*
X98782842Y-98050054D01*
X98789618Y-98040728D01*
X98796273Y-98030886D01*
X98802836Y-98020495D01*
X98809333Y-98009523D01*
X98815793Y-97997937D01*
X98822243Y-97985705D01*
X98828713Y-97972793D01*
X98835228Y-97959170D01*
X98840558Y-97948208D01*
X98846391Y-97936814D01*
X98859339Y-97913082D01*
X98873626Y-97888681D01*
X98888807Y-97864316D01*
X98904434Y-97840696D01*
X98920061Y-97818527D01*
X98927735Y-97808207D01*
X98935241Y-97798516D01*
X98942525Y-97789540D01*
X98949529Y-97781370D01*
X98979202Y-97750640D01*
X99031236Y-97703409D01*
X99230517Y-97536299D01*
X99603628Y-97233756D01*
X100206829Y-96749495D01*
X100277299Y-96693932D01*
X100343155Y-96643132D01*
X100371981Y-96621379D01*
X100396808Y-96603048D01*
X100416685Y-96588884D01*
X100430666Y-96579632D01*
X100447255Y-96569973D01*
X100465895Y-96560108D01*
X100486330Y-96550126D01*
X100508305Y-96540118D01*
X100555850Y-96520389D01*
X100606482Y-96501646D01*
X100658157Y-96484615D01*
X100708826Y-96470020D01*
X100733145Y-96463864D01*
X100756445Y-96458588D01*
X100778470Y-96454285D01*
X100798966Y-96451045D01*
X100824641Y-96448140D01*
X100852637Y-96445963D01*
X100914308Y-96443727D01*
X100981411Y-96444208D01*
X101051379Y-96447274D01*
X101121644Y-96452797D01*
X101189640Y-96460644D01*
X101221985Y-96465399D01*
X101252799Y-96470687D01*
X101281763Y-96476491D01*
X101308554Y-96482795D01*
X101359533Y-96497265D01*
X101409447Y-96514132D01*
X101458244Y-96533319D01*
X101505873Y-96554750D01*
X101552281Y-96578347D01*
X101597419Y-96604033D01*
X101641234Y-96631731D01*
X101683676Y-96661364D01*
X101724691Y-96692855D01*
X101764230Y-96726127D01*
X101802240Y-96761103D01*
X101838671Y-96797706D01*
X101906587Y-96875484D01*
X101967565Y-96958846D01*
X102021196Y-97047175D01*
X102067066Y-97139855D01*
X102086963Y-97187634D01*
X102104765Y-97236270D01*
X102120421Y-97285685D01*
X102133881Y-97335803D01*
X102145091Y-97386546D01*
X102154001Y-97437838D01*
X102160560Y-97489602D01*
X102164716Y-97541760D01*
X102166417Y-97594235D01*
X102165612Y-97646950D01*
X102162250Y-97699829D01*
X102156279Y-97752795D01*
X102146860Y-97811963D01*
X102135251Y-97869250D01*
X102121418Y-97924709D01*
X102105330Y-97978394D01*
X102086954Y-98030357D01*
X102066257Y-98080654D01*
X102043206Y-98129337D01*
X102017770Y-98176459D01*
X101989915Y-98222074D01*
X101959609Y-98266236D01*
X101926820Y-98308998D01*
X101891514Y-98350414D01*
X101853660Y-98390537D01*
X101813224Y-98429420D01*
X101770175Y-98467117D01*
X101724479Y-98503682D01*
X101677598Y-98539915D01*
X101633694Y-98570605D01*
X101575353Y-98603750D01*
X101485163Y-98647351D01*
X101139584Y-98797915D01*
X100457654Y-99086295D01*
X100332613Y-99139253D01*
X100220521Y-99187299D01*
X100133729Y-99224928D01*
X100084591Y-99246632D01*
X100062260Y-99256437D01*
X100039890Y-99265620D01*
X100017441Y-99274188D01*
X99994873Y-99282152D01*
X99972147Y-99289521D01*
X99949223Y-99296304D01*
X99926062Y-99302509D01*
X99902624Y-99308148D01*
X99878870Y-99313228D01*
X99854761Y-99317760D01*
X99830255Y-99321752D01*
X99805316Y-99325213D01*
X99779901Y-99328154D01*
X99753973Y-99330583D01*
X99700417Y-99333944D01*
X99555955Y-99340295D01*
X99160667Y-99551432D01*
X98385966Y-99967357D01*
X97993854Y-100175319D01*
X97993237Y-100176738D01*
X97993160Y-100179747D01*
X97994549Y-100190202D01*
X97997872Y-100206015D01*
X98002982Y-100226516D01*
X98009729Y-100251036D01*
X98017965Y-100278904D01*
X98027539Y-100309451D01*
X98038305Y-100342007D01*
X98063782Y-100419766D01*
X98086748Y-100494084D01*
X98107370Y-100565835D01*
X98125815Y-100635893D01*
X98142251Y-100705132D01*
X98156846Y-100774427D01*
X98169766Y-100844652D01*
X98181180Y-100916682D01*
X98185921Y-100949167D01*
X98190531Y-100979512D01*
X98194881Y-101007067D01*
X98198840Y-101031181D01*
X98202279Y-101051201D01*
X98205066Y-101066478D01*
X98207072Y-101076359D01*
X98207741Y-101079073D01*
X98208166Y-101080195D01*
X98212793Y-101081292D01*
X98224935Y-101083320D01*
X98268492Y-101089719D01*
X98409779Y-101108769D01*
X98442400Y-101112763D01*
X98471391Y-101116462D01*
X98497029Y-101119942D01*
X98519590Y-101123280D01*
X98539351Y-101126553D01*
X98548268Y-101128189D01*
X98556589Y-101129838D01*
X98564349Y-101131509D01*
X98571581Y-101133211D01*
X98578321Y-101134955D01*
X98584603Y-101136749D01*
X98590462Y-101138604D01*
X98595932Y-101140529D01*
X98601048Y-101142534D01*
X98605845Y-101144628D01*
X98610357Y-101146820D01*
X98614618Y-101149122D01*
X98618664Y-101151541D01*
X98622529Y-101154088D01*
X98626248Y-101156772D01*
X98629854Y-101159602D01*
X98633383Y-101162590D01*
X98636869Y-101165743D01*
X98643852Y-101172585D01*
X98651080Y-101180207D01*
X98658752Y-101189304D01*
X98665727Y-101198882D01*
X98672050Y-101209162D01*
X98677769Y-101220366D01*
X98682930Y-101232714D01*
X98687579Y-101246426D01*
X98691763Y-101261725D01*
X98695529Y-101278831D01*
X98698923Y-101297964D01*
X98701991Y-101319346D01*
X98707336Y-101369740D01*
X98711937Y-101431779D01*
X98716167Y-101507232D01*
X98719342Y-101586607D01*
X98949529Y-101597719D01*
X99205280Y-101612493D01*
X99453981Y-101632570D01*
X99691111Y-101657297D01*
X99912149Y-101686024D01*
X100112574Y-101718099D01*
X100203644Y-101735189D01*
X100287865Y-101752872D01*
X100364674Y-101771067D01*
X100433503Y-101789692D01*
X100493789Y-101808666D01*
X100544966Y-101827907D01*
X100611086Y-101858361D01*
X100677150Y-101894216D01*
X100742954Y-101935251D01*
X100808293Y-101981249D01*
X100872961Y-102031991D01*
X100936756Y-102087258D01*
X100999472Y-102146832D01*
X101060904Y-102210494D01*
X101120847Y-102278026D01*
X101179098Y-102349208D01*
X101235451Y-102423823D01*
X101289702Y-102501652D01*
X101341646Y-102582476D01*
X101391079Y-102666076D01*
X101437796Y-102752234D01*
X101481592Y-102840732D01*
X101523803Y-102930556D01*
X101556154Y-103000028D01*
X101569086Y-103028259D01*
X101580097Y-103052756D01*
X101589369Y-103073970D01*
X101597082Y-103092351D01*
X101603419Y-103108350D01*
X101608561Y-103122420D01*
X101612688Y-103135011D01*
X101615983Y-103146574D01*
X101618627Y-103157560D01*
X101620802Y-103168420D01*
X101622687Y-103179607D01*
X101624466Y-103191570D01*
X101627230Y-103210376D01*
X101628795Y-103227719D01*
X101628889Y-103243923D01*
X101627244Y-103259311D01*
X101625685Y-103266800D01*
X101623590Y-103274206D01*
X101620926Y-103281569D01*
X101617657Y-103288931D01*
X101613752Y-103296331D01*
X101609176Y-103303809D01*
X101597876Y-103319165D01*
X101583487Y-103335320D01*
X101565741Y-103352598D01*
X101544367Y-103371323D01*
X101519096Y-103391818D01*
X101489657Y-103414405D01*
X101455782Y-103439409D01*
X101373641Y-103497957D01*
X101145041Y-103659882D01*
X101135517Y-104099619D01*
X101131126Y-104274523D01*
X101124801Y-104430861D01*
X101116095Y-104573283D01*
X101104560Y-104706441D01*
X101089752Y-104834985D01*
X101071223Y-104963566D01*
X101048526Y-105096835D01*
X101021216Y-105239444D01*
X100984078Y-105410730D01*
X100944669Y-105571505D01*
X100902061Y-105724354D01*
X100855323Y-105871865D01*
X100803525Y-106016622D01*
X100745736Y-106161211D01*
X100681027Y-106308219D01*
X100608467Y-106460231D01*
X100548365Y-106576640D01*
X100516574Y-106636453D01*
X100484839Y-106694983D01*
X100454072Y-106750462D01*
X100425184Y-106801122D01*
X100399087Y-106845197D01*
X100376691Y-106880919D01*
X100325759Y-106957301D01*
X100271947Y-107033282D01*
X100215503Y-107108612D01*
X100156674Y-107183040D01*
X100095704Y-107256315D01*
X100032842Y-107328185D01*
X99968334Y-107398399D01*
X99902425Y-107466706D01*
X99835364Y-107532856D01*
X99767395Y-107596596D01*
X99698766Y-107657676D01*
X99629723Y-107715844D01*
X99560512Y-107770850D01*
X99491381Y-107822442D01*
X99422575Y-107870369D01*
X99354342Y-107914381D01*
X99227341Y-107992169D01*
X93806029Y-107988994D01*
X88384717Y-107984232D01*
X88297405Y-107947719D01*
X88251642Y-107926636D01*
X88206949Y-107902734D01*
X88120922Y-107846804D01*
X88039626Y-107780591D01*
X87996963Y-107738169D01*
X91832767Y-107738169D01*
X93845717Y-107738169D01*
X97616029Y-107738169D01*
X99201942Y-107738169D01*
X99357517Y-107622282D01*
X99424365Y-107570861D01*
X99458227Y-107544286D01*
X99491065Y-107518102D01*
X99521894Y-107493033D01*
X99549728Y-107469807D01*
X99573581Y-107449148D01*
X99592466Y-107431781D01*
X99671841Y-107358757D01*
X99400379Y-107357169D01*
X99283844Y-107356788D01*
X99237318Y-107355882D01*
X99198246Y-107354118D01*
X99181417Y-107352825D01*
X99166345Y-107351210D01*
X99152997Y-107349238D01*
X99141335Y-107346872D01*
X99131326Y-107344077D01*
X99122934Y-107340818D01*
X99116123Y-107337058D01*
X99110859Y-107332761D01*
X99107107Y-107327893D01*
X99105787Y-107325233D01*
X99104831Y-107322417D01*
X99103997Y-107316297D01*
X99104568Y-107309498D01*
X99106511Y-107301983D01*
X99109788Y-107293718D01*
X99114367Y-107284667D01*
X99120210Y-107274793D01*
X99127284Y-107264061D01*
X99135553Y-107252435D01*
X99155535Y-107226359D01*
X99179875Y-107196278D01*
X99208291Y-107161907D01*
X99271791Y-107085707D01*
X99598817Y-107088881D01*
X99925841Y-107092057D01*
X100017916Y-106966644D01*
X100054618Y-106913736D01*
X100100193Y-106844903D01*
X100150717Y-106766396D01*
X100202265Y-106684466D01*
X100250910Y-106605364D01*
X100292728Y-106535340D01*
X100323793Y-106480646D01*
X100334066Y-106461001D01*
X100340179Y-106447532D01*
X100340685Y-106444105D01*
X100339686Y-106440952D01*
X100336981Y-106438051D01*
X100332366Y-106435377D01*
X100325640Y-106432908D01*
X100316599Y-106430621D01*
X100290768Y-106426497D01*
X100253254Y-106422820D01*
X100202439Y-106419403D01*
X100136703Y-106416060D01*
X100054429Y-106412606D01*
X99980961Y-106409549D01*
X99918524Y-106406306D01*
X99891262Y-106404603D01*
X99866543Y-106402840D01*
X99844292Y-106401011D01*
X99824440Y-106399113D01*
X99806912Y-106397140D01*
X99791639Y-106395088D01*
X99778546Y-106392953D01*
X99767562Y-106390729D01*
X99758616Y-106388412D01*
X99751635Y-106385997D01*
X99748858Y-106384752D01*
X99746546Y-106383481D01*
X99744689Y-106382182D01*
X99743279Y-106380857D01*
X99741161Y-106377667D01*
X99739580Y-106374017D01*
X99738552Y-106369855D01*
X99738095Y-106365130D01*
X99738223Y-106359792D01*
X99738954Y-106353789D01*
X99740303Y-106347069D01*
X99742287Y-106339582D01*
X99744922Y-106331276D01*
X99748224Y-106322101D01*
X99752211Y-106312004D01*
X99756897Y-106300936D01*
X99768434Y-106275679D01*
X99782967Y-106245919D01*
X99840117Y-106131619D01*
X100105229Y-106144319D01*
X100308032Y-106153051D01*
X100381603Y-106155928D01*
X100422729Y-106157020D01*
X100440213Y-106157184D01*
X100447582Y-106156625D01*
X100454256Y-106155358D01*
X100460399Y-106153169D01*
X100463324Y-106151663D01*
X100466177Y-106149848D01*
X100471756Y-106145183D01*
X100477299Y-106138962D01*
X100482973Y-106130973D01*
X100488942Y-106121006D01*
X100495371Y-106108848D01*
X100502426Y-106094288D01*
X100519073Y-106057115D01*
X100540203Y-106007794D01*
X100567780Y-105937318D01*
X100598892Y-105851178D01*
X100631120Y-105756926D01*
X100662045Y-105662116D01*
X100689250Y-105574301D01*
X100710315Y-105501034D01*
X100722822Y-105449868D01*
X100725111Y-105434934D01*
X100725132Y-105430541D01*
X100724354Y-105428356D01*
X100722277Y-105427391D01*
X100717337Y-105426289D01*
X100699475Y-105423718D01*
X100636050Y-105417443D01*
X100543751Y-105410274D01*
X100432255Y-105402957D01*
X100371368Y-105398654D01*
X100315449Y-105394127D01*
X100265297Y-105389451D01*
X100221712Y-105384701D01*
X100185494Y-105379950D01*
X100170397Y-105377598D01*
X100157443Y-105375274D01*
X100146730Y-105372988D01*
X100138359Y-105370747D01*
X100132429Y-105368563D01*
X100130411Y-105367495D01*
X100129041Y-105366444D01*
X100126270Y-105363643D01*
X100123910Y-105360559D01*
X100121964Y-105357131D01*
X100120434Y-105353297D01*
X100119323Y-105348999D01*
X100118633Y-105344176D01*
X100118366Y-105338766D01*
X100118524Y-105332710D01*
X100119111Y-105325947D01*
X100120127Y-105318416D01*
X100121576Y-105310058D01*
X100123460Y-105300811D01*
X100128542Y-105279411D01*
X100135392Y-105253731D01*
X100140948Y-105234167D01*
X100146802Y-105215086D01*
X100152804Y-105196973D01*
X100158807Y-105180310D01*
X100161762Y-105172674D01*
X100164661Y-105165582D01*
X100167485Y-105159095D01*
X100170217Y-105153273D01*
X100172837Y-105148176D01*
X100175326Y-105143866D01*
X100177667Y-105140401D01*
X100179841Y-105137844D01*
X100183073Y-105135036D01*
X100187540Y-105132567D01*
X100193435Y-105130443D01*
X100200950Y-105128667D01*
X100210280Y-105127244D01*
X100221616Y-105126180D01*
X100251081Y-105125144D01*
X100290889Y-105125597D01*
X100342585Y-105127575D01*
X100407713Y-105131115D01*
X100487816Y-105136256D01*
X100547466Y-105139521D01*
X100603059Y-105142135D01*
X100653518Y-105144042D01*
X100697763Y-105145186D01*
X100734716Y-105145512D01*
X100763298Y-105144963D01*
X100774112Y-105144344D01*
X100782428Y-105143484D01*
X100788113Y-105142379D01*
X100789925Y-105141731D01*
X100791030Y-105141019D01*
X100795063Y-105132525D01*
X100799931Y-105115408D01*
X100811642Y-105059064D01*
X100825101Y-104979503D01*
X100839249Y-104884241D01*
X100853025Y-104780793D01*
X100865369Y-104676675D01*
X100875220Y-104579404D01*
X100881517Y-104496494D01*
X100883169Y-104468146D01*
X100884540Y-104443093D01*
X100885608Y-104421132D01*
X100886353Y-104402062D01*
X100886598Y-104393548D01*
X100886755Y-104385681D01*
X100886820Y-104378435D01*
X100886791Y-104371785D01*
X100886665Y-104365706D01*
X100886441Y-104360173D01*
X100886114Y-104355160D01*
X100885684Y-104350642D01*
X100885146Y-104346594D01*
X100884499Y-104342991D01*
X100883740Y-104339806D01*
X100882865Y-104337015D01*
X100882384Y-104335760D01*
X100881874Y-104334593D01*
X100881333Y-104333513D01*
X100880762Y-104332514D01*
X100880160Y-104331596D01*
X100879528Y-104330754D01*
X100878864Y-104329985D01*
X100878168Y-104329286D01*
X100877441Y-104328653D01*
X100876681Y-104328085D01*
X100875888Y-104327577D01*
X100875063Y-104327127D01*
X100874204Y-104326730D01*
X100873311Y-104326385D01*
X100871424Y-104325835D01*
X100869399Y-104325451D01*
X100867233Y-104325208D01*
X100864923Y-104325081D01*
X100862467Y-104325044D01*
X100823632Y-104323596D01*
X100760445Y-104319711D01*
X100595171Y-104307384D01*
X100434958Y-104293568D01*
X100378096Y-104287822D01*
X100348117Y-104283770D01*
X100341675Y-104282310D01*
X100336018Y-104280799D01*
X100331116Y-104279075D01*
X100326934Y-104276973D01*
X100323440Y-104274332D01*
X100321941Y-104272758D01*
X100320602Y-104270989D01*
X100319419Y-104269003D01*
X100318387Y-104266780D01*
X100316763Y-104261544D01*
X100315698Y-104255117D01*
X100315157Y-104247337D01*
X100315110Y-104238041D01*
X100315523Y-104227065D01*
X100316364Y-104214248D01*
X100317601Y-104199427D01*
X100321129Y-104163119D01*
X100323123Y-104140212D01*
X100325470Y-104118273D01*
X100328078Y-104097821D01*
X100330853Y-104079379D01*
X100333702Y-104063466D01*
X100335126Y-104056622D01*
X100336533Y-104050605D01*
X100337912Y-104045482D01*
X100339252Y-104041316D01*
X100340541Y-104038174D01*
X100341767Y-104036119D01*
X100345611Y-104033402D01*
X100353993Y-104031196D01*
X100383315Y-104028281D01*
X100427632Y-104027301D01*
X100484841Y-104028182D01*
X100552840Y-104030848D01*
X100629527Y-104035226D01*
X100712799Y-104041241D01*
X100800555Y-104048819D01*
X100898978Y-104058343D01*
X100891041Y-103878957D01*
X100889714Y-103841815D01*
X100888164Y-103805957D01*
X100886465Y-103772219D01*
X100884692Y-103741440D01*
X100882918Y-103714455D01*
X100881219Y-103692103D01*
X100879669Y-103675220D01*
X100878342Y-103664644D01*
X100874026Y-103652989D01*
X100868268Y-103647940D01*
X100857803Y-103643139D01*
X100815834Y-103633474D01*
X100734276Y-103622377D01*
X100397031Y-103589412D01*
X99735341Y-103531294D01*
X99469832Y-103506688D01*
X99374136Y-103497362D01*
X99321004Y-103491607D01*
X99255917Y-103482082D01*
X99246392Y-103844032D01*
X99241995Y-103987003D01*
X99236817Y-104112096D01*
X99230374Y-104224353D01*
X99222183Y-104328815D01*
X99211758Y-104430523D01*
X99198618Y-104534520D01*
X99182278Y-104645846D01*
X99162254Y-104769544D01*
X99142236Y-104882805D01*
X99119754Y-104996749D01*
X99067823Y-105225405D01*
X99007296Y-105452944D01*
X98939012Y-105676800D01*
X98863807Y-105894406D01*
X98823872Y-106000062D01*
X98782519Y-106103193D01*
X98739856Y-106203478D01*
X98695985Y-106300595D01*
X98651012Y-106394224D01*
X98605041Y-106484044D01*
X98563629Y-106560612D01*
X98522581Y-106633954D01*
X98481669Y-106704381D01*
X98440661Y-106772200D01*
X98399327Y-106837722D01*
X98357438Y-106901256D01*
X98314763Y-106963111D01*
X98271071Y-107023596D01*
X98226133Y-107083020D01*
X98179719Y-107141694D01*
X98131597Y-107199926D01*
X98081539Y-107258025D01*
X98029313Y-107316301D01*
X97974689Y-107375063D01*
X97917438Y-107434620D01*
X97857329Y-107495282D01*
X97616029Y-107738169D01*
X93845717Y-107738169D01*
X93971129Y-107666732D01*
X94010333Y-107643619D01*
X94050799Y-107618599D01*
X94092004Y-107592071D01*
X94133426Y-107564437D01*
X94174541Y-107536096D01*
X94214826Y-107507448D01*
X94253758Y-107478894D01*
X94290812Y-107450832D01*
X94325467Y-107423663D01*
X94357199Y-107397787D01*
X94385484Y-107373604D01*
X94409800Y-107351514D01*
X94429624Y-107331916D01*
X94444431Y-107315212D01*
X94449790Y-107308070D01*
X94453699Y-107301801D01*
X94456092Y-107296455D01*
X94456905Y-107292082D01*
X94455478Y-107290595D01*
X94451293Y-107289118D01*
X94435225Y-107286228D01*
X94409856Y-107283487D01*
X94376339Y-107280969D01*
X94335827Y-107278749D01*
X94289473Y-107276901D01*
X94238431Y-107275500D01*
X94183855Y-107274619D01*
X94076087Y-107272216D01*
X94032918Y-107270639D01*
X93996505Y-107268492D01*
X93980740Y-107267130D01*
X93966556Y-107265536D01*
X93953915Y-107263680D01*
X93942781Y-107261532D01*
X93933118Y-107259061D01*
X93924889Y-107256238D01*
X93918059Y-107253034D01*
X93912590Y-107249418D01*
X93908447Y-107245359D01*
X93906861Y-107243155D01*
X93905593Y-107240829D01*
X93904639Y-107238378D01*
X93903992Y-107235798D01*
X93903608Y-107230234D01*
X93904403Y-107224109D01*
X93906343Y-107217393D01*
X93909390Y-107210055D01*
X93913508Y-107202065D01*
X93918661Y-107193395D01*
X93924812Y-107184013D01*
X93939965Y-107162995D01*
X93958676Y-107138773D01*
X93980654Y-107111107D01*
X94063205Y-107006332D01*
X94387054Y-107007919D01*
X94452306Y-107008294D01*
X94513782Y-107008241D01*
X94570085Y-107007779D01*
X94619822Y-107006927D01*
X94661596Y-107005702D01*
X94694012Y-107004124D01*
X94706275Y-107003208D01*
X94715676Y-107002211D01*
X94722039Y-107001135D01*
X94725191Y-106999982D01*
X94739911Y-106986091D01*
X94761313Y-106958803D01*
X94788306Y-106920050D01*
X94819797Y-106871766D01*
X94891898Y-106754332D01*
X94968873Y-106621958D01*
X95041979Y-106490106D01*
X95102471Y-106374234D01*
X95125255Y-106327122D01*
X95141607Y-106289802D01*
X95150433Y-106264207D01*
X95151683Y-106256410D01*
X95150642Y-106252269D01*
X95148565Y-106251322D01*
X95143628Y-106250272D01*
X95125787Y-106247903D01*
X95062535Y-106242347D01*
X94970708Y-106236195D01*
X94860129Y-106230044D01*
X94749848Y-106224215D01*
X94658914Y-106219130D01*
X94574379Y-106214169D01*
X94574217Y-106214137D01*
X94574027Y-106214041D01*
X94573573Y-106213667D01*
X94573026Y-106213060D01*
X94572395Y-106212235D01*
X94571690Y-106211204D01*
X94570919Y-106209983D01*
X94569220Y-106207025D01*
X94567372Y-106203472D01*
X94565450Y-106199435D01*
X94563527Y-106195026D01*
X94561679Y-106190356D01*
X94561044Y-106187149D01*
X94560914Y-106182927D01*
X94561271Y-106177757D01*
X94562101Y-106171703D01*
X94563387Y-106164831D01*
X94565112Y-106157205D01*
X94569815Y-106139953D01*
X94576082Y-106120469D01*
X94583781Y-106099274D01*
X94592782Y-106076888D01*
X94602955Y-106053832D01*
X94652167Y-105942707D01*
X94964904Y-105953819D01*
X95277642Y-105964931D01*
X95328442Y-105823645D01*
X95349644Y-105758864D01*
X95377803Y-105664076D01*
X95442345Y-105431731D01*
X95472402Y-105317800D01*
X95496766Y-105221114D01*
X95512275Y-105153487D01*
X95515721Y-105134262D01*
X95515767Y-105126732D01*
X95492897Y-105124202D01*
X95432820Y-105119588D01*
X95344763Y-105113783D01*
X95237954Y-105107681D01*
X95169723Y-105102984D01*
X95111202Y-105098380D01*
X95085456Y-105096095D01*
X95061983Y-105093813D01*
X95040734Y-105091526D01*
X95021657Y-105089227D01*
X95004701Y-105086910D01*
X94989814Y-105084567D01*
X94976946Y-105082191D01*
X94966045Y-105079777D01*
X94957061Y-105077315D01*
X94949941Y-105074800D01*
X94947064Y-105073521D01*
X94944635Y-105072225D01*
X94942646Y-105070912D01*
X94941092Y-105069582D01*
X94938005Y-105065975D01*
X94935294Y-105062231D01*
X94932965Y-105058249D01*
X94931021Y-105053930D01*
X94929469Y-105049174D01*
X94928311Y-105043881D01*
X94927554Y-105037951D01*
X94927201Y-105031284D01*
X94927258Y-105023779D01*
X94927729Y-105015337D01*
X94928618Y-105005858D01*
X94929930Y-104995242D01*
X94933843Y-104970199D01*
X94939504Y-104939407D01*
X94943796Y-104917759D01*
X94948236Y-104897189D01*
X94952676Y-104878183D01*
X94956967Y-104861223D01*
X94960961Y-104846792D01*
X94962799Y-104840677D01*
X94964508Y-104835376D01*
X94966067Y-104830949D01*
X94967460Y-104827457D01*
X94968666Y-104824961D01*
X94969667Y-104823520D01*
X94972023Y-104822440D01*
X94977205Y-104821576D01*
X94995439Y-104820468D01*
X95023162Y-104820143D01*
X95059162Y-104820543D01*
X95151163Y-104823296D01*
X95261767Y-104828282D01*
X95318864Y-104831478D01*
X95372669Y-104833912D01*
X95421971Y-104835565D01*
X95465562Y-104836418D01*
X95502233Y-104836452D01*
X95530774Y-104835649D01*
X95541618Y-104834928D01*
X95549976Y-104833990D01*
X95555697Y-104832834D01*
X95557521Y-104832173D01*
X95558629Y-104831457D01*
X95562278Y-104824288D01*
X95566607Y-104809229D01*
X95576910Y-104758407D01*
X95588739Y-104684926D01*
X95601293Y-104594721D01*
X95613773Y-104493725D01*
X95625379Y-104387874D01*
X95635310Y-104283102D01*
X95642767Y-104185343D01*
X95646897Y-104123236D01*
X95648446Y-104097899D01*
X95649613Y-104076030D01*
X95650045Y-104066315D01*
X95650371Y-104057369D01*
X95650588Y-104049162D01*
X95650692Y-104041660D01*
X95650680Y-104034831D01*
X95650548Y-104028643D01*
X95650293Y-104023064D01*
X95649911Y-104018062D01*
X95649398Y-104013603D01*
X95648753Y-104009656D01*
X95647969Y-104006189D01*
X95647525Y-104004625D01*
X95647046Y-104003170D01*
X95646530Y-104001817D01*
X95645978Y-104000565D01*
X95645389Y-103999408D01*
X95644762Y-103998343D01*
X95644098Y-103997366D01*
X95643395Y-103996472D01*
X95642654Y-103995658D01*
X95641874Y-103994919D01*
X95641054Y-103994252D01*
X95640194Y-103993652D01*
X95639294Y-103993116D01*
X95638353Y-103992639D01*
X95636347Y-103991847D01*
X95634172Y-103991245D01*
X95631825Y-103990799D01*
X95629302Y-103990478D01*
X95626601Y-103990250D01*
X95623717Y-103990082D01*
X95590801Y-103988445D01*
X95524697Y-103984129D01*
X95331618Y-103971031D01*
X95260105Y-103965410D01*
X95229400Y-103962802D01*
X95201839Y-103960291D01*
X95177254Y-103957844D01*
X95155479Y-103955432D01*
X95136345Y-103953025D01*
X95119686Y-103950592D01*
X95105333Y-103948104D01*
X95093120Y-103945529D01*
X95087763Y-103944200D01*
X95082879Y-103942838D01*
X95078445Y-103941440D01*
X95074442Y-103940001D01*
X95070848Y-103938518D01*
X95067642Y-103936987D01*
X95064804Y-103935404D01*
X95062312Y-103933766D01*
X95060146Y-103932069D01*
X95058285Y-103930308D01*
X95056707Y-103928480D01*
X95055392Y-103926582D01*
X95053438Y-103922974D01*
X95051742Y-103918700D01*
X95050302Y-103913766D01*
X95049116Y-103908177D01*
X95048181Y-103901936D01*
X95047494Y-103895049D01*
X95047055Y-103887520D01*
X95046859Y-103879354D01*
X95047191Y-103861128D01*
X95048471Y-103840410D01*
X95050682Y-103817237D01*
X95053805Y-103791644D01*
X95068092Y-103682107D01*
X95147467Y-103682107D01*
X95195885Y-103683223D01*
X95268117Y-103686274D01*
X95354635Y-103690813D01*
X95445917Y-103696394D01*
X95663404Y-103709094D01*
X95663404Y-103169344D01*
X95663404Y-103118544D01*
X95620541Y-103118544D01*
X95369915Y-103104257D01*
X94958520Y-103078857D01*
X95838030Y-103078857D01*
X95838030Y-103169344D01*
X95838103Y-103178750D01*
X95838318Y-103187886D01*
X95838668Y-103196705D01*
X95839146Y-103205162D01*
X95839745Y-103213210D01*
X95840457Y-103220802D01*
X95841277Y-103227891D01*
X95842197Y-103234432D01*
X95843210Y-103240377D01*
X95844308Y-103245681D01*
X95845486Y-103250296D01*
X95846736Y-103254176D01*
X95847386Y-103255826D01*
X95848051Y-103257275D01*
X95848731Y-103258517D01*
X95849424Y-103259546D01*
X95850131Y-103260357D01*
X95850849Y-103260943D01*
X95851578Y-103261299D01*
X95852317Y-103261419D01*
X95930501Y-103268563D01*
X96101554Y-103285232D01*
X96616500Y-103334444D01*
X97211217Y-103388419D01*
X98163716Y-103475732D01*
X98814592Y-103536057D01*
X98878091Y-103539232D01*
X98876504Y-103340794D01*
X98875865Y-103296566D01*
X98874520Y-103254263D01*
X98872430Y-103213728D01*
X98869559Y-103174801D01*
X98865869Y-103137326D01*
X98861324Y-103101144D01*
X98855885Y-103066096D01*
X98849517Y-103032026D01*
X98842181Y-102998773D01*
X98833840Y-102966182D01*
X98824458Y-102934092D01*
X98813997Y-102902347D01*
X98802419Y-102870787D01*
X98789688Y-102839256D01*
X98775767Y-102807594D01*
X98760617Y-102775644D01*
X98739607Y-102734562D01*
X98717032Y-102694638D01*
X98692852Y-102655840D01*
X98667029Y-102618135D01*
X98639521Y-102581490D01*
X98610291Y-102545872D01*
X98579298Y-102511250D01*
X98546503Y-102477591D01*
X98511866Y-102444862D01*
X98475347Y-102413031D01*
X98436908Y-102382065D01*
X98396509Y-102351931D01*
X98354109Y-102322597D01*
X98309671Y-102294030D01*
X98263153Y-102266199D01*
X98214517Y-102239069D01*
X98123077Y-102190961D01*
X98033666Y-102152749D01*
X97983192Y-102136308D01*
X97925390Y-102121086D01*
X97777359Y-102092622D01*
X97568680Y-102064010D01*
X97278462Y-102031901D01*
X96369842Y-101943795D01*
X96231457Y-101930921D01*
X96112865Y-101919386D01*
X96026719Y-101910531D01*
X95985667Y-101905695D01*
X95978112Y-101904695D01*
X95971513Y-101904098D01*
X95965858Y-101903933D01*
X95963381Y-101904022D01*
X95961135Y-101904231D01*
X95959120Y-101904563D01*
X95957333Y-101905022D01*
X95955774Y-101905612D01*
X95954441Y-101906336D01*
X95953332Y-101907199D01*
X95952446Y-101908204D01*
X95951782Y-101909354D01*
X95951337Y-101910655D01*
X95951111Y-101912109D01*
X95951103Y-101913720D01*
X95951310Y-101915493D01*
X95951731Y-101917430D01*
X95952365Y-101919535D01*
X95953210Y-101921814D01*
X95954266Y-101924268D01*
X95955529Y-101926902D01*
X95958676Y-101932725D01*
X95962639Y-101939314D01*
X95967406Y-101946697D01*
X95972967Y-101954907D01*
X95991395Y-101983144D01*
X96010779Y-102016202D01*
X96030846Y-102053395D01*
X96051325Y-102094036D01*
X96092429Y-102182921D01*
X96131915Y-102277368D01*
X96167606Y-102371889D01*
X96183348Y-102417463D01*
X96197325Y-102460997D01*
X96209265Y-102501806D01*
X96218896Y-102539203D01*
X96225946Y-102572503D01*
X96230142Y-102601019D01*
X96238080Y-102681982D01*
X96038055Y-102880420D01*
X95838030Y-103078857D01*
X94958520Y-103078857D01*
X94829967Y-103070920D01*
X94246362Y-103033811D01*
X93890167Y-103012182D01*
X93694905Y-103002657D01*
X93694905Y-103207445D01*
X93692992Y-103332724D01*
X93687637Y-103480420D01*
X93679417Y-103642292D01*
X93668909Y-103810099D01*
X93656690Y-103975598D01*
X93643336Y-104130550D01*
X93629423Y-104266712D01*
X93615530Y-104375844D01*
X93585455Y-104563833D01*
X93550625Y-104749108D01*
X93511084Y-104931560D01*
X93466875Y-105111080D01*
X93418044Y-105287558D01*
X93364633Y-105460885D01*
X93306688Y-105630952D01*
X93244253Y-105797649D01*
X93177371Y-105960867D01*
X93106088Y-106120497D01*
X93030446Y-106276430D01*
X92950491Y-106428556D01*
X92866266Y-106576766D01*
X92777816Y-106720951D01*
X92685185Y-106861001D01*
X92588417Y-106996807D01*
X92560459Y-107033209D01*
X92528164Y-107072973D01*
X92452860Y-107160245D01*
X92367100Y-107253954D01*
X92275481Y-107349430D01*
X92182597Y-107442004D01*
X92093043Y-107527007D01*
X92050950Y-107565210D01*
X92011414Y-107599769D01*
X91975007Y-107630100D01*
X91942305Y-107655620D01*
X91832767Y-107738169D01*
X87996963Y-107738169D01*
X87963360Y-107704757D01*
X87892424Y-107619966D01*
X87827117Y-107526880D01*
X87767741Y-107426161D01*
X87714594Y-107318474D01*
X87667977Y-107204480D01*
X87628190Y-107084841D01*
X87595532Y-106960222D01*
X87570305Y-106831285D01*
X87552807Y-106698692D01*
X87548251Y-106633443D01*
X87801187Y-106633443D01*
X87802808Y-106704902D01*
X87804518Y-106734987D01*
X87806867Y-106760269D01*
X87816765Y-106831471D01*
X87829722Y-106900884D01*
X87845631Y-106968320D01*
X87864389Y-107033592D01*
X87885891Y-107096510D01*
X87910033Y-107156887D01*
X87936709Y-107214533D01*
X87950965Y-107242274D01*
X87965816Y-107269261D01*
X87981247Y-107295472D01*
X87997247Y-107320883D01*
X88013803Y-107345469D01*
X88030900Y-107369209D01*
X88048526Y-107392077D01*
X88066669Y-107414051D01*
X88085314Y-107435108D01*
X88104449Y-107455222D01*
X88124061Y-107474372D01*
X88144136Y-107492533D01*
X88164662Y-107509682D01*
X88185625Y-107525795D01*
X88207013Y-107540849D01*
X88228812Y-107554820D01*
X88251010Y-107567685D01*
X88273592Y-107579420D01*
X88297823Y-107591152D01*
X88309217Y-107596051D01*
X88320399Y-107600354D01*
X88331571Y-107604100D01*
X88342937Y-107607324D01*
X88354698Y-107610065D01*
X88367056Y-107612360D01*
X88380215Y-107614245D01*
X88394375Y-107615758D01*
X88409741Y-107616936D01*
X88426513Y-107617817D01*
X88465087Y-107618834D01*
X88511717Y-107619106D01*
X88562229Y-107618871D01*
X88583437Y-107618479D01*
X88602378Y-107617817D01*
X88619375Y-107616820D01*
X88634751Y-107615423D01*
X88648830Y-107613561D01*
X88661934Y-107611169D01*
X88674387Y-107608181D01*
X88686513Y-107604533D01*
X88698633Y-107600160D01*
X88711072Y-107594996D01*
X88724153Y-107588976D01*
X88738199Y-107582035D01*
X88770480Y-107565131D01*
X88807084Y-107543454D01*
X88843567Y-107518445D01*
X88879771Y-107490307D01*
X88915537Y-107459240D01*
X88950709Y-107425448D01*
X88985127Y-107389133D01*
X89018633Y-107350497D01*
X89051070Y-107309743D01*
X89082279Y-107267072D01*
X89112102Y-107222688D01*
X89140381Y-107176792D01*
X89166958Y-107129586D01*
X89177132Y-107109700D01*
X89538355Y-107109700D01*
X89538835Y-107148336D01*
X89540782Y-107186607D01*
X89544187Y-107224414D01*
X89549039Y-107261658D01*
X89555326Y-107298241D01*
X89563038Y-107334064D01*
X89572164Y-107369028D01*
X89582693Y-107403036D01*
X89594616Y-107435988D01*
X89607920Y-107467787D01*
X89622595Y-107498332D01*
X89638631Y-107527527D01*
X89656016Y-107555272D01*
X89674740Y-107581468D01*
X89694792Y-107606019D01*
X89716162Y-107628823D01*
X89738838Y-107649784D01*
X89762810Y-107668803D01*
X89788067Y-107685781D01*
X89803091Y-107694433D01*
X89819479Y-107701935D01*
X89837072Y-107708294D01*
X89855709Y-107713513D01*
X89875230Y-107717598D01*
X89895474Y-107720552D01*
X89916281Y-107722380D01*
X89937490Y-107723088D01*
X89958941Y-107722680D01*
X89980474Y-107721160D01*
X90001927Y-107718533D01*
X90023141Y-107714804D01*
X90043955Y-107709977D01*
X90064208Y-107704057D01*
X90083741Y-107697049D01*
X90102392Y-107688958D01*
X90140556Y-107667512D01*
X90177538Y-107640926D01*
X90213162Y-107609563D01*
X90247251Y-107573789D01*
X90279629Y-107533968D01*
X90310119Y-107490466D01*
X90338543Y-107443649D01*
X90364726Y-107393880D01*
X90388491Y-107341525D01*
X90409660Y-107286950D01*
X90428057Y-107230519D01*
X90443506Y-107172597D01*
X90455829Y-107113550D01*
X90464850Y-107053742D01*
X90469800Y-106999982D01*
X90770730Y-106999982D01*
X90771647Y-107047735D01*
X90773824Y-107093433D01*
X90777294Y-107137178D01*
X90782090Y-107179071D01*
X90788244Y-107219216D01*
X90795788Y-107257715D01*
X90804756Y-107294669D01*
X90815180Y-107330181D01*
X90827091Y-107364355D01*
X90840524Y-107397291D01*
X90855510Y-107429092D01*
X90872081Y-107459861D01*
X90890272Y-107489699D01*
X90910113Y-107518710D01*
X90931638Y-107546995D01*
X90954880Y-107574657D01*
X90971207Y-107592690D01*
X90987492Y-107609309D01*
X91003805Y-107624551D01*
X91020215Y-107638454D01*
X91036793Y-107651055D01*
X91053609Y-107662391D01*
X91070731Y-107672498D01*
X91088230Y-107681416D01*
X91106175Y-107689180D01*
X91124637Y-107695827D01*
X91143685Y-107701396D01*
X91163388Y-107705923D01*
X91183817Y-107709445D01*
X91205041Y-107712000D01*
X91227131Y-107713625D01*
X91250155Y-107714357D01*
X91276303Y-107713700D01*
X91301804Y-107711712D01*
X91326720Y-107708360D01*
X91351110Y-107703616D01*
X91375035Y-107697449D01*
X91398555Y-107689828D01*
X91421731Y-107680723D01*
X91444623Y-107670105D01*
X91467292Y-107657943D01*
X91489799Y-107644206D01*
X91512203Y-107628865D01*
X91534565Y-107611889D01*
X91556946Y-107593247D01*
X91579406Y-107572911D01*
X91602005Y-107550849D01*
X91624805Y-107527031D01*
X91646515Y-107502271D01*
X91668110Y-107475171D01*
X91689479Y-107445959D01*
X91710505Y-107414864D01*
X91731075Y-107382114D01*
X91751076Y-107347935D01*
X91770393Y-107312557D01*
X91788912Y-107276206D01*
X91806520Y-107239112D01*
X91823103Y-107201501D01*
X91838546Y-107163601D01*
X91852735Y-107125642D01*
X91865557Y-107087850D01*
X91876898Y-107050453D01*
X91886643Y-107013679D01*
X91894680Y-106977756D01*
X91900951Y-106941841D01*
X91906084Y-106904527D01*
X91910090Y-106866086D01*
X91912985Y-106826795D01*
X91914783Y-106786927D01*
X91915497Y-106746757D01*
X91915141Y-106706558D01*
X91913730Y-106666606D01*
X91911276Y-106627176D01*
X91907795Y-106588540D01*
X91903300Y-106550974D01*
X91897805Y-106514752D01*
X91891324Y-106480149D01*
X91883871Y-106447439D01*
X91875460Y-106416896D01*
X91866105Y-106388794D01*
X91855549Y-106361071D01*
X91844168Y-106333917D01*
X91832029Y-106307419D01*
X91819199Y-106281663D01*
X91805746Y-106256734D01*
X91791737Y-106232720D01*
X91777240Y-106209705D01*
X91762322Y-106187777D01*
X91747050Y-106167021D01*
X91731493Y-106147522D01*
X91715717Y-106129368D01*
X91699789Y-106112644D01*
X91683778Y-106097436D01*
X91667751Y-106083830D01*
X91651775Y-106071913D01*
X91643827Y-106066614D01*
X91635917Y-106061770D01*
X91617398Y-106051490D01*
X91598474Y-106042372D01*
X91579178Y-106034406D01*
X91559541Y-106027582D01*
X91539595Y-106021891D01*
X91519374Y-106017323D01*
X91498910Y-106013868D01*
X91478234Y-106011515D01*
X91457379Y-106010255D01*
X91436377Y-106010078D01*
X91415261Y-106010975D01*
X91394062Y-106012935D01*
X91372814Y-106015948D01*
X91351547Y-106020005D01*
X91330296Y-106025095D01*
X91309091Y-106031210D01*
X91287965Y-106038338D01*
X91266950Y-106046470D01*
X91246079Y-106055596D01*
X91225384Y-106065707D01*
X91204897Y-106076792D01*
X91184650Y-106088841D01*
X91164677Y-106101845D01*
X91145008Y-106115794D01*
X91125676Y-106130677D01*
X91106713Y-106146486D01*
X91088153Y-106163209D01*
X91070026Y-106180838D01*
X91052366Y-106199362D01*
X91035204Y-106218771D01*
X91018573Y-106239056D01*
X91002505Y-106260207D01*
X90973741Y-106301181D01*
X90946967Y-106342586D01*
X90922165Y-106384479D01*
X90899317Y-106426919D01*
X90878404Y-106469963D01*
X90859406Y-106513670D01*
X90842307Y-106558098D01*
X90827086Y-106603305D01*
X90813725Y-106649349D01*
X90802207Y-106696288D01*
X90792511Y-106744181D01*
X90784620Y-106793085D01*
X90778515Y-106843060D01*
X90774177Y-106894162D01*
X90771588Y-106946449D01*
X90770730Y-106999982D01*
X90469800Y-106999982D01*
X90470393Y-106993539D01*
X90472279Y-106933306D01*
X90471924Y-106908495D01*
X90470868Y-106883791D01*
X90469128Y-106859227D01*
X90466720Y-106834838D01*
X90463660Y-106810655D01*
X90459963Y-106786713D01*
X90455646Y-106763044D01*
X90450724Y-106739681D01*
X90445214Y-106716658D01*
X90439132Y-106694007D01*
X90432494Y-106671762D01*
X90425315Y-106649956D01*
X90417612Y-106628622D01*
X90409400Y-106607794D01*
X90400696Y-106587503D01*
X90391515Y-106567785D01*
X90381875Y-106548670D01*
X90371789Y-106530194D01*
X90361275Y-106512388D01*
X90350349Y-106495287D01*
X90339026Y-106478922D01*
X90327323Y-106463328D01*
X90315255Y-106448538D01*
X90302839Y-106434584D01*
X90290090Y-106421499D01*
X90277024Y-106409318D01*
X90263658Y-106398072D01*
X90250008Y-106387796D01*
X90236089Y-106378522D01*
X90221917Y-106370283D01*
X90207509Y-106363113D01*
X90192880Y-106357044D01*
X90174760Y-106350537D01*
X90156719Y-106345004D01*
X90138760Y-106340443D01*
X90120887Y-106336850D01*
X90103103Y-106334224D01*
X90085413Y-106332561D01*
X90067819Y-106331859D01*
X90050327Y-106332115D01*
X90032939Y-106333328D01*
X90015660Y-106335493D01*
X89998492Y-106338609D01*
X89981441Y-106342673D01*
X89964510Y-106347682D01*
X89947702Y-106353634D01*
X89931021Y-106360526D01*
X89914472Y-106368355D01*
X89898057Y-106377119D01*
X89881781Y-106386816D01*
X89865648Y-106397442D01*
X89849660Y-106408994D01*
X89833823Y-106421472D01*
X89818139Y-106434871D01*
X89802613Y-106449189D01*
X89787248Y-106464424D01*
X89772049Y-106480572D01*
X89757018Y-106497632D01*
X89742160Y-106515601D01*
X89727478Y-106534475D01*
X89698660Y-106574932D01*
X89670592Y-106618982D01*
X89651010Y-106653405D01*
X89633036Y-106688744D01*
X89616659Y-106724899D01*
X89601868Y-106761773D01*
X89588652Y-106799266D01*
X89577001Y-106837281D01*
X89566904Y-106875718D01*
X89558351Y-106914480D01*
X89551330Y-106953467D01*
X89545830Y-106992581D01*
X89541842Y-107031723D01*
X89539354Y-107070796D01*
X89538355Y-107109700D01*
X89177132Y-107109700D01*
X89191674Y-107081274D01*
X89214372Y-107032057D01*
X89234893Y-106982138D01*
X89253080Y-106931719D01*
X89282261Y-106835136D01*
X89305557Y-106737399D01*
X89323035Y-106638993D01*
X89334761Y-106540401D01*
X89340805Y-106442106D01*
X89341232Y-106344592D01*
X89336111Y-106248344D01*
X89325509Y-106153844D01*
X89309494Y-106061577D01*
X89288132Y-105972026D01*
X89261491Y-105885675D01*
X89229639Y-105803007D01*
X89192643Y-105724506D01*
X89159587Y-105666482D01*
X90026192Y-105666482D01*
X90034130Y-105752207D01*
X90035984Y-105769186D01*
X90037949Y-105785346D01*
X90039990Y-105800316D01*
X90042067Y-105813723D01*
X90044144Y-105825195D01*
X90045172Y-105830089D01*
X90046185Y-105834360D01*
X90047179Y-105837961D01*
X90048150Y-105840846D01*
X90049094Y-105842969D01*
X90049553Y-105843729D01*
X90050004Y-105844282D01*
X90052013Y-105844624D01*
X90056178Y-105843897D01*
X90070518Y-105839420D01*
X90092114Y-105831222D01*
X90120053Y-105819675D01*
X90153425Y-105805152D01*
X90191317Y-105788025D01*
X90232818Y-105768665D01*
X90277017Y-105747444D01*
X90494504Y-105641082D01*
X90453229Y-105606157D01*
X90448957Y-105602405D01*
X90444501Y-105598319D01*
X90435197Y-105589290D01*
X90425631Y-105579368D01*
X90416122Y-105568850D01*
X90411487Y-105563462D01*
X90406984Y-105558036D01*
X90402654Y-105552610D01*
X90398535Y-105547221D01*
X90394668Y-105541907D01*
X90391091Y-105536704D01*
X90387844Y-105531650D01*
X90384967Y-105526782D01*
X90381956Y-105522377D01*
X90378887Y-105518107D01*
X90375776Y-105513994D01*
X90372639Y-105510064D01*
X90369493Y-105506337D01*
X90366354Y-105502839D01*
X90363239Y-105499592D01*
X90360162Y-105496619D01*
X90357142Y-105493944D01*
X90354194Y-105491590D01*
X90351334Y-105489580D01*
X90349942Y-105488711D01*
X90348579Y-105487937D01*
X90347245Y-105487261D01*
X90345944Y-105486686D01*
X90344677Y-105486213D01*
X90343447Y-105485848D01*
X90342255Y-105485591D01*
X90341103Y-105485447D01*
X90339994Y-105485418D01*
X90338929Y-105485507D01*
X90336395Y-105485982D01*
X90332421Y-105487376D01*
X90320500Y-105492725D01*
X90303852Y-105501162D01*
X90283168Y-105512296D01*
X90259136Y-105525737D01*
X90232443Y-105541094D01*
X90203778Y-105557977D01*
X90173829Y-105575994D01*
X90026192Y-105666482D01*
X89159587Y-105666482D01*
X89150571Y-105650657D01*
X89103490Y-105581942D01*
X89078092Y-105549661D01*
X89051467Y-105518845D01*
X89033236Y-105499122D01*
X89015748Y-105480719D01*
X88999452Y-105464066D01*
X88984792Y-105449589D01*
X88978216Y-105443301D01*
X88972216Y-105437717D01*
X88966849Y-105432892D01*
X88962170Y-105428877D01*
X88958236Y-105425728D01*
X88955101Y-105423498D01*
X88953851Y-105422744D01*
X88952822Y-105422239D01*
X88952021Y-105421991D01*
X88951455Y-105422006D01*
X88949845Y-105422299D01*
X88947430Y-105423160D01*
X88940392Y-105426471D01*
X88930749Y-105431718D01*
X88918911Y-105438675D01*
X88905287Y-105447121D01*
X88890286Y-105456833D01*
X88874318Y-105467586D01*
X88857792Y-105479157D01*
X88773655Y-105536307D01*
X88833980Y-105579169D01*
X88863994Y-105602368D01*
X88892710Y-105627560D01*
X88920112Y-105654663D01*
X88946187Y-105683597D01*
X88994292Y-105746629D01*
X89036907Y-105816004D01*
X89073913Y-105891073D01*
X89105191Y-105971182D01*
X89130623Y-106055683D01*
X89150091Y-106143922D01*
X89163475Y-106235250D01*
X89170657Y-106329015D01*
X89171518Y-106424565D01*
X89165941Y-106521251D01*
X89153805Y-106618420D01*
X89134994Y-106715422D01*
X89109387Y-106811605D01*
X89076867Y-106906319D01*
X89060643Y-106945588D01*
X89042996Y-106984128D01*
X89024029Y-107021809D01*
X89003842Y-107058496D01*
X88982540Y-107094058D01*
X88960223Y-107128361D01*
X88936995Y-107161274D01*
X88912958Y-107192664D01*
X88888213Y-107222398D01*
X88862865Y-107250344D01*
X88837013Y-107276370D01*
X88810762Y-107300341D01*
X88784214Y-107322127D01*
X88757469Y-107341595D01*
X88730632Y-107358611D01*
X88703805Y-107373044D01*
X88680934Y-107382884D01*
X88656573Y-107391558D01*
X88631017Y-107399055D01*
X88604561Y-107405365D01*
X88577500Y-107410474D01*
X88550130Y-107414372D01*
X88522746Y-107417046D01*
X88495644Y-107418486D01*
X88469118Y-107418680D01*
X88443464Y-107417615D01*
X88418977Y-107415281D01*
X88395954Y-107411665D01*
X88374688Y-107406756D01*
X88355476Y-107400543D01*
X88346732Y-107396944D01*
X88338612Y-107393014D01*
X88331153Y-107388752D01*
X88324392Y-107384157D01*
X88320343Y-107381345D01*
X88317152Y-107378855D01*
X88314859Y-107376671D01*
X88313503Y-107374781D01*
X88313189Y-107373941D01*
X88313123Y-107373169D01*
X88313312Y-107372464D01*
X88313760Y-107371823D01*
X88314472Y-107371244D01*
X88315453Y-107370727D01*
X88318241Y-107369869D01*
X88322163Y-107369234D01*
X88327260Y-107368809D01*
X88333571Y-107368579D01*
X88341135Y-107368530D01*
X88360182Y-107368920D01*
X88384717Y-107369869D01*
X88403460Y-107370840D01*
X88422445Y-107371382D01*
X88441169Y-107371516D01*
X88459131Y-107371258D01*
X88475828Y-107370629D01*
X88490757Y-107369646D01*
X88503417Y-107368328D01*
X88508739Y-107367550D01*
X88513305Y-107366694D01*
X88526805Y-107362939D01*
X88532022Y-107361249D01*
X88536175Y-107359575D01*
X88537841Y-107358719D01*
X88539229Y-107357836D01*
X88540335Y-107356917D01*
X88541154Y-107355951D01*
X88541682Y-107354927D01*
X88541916Y-107353837D01*
X88541851Y-107352669D01*
X88541483Y-107351414D01*
X88540808Y-107350061D01*
X88539822Y-107348601D01*
X88538520Y-107347022D01*
X88536900Y-107345315D01*
X88532686Y-107341476D01*
X88527146Y-107337003D01*
X88520248Y-107331812D01*
X88511959Y-107325825D01*
X88491080Y-107311131D01*
X88477216Y-107300431D01*
X88463066Y-107288636D01*
X88448716Y-107275841D01*
X88434252Y-107262142D01*
X88419760Y-107247633D01*
X88405327Y-107232410D01*
X88391037Y-107216569D01*
X88376978Y-107200205D01*
X88363235Y-107183412D01*
X88349894Y-107166287D01*
X88337042Y-107148925D01*
X88324764Y-107131421D01*
X88313147Y-107113871D01*
X88302276Y-107096370D01*
X88292237Y-107079012D01*
X88283117Y-107061894D01*
X88277667Y-107051464D01*
X88272553Y-107042147D01*
X88267668Y-107033867D01*
X88262901Y-107026547D01*
X88258144Y-107020112D01*
X88253286Y-107014483D01*
X88250786Y-107011947D01*
X88248220Y-107009584D01*
X88245574Y-107007385D01*
X88242834Y-107005339D01*
X88239988Y-107003438D01*
X88237021Y-107001671D01*
X88233920Y-107000029D01*
X88230671Y-106998503D01*
X88223674Y-106995757D01*
X88215921Y-106993359D01*
X88207304Y-106991230D01*
X88197712Y-106989294D01*
X88187036Y-106987474D01*
X88175167Y-106985694D01*
X88159413Y-106983917D01*
X88142301Y-106982196D01*
X88106309Y-106979146D01*
X88088583Y-106977927D01*
X88071806Y-106976988D01*
X88056554Y-106976383D01*
X88043405Y-106976169D01*
X88032834Y-106975942D01*
X88023130Y-106975245D01*
X88018595Y-106974714D01*
X88014268Y-106974056D01*
X88010145Y-106973268D01*
X88006222Y-106972349D01*
X88002498Y-106971296D01*
X87998967Y-106970104D01*
X87995628Y-106968771D01*
X87992478Y-106967295D01*
X87989512Y-106965673D01*
X87986727Y-106963901D01*
X87984121Y-106961977D01*
X87981691Y-106959897D01*
X87979432Y-106957660D01*
X87977342Y-106955261D01*
X87975418Y-106952699D01*
X87973657Y-106949969D01*
X87972055Y-106947070D01*
X87970609Y-106943998D01*
X87969316Y-106940751D01*
X87968172Y-106937325D01*
X87967175Y-106933718D01*
X87966321Y-106929926D01*
X87965608Y-106925948D01*
X87965031Y-106921779D01*
X87964588Y-106917417D01*
X87964276Y-106912859D01*
X87964030Y-106903145D01*
X87964355Y-106900017D01*
X87965369Y-106897176D01*
X87967127Y-106894609D01*
X87969685Y-106892305D01*
X87973099Y-106890252D01*
X87977424Y-106888438D01*
X87982717Y-106886852D01*
X87989033Y-106885483D01*
X87996428Y-106884319D01*
X88004957Y-106883347D01*
X88014678Y-106882557D01*
X88025645Y-106881936D01*
X88051541Y-106881158D01*
X88083092Y-106880919D01*
X88106895Y-106880705D01*
X88129154Y-106880101D01*
X88149367Y-106879161D01*
X88158549Y-106878583D01*
X88167031Y-106877943D01*
X88174750Y-106877246D01*
X88181644Y-106876501D01*
X88187650Y-106875714D01*
X88192704Y-106874892D01*
X88196744Y-106874042D01*
X88199708Y-106873171D01*
X88200767Y-106872730D01*
X88201533Y-106872287D01*
X88201998Y-106871841D01*
X88202155Y-106871395D01*
X88201795Y-106868247D01*
X88200766Y-106862588D01*
X88196995Y-106845002D01*
X88191439Y-106821165D01*
X88184692Y-106793607D01*
X88167230Y-106723756D01*
X88076742Y-106714231D01*
X87956092Y-106701532D01*
X87950765Y-106700802D01*
X87946071Y-106699640D01*
X87941972Y-106697799D01*
X87938431Y-106695033D01*
X87935411Y-106691094D01*
X87932875Y-106685737D01*
X87930785Y-106678715D01*
X87929105Y-106669782D01*
X87927796Y-106658690D01*
X87926823Y-106645194D01*
X87925731Y-106610002D01*
X87925533Y-106562235D01*
X87925930Y-106499919D01*
X87926891Y-106456232D01*
X87928559Y-106412656D01*
X87930897Y-106370048D01*
X87933867Y-106329263D01*
X87937433Y-106291157D01*
X87941557Y-106256585D01*
X87946201Y-106226404D01*
X87948707Y-106213227D01*
X87951330Y-106201469D01*
X87953914Y-106191208D01*
X87956306Y-106181294D01*
X87958498Y-106171775D01*
X87960483Y-106162700D01*
X87962253Y-106154118D01*
X87963803Y-106146077D01*
X87965125Y-106138628D01*
X87966212Y-106131818D01*
X87967058Y-106125696D01*
X87967654Y-106120311D01*
X87967995Y-106115713D01*
X87968073Y-106111949D01*
X87967881Y-106109069D01*
X87967682Y-106107976D01*
X87967412Y-106107121D01*
X87967072Y-106106512D01*
X87966660Y-106106155D01*
X87966175Y-106106055D01*
X87965617Y-106106219D01*
X87956828Y-106110623D01*
X87947249Y-106116005D01*
X87937056Y-106122223D01*
X87926426Y-106129139D01*
X87915535Y-106136613D01*
X87904560Y-106144505D01*
X87893679Y-106152677D01*
X87883067Y-106160988D01*
X87872902Y-106169299D01*
X87863360Y-106177470D01*
X87854618Y-106185363D01*
X87846852Y-106192837D01*
X87840240Y-106199753D01*
X87834958Y-106205971D01*
X87832872Y-106208775D01*
X87831183Y-106211352D01*
X87829916Y-106213685D01*
X87829092Y-106215756D01*
X87825023Y-106231272D01*
X87821170Y-106252892D01*
X87814234Y-106311329D01*
X87808526Y-106384835D01*
X87804287Y-106467177D01*
X87801760Y-106552124D01*
X87801187Y-106633443D01*
X87548251Y-106633443D01*
X87543339Y-106563106D01*
X87542201Y-106425190D01*
X87549692Y-106285607D01*
X87556272Y-106219588D01*
X87564153Y-106155943D01*
X87573412Y-106094480D01*
X87584121Y-106035005D01*
X87596356Y-105977325D01*
X87610191Y-105921248D01*
X87625700Y-105866579D01*
X87642958Y-105813127D01*
X87662039Y-105760698D01*
X87683017Y-105709099D01*
X87705968Y-105658138D01*
X87730965Y-105607620D01*
X87758083Y-105557354D01*
X87787396Y-105507145D01*
X87818978Y-105456802D01*
X87852905Y-105406131D01*
X87948155Y-105266432D01*
X87948155Y-105221150D01*
X89233657Y-105221150D01*
X89233754Y-105222741D01*
X89234091Y-105224385D01*
X89234676Y-105226090D01*
X89235513Y-105227866D01*
X89236609Y-105229721D01*
X89237971Y-105231664D01*
X89239603Y-105233705D01*
X89243707Y-105238114D01*
X89248968Y-105243021D01*
X89255436Y-105248498D01*
X89263160Y-105254617D01*
X89272188Y-105261449D01*
X89294355Y-105277544D01*
X89302117Y-105283633D01*
X89310468Y-105290536D01*
X89328610Y-105306467D01*
X89348128Y-105324704D01*
X89368372Y-105344616D01*
X89388690Y-105365570D01*
X89408431Y-105386933D01*
X89426945Y-105408073D01*
X89443579Y-105428356D01*
X89459448Y-105447565D01*
X89474685Y-105465638D01*
X89488954Y-105482186D01*
X89501920Y-105496817D01*
X89513250Y-105509142D01*
X89518196Y-105514318D01*
X89522607Y-105518770D01*
X89526442Y-105522450D01*
X89529658Y-105525309D01*
X89532214Y-105527298D01*
X89533231Y-105527952D01*
X89534067Y-105528369D01*
X89547331Y-105521973D01*
X89579757Y-105502498D01*
X89693611Y-105429746D01*
X89858661Y-105320977D01*
X90057942Y-105187057D01*
X90424654Y-104937621D01*
X90591342Y-104825107D01*
X90595249Y-104822425D01*
X90598635Y-104819650D01*
X90601500Y-104816651D01*
X90603844Y-104813300D01*
X90605667Y-104809464D01*
X90606969Y-104805015D01*
X90607750Y-104799821D01*
X90608011Y-104793753D01*
X90607750Y-104786681D01*
X90606969Y-104778474D01*
X90605667Y-104769001D01*
X90603844Y-104758134D01*
X90598635Y-104731692D01*
X90591342Y-104698107D01*
X90586452Y-104672536D01*
X90581395Y-104642966D01*
X90571300Y-104576068D01*
X90562097Y-104505895D01*
X90554829Y-104440931D01*
X90543717Y-104293294D01*
X89908717Y-104739381D01*
X89246730Y-105204520D01*
X89242608Y-105207694D01*
X89239205Y-105210718D01*
X89236569Y-105213662D01*
X89235554Y-105215127D01*
X89234749Y-105216599D01*
X89234161Y-105218088D01*
X89233794Y-105219602D01*
X89233657Y-105221150D01*
X87948155Y-105221150D01*
X87948155Y-105093395D01*
X87949575Y-105025194D01*
X87953562Y-104951412D01*
X87959707Y-104875398D01*
X87967602Y-104800500D01*
X87976835Y-104730068D01*
X87986999Y-104667448D01*
X87992302Y-104640115D01*
X87997683Y-104615991D01*
X88003093Y-104595495D01*
X88008480Y-104579045D01*
X88025664Y-104550960D01*
X88061196Y-104505951D01*
X88180475Y-104372024D01*
X88352663Y-104190993D01*
X88406767Y-104136131D01*
X90885029Y-104136131D01*
X90887020Y-104190197D01*
X90892620Y-104257005D01*
X90901270Y-104332780D01*
X90912414Y-104413746D01*
X90925492Y-104496125D01*
X90939947Y-104576142D01*
X90955221Y-104650020D01*
X90970755Y-104713982D01*
X90986365Y-104767605D01*
X91003962Y-104821197D01*
X91023447Y-104874580D01*
X91044722Y-104927575D01*
X91067691Y-104980002D01*
X91092254Y-105031683D01*
X91118316Y-105082439D01*
X91145777Y-105132090D01*
X91174540Y-105180457D01*
X91204508Y-105227361D01*
X91235583Y-105272624D01*
X91267667Y-105316066D01*
X91300663Y-105357508D01*
X91334472Y-105396771D01*
X91368998Y-105433676D01*
X91404142Y-105468045D01*
X91456423Y-105513600D01*
X91510740Y-105554402D01*
X91566900Y-105590423D01*
X91624705Y-105621635D01*
X91683962Y-105648010D01*
X91744475Y-105669520D01*
X91806048Y-105686138D01*
X91868486Y-105697835D01*
X91931594Y-105704583D01*
X91995176Y-105706355D01*
X92059037Y-105703123D01*
X92122982Y-105694858D01*
X92186815Y-105681533D01*
X92250342Y-105663121D01*
X92313366Y-105639592D01*
X92375692Y-105610919D01*
X92452135Y-105568243D01*
X92526542Y-105518429D01*
X92598697Y-105461814D01*
X92668387Y-105398740D01*
X92735399Y-105329545D01*
X92799517Y-105254569D01*
X92860529Y-105174152D01*
X92918220Y-105088632D01*
X92972377Y-104998350D01*
X93022784Y-104903645D01*
X93069230Y-104804856D01*
X93111498Y-104702324D01*
X93149377Y-104596387D01*
X93182650Y-104487385D01*
X93211106Y-104375658D01*
X93234529Y-104261545D01*
X93250326Y-104162489D01*
X93262602Y-104063671D01*
X93271371Y-103965253D01*
X93276648Y-103867398D01*
X93278445Y-103770268D01*
X93276778Y-103674027D01*
X93271660Y-103578836D01*
X93263105Y-103484860D01*
X93251126Y-103392260D01*
X93235739Y-103301200D01*
X93216956Y-103211842D01*
X93194793Y-103124349D01*
X93169262Y-103038883D01*
X93140377Y-102955608D01*
X93108154Y-102874687D01*
X93072605Y-102796281D01*
X93055480Y-102761735D01*
X93038895Y-102728863D01*
X93023240Y-102698446D01*
X93008906Y-102671266D01*
X92996284Y-102648105D01*
X92985763Y-102629743D01*
X92981414Y-102622607D01*
X92977736Y-102616963D01*
X92974779Y-102612910D01*
X92972592Y-102610545D01*
X92971453Y-102609745D01*
X92970119Y-102609130D01*
X92966872Y-102608458D01*
X92962857Y-102608525D01*
X92958081Y-102609329D01*
X92952553Y-102610868D01*
X92946277Y-102613140D01*
X92939263Y-102616141D01*
X92931516Y-102619871D01*
X92923043Y-102624326D01*
X92913851Y-102629504D01*
X92903949Y-102635404D01*
X92893341Y-102642022D01*
X92870040Y-102657404D01*
X92844005Y-102675632D01*
X92821903Y-102692161D01*
X92801142Y-102708151D01*
X92782166Y-102723210D01*
X92765423Y-102736949D01*
X92758028Y-102743201D01*
X92751359Y-102748976D01*
X92745471Y-102754226D01*
X92740420Y-102758901D01*
X92736262Y-102762953D01*
X92733053Y-102766333D01*
X92730849Y-102768992D01*
X92730141Y-102770036D01*
X92729705Y-102770882D01*
X92729449Y-102771676D01*
X92729275Y-102772570D01*
X92729168Y-102774640D01*
X92729373Y-102777063D01*
X92729878Y-102779811D01*
X92730672Y-102782858D01*
X92731742Y-102786174D01*
X92733077Y-102789732D01*
X92734666Y-102793504D01*
X92736496Y-102797462D01*
X92738557Y-102801578D01*
X92740836Y-102805824D01*
X92743323Y-102810172D01*
X92746004Y-102814595D01*
X92748869Y-102819065D01*
X92751907Y-102823553D01*
X92755105Y-102828032D01*
X92772023Y-102853566D01*
X92788805Y-102881244D01*
X92805386Y-102910904D01*
X92821705Y-102942382D01*
X92837698Y-102975515D01*
X92853303Y-103010142D01*
X92868457Y-103046098D01*
X92883097Y-103083223D01*
X92910583Y-103160322D01*
X92935261Y-103240137D01*
X92946389Y-103280656D01*
X92956627Y-103321366D01*
X92965911Y-103362104D01*
X92974179Y-103402707D01*
X92980301Y-103439067D01*
X92985571Y-103479874D01*
X92993577Y-103572371D01*
X92998234Y-103675286D01*
X92999580Y-103783707D01*
X92997651Y-103892723D01*
X92992486Y-103997424D01*
X92984120Y-104092897D01*
X92978749Y-104135639D01*
X92972592Y-104174232D01*
X92958647Y-104245990D01*
X92942439Y-104316549D01*
X92924013Y-104385824D01*
X92903412Y-104453731D01*
X92880681Y-104520187D01*
X92855864Y-104585109D01*
X92829006Y-104648412D01*
X92800150Y-104710013D01*
X92769341Y-104769828D01*
X92736622Y-104827773D01*
X92702039Y-104883765D01*
X92665634Y-104937720D01*
X92627453Y-104989554D01*
X92587540Y-105039183D01*
X92545938Y-105086525D01*
X92502692Y-105131494D01*
X92479232Y-105154482D01*
X92456400Y-105175870D01*
X92434080Y-105195732D01*
X92412155Y-105214143D01*
X92390509Y-105231178D01*
X92369026Y-105246910D01*
X92347589Y-105261415D01*
X92326083Y-105274766D01*
X92304390Y-105287038D01*
X92282395Y-105298306D01*
X92259982Y-105308643D01*
X92237034Y-105318125D01*
X92213434Y-105326825D01*
X92189068Y-105334818D01*
X92163817Y-105342179D01*
X92137567Y-105348982D01*
X92112192Y-105354543D01*
X92087790Y-105359319D01*
X92064253Y-105363304D01*
X92041474Y-105366494D01*
X92019346Y-105368884D01*
X91997762Y-105370469D01*
X91976615Y-105371245D01*
X91955798Y-105371207D01*
X91935205Y-105370350D01*
X91914728Y-105368671D01*
X91894260Y-105366163D01*
X91873695Y-105362823D01*
X91852925Y-105358645D01*
X91831843Y-105353626D01*
X91810343Y-105347761D01*
X91788317Y-105341044D01*
X91736224Y-105324341D01*
X91715753Y-105317265D01*
X91698995Y-105311006D01*
X91685949Y-105305537D01*
X91676612Y-105300833D01*
X91673334Y-105298760D01*
X91670982Y-105296868D01*
X91669556Y-105295155D01*
X91669056Y-105293618D01*
X91669482Y-105292252D01*
X91670832Y-105291056D01*
X91673108Y-105290025D01*
X91676308Y-105289156D01*
X91685482Y-105287894D01*
X91698350Y-105287243D01*
X91714912Y-105287178D01*
X91735164Y-105287674D01*
X91759104Y-105288704D01*
X91786730Y-105290244D01*
X91816719Y-105291211D01*
X91847749Y-105291732D01*
X91878929Y-105291807D01*
X91909364Y-105291435D01*
X91938162Y-105290616D01*
X91964430Y-105289351D01*
X91987275Y-105287640D01*
X92005805Y-105285482D01*
X92083592Y-105274369D01*
X92024855Y-105244207D01*
X91998293Y-105229313D01*
X91971084Y-105211524D01*
X91943364Y-105190995D01*
X91915268Y-105167883D01*
X91886929Y-105142343D01*
X91858483Y-105114531D01*
X91830066Y-105084603D01*
X91801811Y-105052715D01*
X91773854Y-105019022D01*
X91746329Y-104983680D01*
X91719372Y-104946846D01*
X91693117Y-104908674D01*
X91667699Y-104869321D01*
X91643253Y-104828942D01*
X91619914Y-104787694D01*
X91597817Y-104745732D01*
X91589070Y-104728437D01*
X91584649Y-104721433D01*
X91579635Y-104715421D01*
X91573607Y-104710319D01*
X91566145Y-104706050D01*
X91556826Y-104702535D01*
X91545231Y-104699694D01*
X91530939Y-104697449D01*
X91513528Y-104695719D01*
X91492577Y-104694427D01*
X91467667Y-104693493D01*
X91404282Y-104692383D01*
X91320004Y-104691756D01*
X91175542Y-104690169D01*
X91158080Y-104628256D01*
X91154071Y-104615876D01*
X91150415Y-104603923D01*
X91147169Y-104592677D01*
X91144387Y-104582418D01*
X91142127Y-104573423D01*
X91140444Y-104565972D01*
X91139392Y-104560344D01*
X91139122Y-104558301D01*
X91139030Y-104556819D01*
X91140018Y-104555927D01*
X91142918Y-104555042D01*
X91154061Y-104553321D01*
X91171679Y-104551712D01*
X91194989Y-104550271D01*
X91223211Y-104549052D01*
X91255562Y-104548113D01*
X91291262Y-104547508D01*
X91329530Y-104547294D01*
X91367797Y-104547080D01*
X91403497Y-104546475D01*
X91435849Y-104545536D01*
X91464070Y-104544317D01*
X91487381Y-104542876D01*
X91496950Y-104542088D01*
X91504998Y-104541266D01*
X91511428Y-104540417D01*
X91516142Y-104539546D01*
X91519041Y-104538661D01*
X91519781Y-104538216D01*
X91520030Y-104537770D01*
X91519596Y-104534337D01*
X91518343Y-104527872D01*
X91513680Y-104507408D01*
X91506635Y-104479503D01*
X91502406Y-104463736D01*
X91497805Y-104447281D01*
X91488156Y-104411587D01*
X91478953Y-104376042D01*
X91471239Y-104344367D01*
X91468265Y-104331143D01*
X91466055Y-104320281D01*
X91456529Y-104277419D01*
X91275555Y-104277419D01*
X91248649Y-104277361D01*
X91224395Y-104277174D01*
X91202652Y-104276843D01*
X91183281Y-104276352D01*
X91166143Y-104275685D01*
X91151097Y-104274824D01*
X91144316Y-104274316D01*
X91138005Y-104273754D01*
X91132148Y-104273135D01*
X91126727Y-104272458D01*
X91121724Y-104271720D01*
X91117123Y-104270920D01*
X91112905Y-104270056D01*
X91109053Y-104269125D01*
X91105551Y-104268125D01*
X91102379Y-104267055D01*
X91099522Y-104265912D01*
X91096961Y-104264694D01*
X91094679Y-104263400D01*
X91092659Y-104262026D01*
X91090883Y-104260572D01*
X91089333Y-104259036D01*
X91087993Y-104257414D01*
X91086845Y-104255705D01*
X91085871Y-104253908D01*
X91085055Y-104252019D01*
X91083278Y-104243800D01*
X91081557Y-104230315D01*
X91079948Y-104212254D01*
X91078506Y-104190305D01*
X91077288Y-104165156D01*
X91076348Y-104137496D01*
X91075744Y-104108012D01*
X91075530Y-104077394D01*
X91075384Y-104047281D01*
X91074959Y-104019252D01*
X91074274Y-103993902D01*
X91073347Y-103971825D01*
X91072197Y-103953619D01*
X91071544Y-103946153D01*
X91070842Y-103939877D01*
X91070093Y-103934866D01*
X91069301Y-103931195D01*
X91068889Y-103929885D01*
X91068466Y-103928938D01*
X91068034Y-103928363D01*
X91067592Y-103928169D01*
X91066261Y-103928516D01*
X91064085Y-103929533D01*
X91057398Y-103933428D01*
X91047919Y-103939555D01*
X91036041Y-103947616D01*
X91006647Y-103968353D01*
X90972342Y-103993256D01*
X90944433Y-104014567D01*
X90933041Y-104023628D01*
X90923204Y-104031877D01*
X90914808Y-104039504D01*
X90911116Y-104043142D01*
X90907741Y-104046695D01*
X90904670Y-104050187D01*
X90901888Y-104053640D01*
X90899380Y-104057079D01*
X90897134Y-104060527D01*
X90895134Y-104064008D01*
X90893366Y-104067544D01*
X90891817Y-104071160D01*
X90890471Y-104074880D01*
X90889314Y-104078726D01*
X90888333Y-104082722D01*
X90887513Y-104086893D01*
X90886840Y-104091260D01*
X90885877Y-104100682D01*
X90885330Y-104111175D01*
X90885085Y-104122929D01*
X90885029Y-104136131D01*
X88406767Y-104136131D01*
X88564105Y-103976588D01*
X88801144Y-103742537D01*
X89050128Y-103502570D01*
X89297399Y-103270417D01*
X89529305Y-103059806D01*
X89800767Y-102816919D01*
X89806454Y-102549643D01*
X90465989Y-102549643D01*
X90466066Y-102550911D01*
X90467236Y-102551479D01*
X90469503Y-102551345D01*
X90472870Y-102550505D01*
X90477340Y-102548954D01*
X90489604Y-102543708D01*
X90506324Y-102535575D01*
X90527527Y-102524527D01*
X90553242Y-102510532D01*
X90841079Y-102354979D01*
X91107801Y-102214736D01*
X91356551Y-102088297D01*
X91590475Y-101974155D01*
X91812716Y-101870804D01*
X92026417Y-101776735D01*
X92234724Y-101690442D01*
X92440780Y-101610419D01*
X92545654Y-101573063D01*
X92598612Y-101554888D01*
X92649933Y-101537791D01*
X92698128Y-101522332D01*
X92741710Y-101509068D01*
X92779190Y-101498557D01*
X92809080Y-101491357D01*
X92929729Y-101462782D01*
X93020217Y-101507232D01*
X93041373Y-101518457D01*
X93063634Y-101531773D01*
X93086802Y-101547000D01*
X93110680Y-101563960D01*
X93135068Y-101582473D01*
X93159771Y-101602361D01*
X93184590Y-101623444D01*
X93209328Y-101645543D01*
X93233786Y-101668479D01*
X93257768Y-101692073D01*
X93281076Y-101716147D01*
X93303511Y-101740520D01*
X93324877Y-101765014D01*
X93344976Y-101789450D01*
X93363609Y-101813649D01*
X93380580Y-101837432D01*
X93394811Y-101859027D01*
X93409449Y-101882573D01*
X93439491Y-101934542D01*
X93469793Y-101991385D01*
X93499443Y-102051149D01*
X93527532Y-102111880D01*
X93553146Y-102171625D01*
X93575374Y-102228431D01*
X93593304Y-102280344D01*
X93601382Y-102315254D01*
X93604910Y-102329043D01*
X93610593Y-102340843D01*
X93620305Y-102350997D01*
X93635916Y-102359846D01*
X93659299Y-102367733D01*
X93692325Y-102374999D01*
X93794796Y-102389035D01*
X93958305Y-102404690D01*
X94528342Y-102451794D01*
X95166914Y-102505968D01*
X95631654Y-102547044D01*
X95764285Y-102558157D01*
X95873550Y-102566888D01*
X95915839Y-102569989D01*
X95947989Y-102572047D01*
X95968567Y-102572916D01*
X95974070Y-102572857D01*
X95976142Y-102572445D01*
X95976407Y-102571008D01*
X95976031Y-102567946D01*
X95973463Y-102557289D01*
X95968663Y-102541163D01*
X95961855Y-102520256D01*
X95953260Y-102495255D01*
X95943102Y-102466851D01*
X95918993Y-102402582D01*
X95883724Y-102317516D01*
X95844755Y-102234545D01*
X95802331Y-102153942D01*
X95756695Y-102075978D01*
X95708092Y-102000926D01*
X95656766Y-101929057D01*
X95602961Y-101860644D01*
X95546922Y-101795958D01*
X95488892Y-101735273D01*
X95429115Y-101678859D01*
X95367836Y-101626989D01*
X95305299Y-101579935D01*
X95241749Y-101537969D01*
X95177428Y-101501363D01*
X95112582Y-101470389D01*
X95080038Y-101457099D01*
X95047455Y-101445320D01*
X94945483Y-101413656D01*
X94835027Y-101385193D01*
X94714601Y-101359706D01*
X94582714Y-101336973D01*
X94437879Y-101316769D01*
X94278608Y-101298873D01*
X94103413Y-101283060D01*
X93910804Y-101269107D01*
X93753989Y-101258664D01*
X93598067Y-101247477D01*
X93361529Y-101229420D01*
X93276893Y-101222800D01*
X93239126Y-101220333D01*
X93204144Y-101218431D01*
X93171756Y-101217096D01*
X93141775Y-101216332D01*
X93114013Y-101216139D01*
X93088281Y-101216521D01*
X93064391Y-101217479D01*
X93042154Y-101219017D01*
X93021382Y-101221136D01*
X93001886Y-101223838D01*
X92983479Y-101227127D01*
X92965972Y-101231004D01*
X92949177Y-101235471D01*
X92932905Y-101240532D01*
X92769423Y-101296795D01*
X92630536Y-101345952D01*
X92509582Y-101390718D01*
X92399902Y-101433810D01*
X92294835Y-101477944D01*
X92187722Y-101525836D01*
X92071903Y-101580201D01*
X91940717Y-101643757D01*
X91790816Y-101719067D01*
X91636860Y-101800647D01*
X91479555Y-101888068D01*
X91319608Y-101980902D01*
X91157726Y-102078723D01*
X90994617Y-102181101D01*
X90830986Y-102287609D01*
X90667542Y-102397820D01*
X90593612Y-102449348D01*
X90562855Y-102471298D01*
X90536275Y-102490663D01*
X90513900Y-102507415D01*
X90495757Y-102521523D01*
X90481874Y-102532957D01*
X90472279Y-102541687D01*
X90469099Y-102545028D01*
X90467001Y-102547681D01*
X90465989Y-102549643D01*
X89806454Y-102549643D01*
X89810292Y-102369244D01*
X89819225Y-102085978D01*
X89832343Y-101794098D01*
X89848773Y-101505381D01*
X89867640Y-101231602D01*
X89886199Y-101007170D01*
X93663155Y-101007170D01*
X93715542Y-101007170D01*
X93772646Y-101008729D01*
X93850008Y-101013098D01*
X94044750Y-101028402D01*
X94258244Y-101049362D01*
X94359047Y-101060800D01*
X94448967Y-101072257D01*
X94606405Y-101095409D01*
X94678945Y-101107477D01*
X94747640Y-101119956D01*
X94812699Y-101132910D01*
X94874327Y-101146401D01*
X94932732Y-101160492D01*
X94988122Y-101175246D01*
X95040702Y-101190725D01*
X95090680Y-101206993D01*
X95138262Y-101224112D01*
X95183657Y-101242144D01*
X95227070Y-101261154D01*
X95268709Y-101281203D01*
X95308781Y-101302354D01*
X95347492Y-101324670D01*
X95375576Y-101342074D01*
X95404809Y-101360767D01*
X95465215Y-101400919D01*
X95525695Y-101442932D01*
X95583236Y-101484610D01*
X95634823Y-101523758D01*
X95657443Y-101541697D01*
X95677444Y-101558181D01*
X95694450Y-101572934D01*
X95708084Y-101585683D01*
X95717969Y-101596153D01*
X95721388Y-101600448D01*
X95723729Y-101604070D01*
X95726670Y-101607329D01*
X95732002Y-101610572D01*
X95739845Y-101613819D01*
X95750320Y-101617092D01*
X95779652Y-101623798D01*
X95820964Y-101630858D01*
X95875224Y-101638439D01*
X95943400Y-101646708D01*
X96125367Y-101665982D01*
X97044529Y-101761232D01*
X97701754Y-101829494D01*
X97748790Y-101834582D01*
X97767995Y-101836174D01*
X97784850Y-101836861D01*
X97792521Y-101836802D01*
X97799752Y-101836442D01*
X97806594Y-101835753D01*
X97813097Y-101834713D01*
X97819308Y-101833294D01*
X97825278Y-101831472D01*
X97831056Y-101829222D01*
X97836692Y-101826518D01*
X97842235Y-101823335D01*
X97847734Y-101819647D01*
X97851458Y-101816795D01*
X98544717Y-101816795D01*
X98663778Y-101877119D01*
X98740495Y-101917968D01*
X98813466Y-101961316D01*
X98882664Y-102007134D01*
X98948065Y-102055391D01*
X99009644Y-102106057D01*
X99067373Y-102159102D01*
X99121228Y-102214496D01*
X99171184Y-102272208D01*
X99217214Y-102332209D01*
X99259293Y-102394468D01*
X99297396Y-102458954D01*
X99331497Y-102525638D01*
X99361570Y-102594489D01*
X99387589Y-102665477D01*
X99409530Y-102738572D01*
X99427367Y-102813744D01*
X99430046Y-102826360D01*
X99432731Y-102838028D01*
X99435424Y-102848765D01*
X99436776Y-102853791D01*
X99438132Y-102858591D01*
X99439493Y-102863168D01*
X99440858Y-102867524D01*
X99442230Y-102871661D01*
X99443608Y-102875582D01*
X99444993Y-102879289D01*
X99446385Y-102882785D01*
X99447786Y-102886071D01*
X99449195Y-102889150D01*
X99450614Y-102892025D01*
X99452042Y-102894697D01*
X99453481Y-102897170D01*
X99454931Y-102899444D01*
X99456393Y-102901524D01*
X99457866Y-102903410D01*
X99459353Y-102905106D01*
X99460853Y-102906613D01*
X99462367Y-102907934D01*
X99463895Y-102909072D01*
X99465439Y-102910028D01*
X99466998Y-102910805D01*
X99468574Y-102911405D01*
X99470166Y-102911831D01*
X99471776Y-102912085D01*
X99473403Y-102912169D01*
X99828409Y-102943721D01*
X100489404Y-103007419D01*
X100873281Y-103044502D01*
X101131548Y-103068340D01*
X101217856Y-103075617D01*
X101277896Y-103079973D01*
X101313379Y-103081539D01*
X101322447Y-103081316D01*
X101324906Y-103080960D01*
X101326017Y-103080444D01*
X101326556Y-103078942D01*
X101326407Y-103076256D01*
X101324156Y-103067552D01*
X101312622Y-103038326D01*
X101293200Y-102996226D01*
X101267676Y-102944713D01*
X101237836Y-102887247D01*
X101205466Y-102827288D01*
X101172352Y-102768296D01*
X101140279Y-102713732D01*
X101098913Y-102648422D01*
X101056402Y-102585870D01*
X101012794Y-102526118D01*
X100968135Y-102469208D01*
X100922471Y-102415181D01*
X100875849Y-102364079D01*
X100828315Y-102315945D01*
X100779916Y-102270820D01*
X100730699Y-102228745D01*
X100680710Y-102189764D01*
X100629995Y-102153917D01*
X100578601Y-102121247D01*
X100526575Y-102091796D01*
X100473963Y-102065604D01*
X100420811Y-102042715D01*
X100367166Y-102023169D01*
X100270214Y-101997081D01*
X100134771Y-101969542D01*
X99968930Y-101941630D01*
X99780784Y-101914426D01*
X99578424Y-101889007D01*
X99369943Y-101866453D01*
X99163435Y-101847844D01*
X98966991Y-101834257D01*
X98847780Y-101827510D01*
X98740773Y-101821954D01*
X98657578Y-101818184D01*
X98609804Y-101816795D01*
X98544717Y-101816795D01*
X97851458Y-101816795D01*
X97853239Y-101815430D01*
X97858799Y-101810658D01*
X97864464Y-101805306D01*
X97870283Y-101799349D01*
X97882581Y-101785516D01*
X97896088Y-101768957D01*
X97911199Y-101749471D01*
X97947817Y-101700907D01*
X97964887Y-101678898D01*
X97981167Y-101659232D01*
X97996944Y-101641793D01*
X98012508Y-101626468D01*
X98028145Y-101613143D01*
X98044146Y-101601704D01*
X98060797Y-101592036D01*
X98078389Y-101584027D01*
X98097208Y-101577562D01*
X98117543Y-101572527D01*
X98139682Y-101568808D01*
X98163915Y-101566292D01*
X98190529Y-101564863D01*
X98219812Y-101564410D01*
X98252054Y-101564816D01*
X98287541Y-101565969D01*
X98347764Y-101567293D01*
X98372056Y-101567340D01*
X98392787Y-101566738D01*
X98401893Y-101566138D01*
X98410198Y-101565308D01*
X98417733Y-101564227D01*
X98424528Y-101562872D01*
X98430612Y-101561220D01*
X98436016Y-101559249D01*
X98440769Y-101556937D01*
X98444902Y-101554262D01*
X98448444Y-101551200D01*
X98451425Y-101547730D01*
X98453876Y-101543829D01*
X98455825Y-101539475D01*
X98457304Y-101534645D01*
X98458342Y-101529318D01*
X98458969Y-101523470D01*
X98459214Y-101517079D01*
X98459109Y-101510124D01*
X98458682Y-101502581D01*
X98456985Y-101485643D01*
X98454363Y-101466086D01*
X98451054Y-101443732D01*
X98439942Y-101377057D01*
X98285954Y-101358007D01*
X96163467Y-101100832D01*
X95482878Y-101017969D01*
X97462296Y-101017969D01*
X97462506Y-101021287D01*
X97462857Y-101022833D01*
X97463381Y-101024310D01*
X97464087Y-101025718D01*
X97464982Y-101027063D01*
X97466073Y-101028346D01*
X97467369Y-101029571D01*
X97470602Y-101031862D01*
X97474742Y-101033959D01*
X97479849Y-101035888D01*
X97485984Y-101037676D01*
X97493208Y-101039348D01*
X97501580Y-101040929D01*
X97511162Y-101042445D01*
X97522013Y-101043921D01*
X97547767Y-101046857D01*
X97656511Y-101060946D01*
X97789067Y-101078607D01*
X97819462Y-101083066D01*
X97848276Y-101086892D01*
X97874820Y-101090048D01*
X97898406Y-101092498D01*
X97918346Y-101094203D01*
X97933951Y-101095127D01*
X97939913Y-101095284D01*
X97944533Y-101095232D01*
X97947725Y-101094966D01*
X97948759Y-101094752D01*
X97949404Y-101094482D01*
X97950596Y-101092983D01*
X97951501Y-101090022D01*
X97952486Y-101080012D01*
X97952439Y-101065038D01*
X97951438Y-101045691D01*
X97946893Y-100996228D01*
X97939482Y-100936327D01*
X97929840Y-100870697D01*
X97918597Y-100804044D01*
X97906387Y-100741074D01*
X97893841Y-100686494D01*
X97879976Y-100635744D01*
X97861496Y-100572194D01*
X97840933Y-100503882D01*
X97820817Y-100438845D01*
X97815725Y-100424124D01*
X97810594Y-100409780D01*
X97805458Y-100395892D01*
X97800353Y-100382538D01*
X97795312Y-100369799D01*
X97790372Y-100357752D01*
X97785567Y-100346478D01*
X97780931Y-100336054D01*
X97776500Y-100326561D01*
X97772308Y-100318077D01*
X97768391Y-100310681D01*
X97764783Y-100304453D01*
X97761519Y-100299471D01*
X97760027Y-100297472D01*
X97758635Y-100295815D01*
X97757345Y-100294508D01*
X97756164Y-100293563D01*
X97755095Y-100292988D01*
X97754142Y-100292795D01*
X97751474Y-100293403D01*
X97747683Y-100294615D01*
X97737002Y-100298723D01*
X97722637Y-100304877D01*
X97705128Y-100312836D01*
X97685014Y-100322358D01*
X97662836Y-100333201D01*
X97639132Y-100345123D01*
X97614442Y-100357882D01*
X97495380Y-100421382D01*
X97501729Y-100603945D01*
X97503217Y-100662102D01*
X97502920Y-100718567D01*
X97500836Y-100773134D01*
X97496967Y-100825599D01*
X97494362Y-100850979D01*
X97491312Y-100875757D01*
X97487814Y-100899907D01*
X97483870Y-100923404D01*
X97479480Y-100946222D01*
X97474643Y-100968334D01*
X97469360Y-100989717D01*
X97463630Y-101010344D01*
X97462691Y-101014330D01*
X97462296Y-101017969D01*
X95482878Y-101017969D01*
X94560663Y-100905687D01*
X96634415Y-100905687D01*
X96634476Y-100906932D01*
X96634613Y-100908181D01*
X96634822Y-100909431D01*
X96635103Y-100910679D01*
X96635454Y-100911923D01*
X96635873Y-100913159D01*
X96636358Y-100914385D01*
X96636908Y-100915597D01*
X96637520Y-100916793D01*
X96638194Y-100917970D01*
X96638927Y-100919124D01*
X96639717Y-100920254D01*
X96640563Y-100921356D01*
X96641463Y-100922427D01*
X96642416Y-100923464D01*
X96643419Y-100924465D01*
X96644471Y-100925426D01*
X96645570Y-100926344D01*
X96646714Y-100927218D01*
X96647902Y-100928043D01*
X96649132Y-100928817D01*
X96650402Y-100929536D01*
X96651711Y-100930199D01*
X96653056Y-100930802D01*
X96654435Y-100931342D01*
X96655848Y-100931817D01*
X96657293Y-100932223D01*
X96658767Y-100932557D01*
X96697446Y-100940054D01*
X96767882Y-100950863D01*
X96959002Y-100976610D01*
X97142086Y-100998190D01*
X97202476Y-101003790D01*
X97219959Y-101004657D01*
X97227091Y-101003995D01*
X97231378Y-100997898D01*
X97235860Y-100988188D01*
X97240472Y-100975231D01*
X97245149Y-100959396D01*
X97254439Y-100920558D01*
X97263207Y-100874613D01*
X97270934Y-100824501D01*
X97277098Y-100773162D01*
X97281178Y-100723534D01*
X97282274Y-100700280D01*
X97282654Y-100678557D01*
X97282437Y-100651929D01*
X97281811Y-100627162D01*
X97281356Y-100615638D01*
X97280812Y-100604775D01*
X97280185Y-100594638D01*
X97279479Y-100585291D01*
X97278698Y-100576800D01*
X97277848Y-100569230D01*
X97276933Y-100562646D01*
X97275957Y-100557113D01*
X97274925Y-100552697D01*
X97273842Y-100549461D01*
X97273283Y-100548307D01*
X97272713Y-100547472D01*
X97272132Y-100546965D01*
X97271541Y-100546795D01*
X97258428Y-100550805D01*
X97233900Y-100561615D01*
X97157341Y-100599876D01*
X97055331Y-100654062D01*
X96941342Y-100716657D01*
X96828840Y-100780145D01*
X96731296Y-100837009D01*
X96662177Y-100879735D01*
X96642487Y-100893448D01*
X96634954Y-100900807D01*
X96634698Y-100902006D01*
X96634524Y-100903221D01*
X96634430Y-100904449D01*
X96634415Y-100905687D01*
X94560663Y-100905687D01*
X94025105Y-100840482D01*
X93896021Y-100824905D01*
X93787773Y-100812304D01*
X93711672Y-100803870D01*
X93679029Y-100800795D01*
X93678146Y-100800924D01*
X93677281Y-100801308D01*
X93675612Y-100802819D01*
X93674027Y-100805284D01*
X93672531Y-100808658D01*
X93671127Y-100812896D01*
X93669821Y-100817956D01*
X93668617Y-100823793D01*
X93667520Y-100830362D01*
X93665666Y-100845521D01*
X93664296Y-100863079D01*
X93663446Y-100882684D01*
X93663155Y-100903982D01*
X93663155Y-101007170D01*
X89886199Y-101007170D01*
X89888070Y-100984538D01*
X89909188Y-100775965D01*
X89930120Y-100617658D01*
X89940244Y-100561035D01*
X89949992Y-100521394D01*
X89954079Y-100511646D01*
X89960658Y-100500636D01*
X89970140Y-100488030D01*
X89982933Y-100473496D01*
X90020090Y-100437316D01*
X90075405Y-100389434D01*
X90152150Y-100327189D01*
X90253601Y-100247923D01*
X90543717Y-100027682D01*
X90630062Y-99963990D01*
X90742154Y-99883368D01*
X91004886Y-99698275D01*
X91254520Y-99526280D01*
X91350242Y-99462029D01*
X91413667Y-99421257D01*
X91419559Y-99417689D01*
X91425307Y-99414144D01*
X91436240Y-99407217D01*
X91446205Y-99400663D01*
X91450743Y-99397583D01*
X91454942Y-99394666D01*
X91458769Y-99391936D01*
X91462191Y-99389414D01*
X91465177Y-99387125D01*
X91467692Y-99385092D01*
X91469705Y-99383338D01*
X91471183Y-99381886D01*
X91471711Y-99381281D01*
X91472094Y-99380760D01*
X91472326Y-99380326D01*
X91472405Y-99379982D01*
X91471112Y-99376488D01*
X91467419Y-99368696D01*
X91453950Y-99342080D01*
X91410492Y-99257744D01*
X91392791Y-99224053D01*
X91377152Y-99192331D01*
X91363517Y-99162130D01*
X91351829Y-99133002D01*
X91342030Y-99104496D01*
X91334060Y-99076165D01*
X91327862Y-99047559D01*
X91323378Y-99018230D01*
X91320550Y-98987729D01*
X91319320Y-98955608D01*
X91319629Y-98921416D01*
X91321419Y-98884706D01*
X91324632Y-98845029D01*
X91329210Y-98801936D01*
X91342230Y-98703707D01*
X91345801Y-98681312D01*
X91937460Y-98681312D01*
X91938373Y-98684319D01*
X91942999Y-98694752D01*
X91951048Y-98710506D01*
X91962149Y-98730893D01*
X91975928Y-98755223D01*
X91992013Y-98782809D01*
X92010034Y-98812962D01*
X92029617Y-98844995D01*
X92126455Y-99003745D01*
X92361967Y-98887857D01*
X93358355Y-98887857D01*
X93358647Y-98893590D01*
X93359505Y-98900604D01*
X93362795Y-98918094D01*
X93367982Y-98939566D01*
X93374825Y-98964256D01*
X93383082Y-98991401D01*
X93392511Y-99020240D01*
X93402870Y-99050008D01*
X93413918Y-99079944D01*
X93464320Y-99217393D01*
X93512640Y-99366935D01*
X93558131Y-99525480D01*
X93600051Y-99689941D01*
X93637655Y-99857230D01*
X93670199Y-100024259D01*
X93696938Y-100187939D01*
X93717129Y-100345182D01*
X93721495Y-100386559D01*
X93726158Y-100425574D01*
X93730970Y-100461351D01*
X93735783Y-100493018D01*
X93740446Y-100519698D01*
X93742675Y-100530896D01*
X93744812Y-100540519D01*
X93746836Y-100548458D01*
X93748731Y-100554604D01*
X93750477Y-100558849D01*
X93751288Y-100560223D01*
X93752055Y-100561081D01*
X93764446Y-100565240D01*
X93792396Y-100570985D01*
X93886074Y-100586135D01*
X94162225Y-100623391D01*
X94438077Y-100655290D01*
X94531383Y-100663742D01*
X94559092Y-100665134D01*
X94571204Y-100664269D01*
X94573194Y-100662073D01*
X94574993Y-100658456D01*
X94576597Y-100653411D01*
X94578001Y-100646931D01*
X94580190Y-100629639D01*
X94581523Y-100606524D01*
X94581964Y-100577531D01*
X94581474Y-100542603D01*
X94580016Y-100501684D01*
X94577554Y-100454720D01*
X94571223Y-100355770D01*
X94562920Y-100258738D01*
X94552607Y-100163305D01*
X94540248Y-100069155D01*
X94525806Y-99975973D01*
X94509243Y-99883443D01*
X94490521Y-99791247D01*
X94469605Y-99699069D01*
X94448605Y-99614414D01*
X94871247Y-99614414D01*
X94871844Y-99617369D01*
X94873268Y-99621450D01*
X94875608Y-99626838D01*
X94883390Y-99642261D01*
X94895898Y-99665087D01*
X94937917Y-99738757D01*
X94955248Y-99770035D01*
X94970972Y-99799748D01*
X94985157Y-99828155D01*
X94997870Y-99855512D01*
X95009178Y-99882079D01*
X95019149Y-99908114D01*
X95027850Y-99933874D01*
X95035349Y-99959618D01*
X95041714Y-99985603D01*
X95047011Y-100012089D01*
X95051308Y-100039333D01*
X95054672Y-100067593D01*
X95057172Y-100097127D01*
X95058874Y-100128193D01*
X95059845Y-100161051D01*
X95060154Y-100195957D01*
X95059765Y-100229120D01*
X95058601Y-100261906D01*
X95056670Y-100294274D01*
X95053978Y-100326181D01*
X95050533Y-100357586D01*
X95046341Y-100388447D01*
X95041410Y-100418722D01*
X95035747Y-100448369D01*
X95029357Y-100477346D01*
X95022250Y-100505612D01*
X95014430Y-100533124D01*
X95005906Y-100559842D01*
X94996685Y-100585721D01*
X94986773Y-100610722D01*
X94976177Y-100634802D01*
X94964904Y-100657920D01*
X94933154Y-100719832D01*
X95001417Y-100727769D01*
X95192612Y-100751632D01*
X95441552Y-100780554D01*
X95657749Y-100804118D01*
X95725292Y-100810636D01*
X95750717Y-100811907D01*
X95759126Y-100787623D01*
X95779887Y-100723602D01*
X95845967Y-100515045D01*
X95885108Y-100393427D01*
X95891485Y-100374170D01*
X96141034Y-100374170D01*
X96141713Y-100392559D01*
X96143313Y-100410036D01*
X96145865Y-100426374D01*
X96149398Y-100441345D01*
X96153942Y-100454720D01*
X96169817Y-100497581D01*
X96380955Y-100368994D01*
X96569470Y-100254496D01*
X96727030Y-100157857D01*
X96943723Y-100025102D01*
X97274717Y-99824482D01*
X98504235Y-99078158D01*
X98831161Y-98879051D01*
X98947943Y-98806894D01*
X98948217Y-98806573D01*
X98948446Y-98806208D01*
X98948630Y-98805799D01*
X98948770Y-98805347D01*
X98948868Y-98804855D01*
X98948923Y-98804324D01*
X98948910Y-98803149D01*
X98948739Y-98801835D01*
X98948416Y-98800393D01*
X98947950Y-98798834D01*
X98947347Y-98797171D01*
X98946613Y-98795415D01*
X98945756Y-98793578D01*
X98944782Y-98791671D01*
X98943700Y-98789705D01*
X98942515Y-98787693D01*
X98941235Y-98785646D01*
X98939866Y-98783576D01*
X98938416Y-98781495D01*
X98936485Y-98778937D01*
X98934280Y-98775473D01*
X98929140Y-98766066D01*
X98923181Y-98753757D01*
X98916589Y-98739029D01*
X98909550Y-98722366D01*
X98902252Y-98704253D01*
X98894878Y-98685172D01*
X98887617Y-98665607D01*
X98880429Y-98643810D01*
X98873279Y-98618329D01*
X98866353Y-98590096D01*
X98859836Y-98560038D01*
X98853914Y-98529088D01*
X98848773Y-98498176D01*
X98844600Y-98468230D01*
X98841580Y-98440182D01*
X98836737Y-98384141D01*
X98968705Y-98384141D01*
X98970166Y-98416370D01*
X98972086Y-98440247D01*
X98974210Y-98462729D01*
X98976445Y-98483314D01*
X98978699Y-98501499D01*
X98980879Y-98516782D01*
X98982891Y-98528660D01*
X98983806Y-98533166D01*
X98984643Y-98536632D01*
X98985393Y-98538996D01*
X98985730Y-98539745D01*
X98986042Y-98540194D01*
X98989217Y-98539293D01*
X98997381Y-98534917D01*
X99027639Y-98516431D01*
X99136656Y-98445341D01*
X99296572Y-98337937D01*
X99490868Y-98205232D01*
X99987755Y-97863920D01*
X100008391Y-97744857D01*
X100013048Y-97719377D01*
X100018561Y-97693412D01*
X100024744Y-97667671D01*
X100031410Y-97642860D01*
X100038374Y-97619687D01*
X100045450Y-97598857D01*
X100048971Y-97589542D01*
X100052451Y-97581078D01*
X100055866Y-97573554D01*
X100059192Y-97567057D01*
X100087767Y-97509908D01*
X100095703Y-97651194D01*
X100097957Y-97680260D01*
X100101140Y-97709105D01*
X100105242Y-97737715D01*
X100110251Y-97766074D01*
X100116159Y-97794167D01*
X100122953Y-97821978D01*
X100139161Y-97876694D01*
X100158793Y-97930098D01*
X100181764Y-97982068D01*
X100207990Y-98032479D01*
X100237388Y-98081209D01*
X100269875Y-98128134D01*
X100305365Y-98173132D01*
X100343777Y-98216078D01*
X100385026Y-98256851D01*
X100429028Y-98295325D01*
X100475699Y-98331380D01*
X100524957Y-98364890D01*
X100576716Y-98395732D01*
X100603246Y-98410043D01*
X100629333Y-98423228D01*
X100655095Y-98435316D01*
X100680648Y-98446334D01*
X100706108Y-98456310D01*
X100731590Y-98465272D01*
X100757213Y-98473248D01*
X100783091Y-98480266D01*
X100809342Y-98486354D01*
X100836080Y-98491540D01*
X100863424Y-98495851D01*
X100891488Y-98499316D01*
X100920389Y-98501962D01*
X100950244Y-98503818D01*
X100981168Y-98504911D01*
X101013279Y-98505269D01*
X101064646Y-98504088D01*
X101114057Y-98501099D01*
X101161641Y-98496246D01*
X101207524Y-98489469D01*
X101251836Y-98480711D01*
X101294704Y-98469914D01*
X101336255Y-98457019D01*
X101376618Y-98441968D01*
X101415921Y-98424704D01*
X101454291Y-98405167D01*
X101491857Y-98383301D01*
X101528745Y-98359046D01*
X101565085Y-98332345D01*
X101601005Y-98303139D01*
X101636631Y-98271371D01*
X101672092Y-98236982D01*
X101703541Y-98204139D01*
X101732999Y-98170244D01*
X101760465Y-98135360D01*
X101785939Y-98099552D01*
X101809420Y-98062883D01*
X101830908Y-98025418D01*
X101850401Y-97987221D01*
X101867900Y-97948355D01*
X101883404Y-97908884D01*
X101896911Y-97868873D01*
X101908423Y-97828385D01*
X101917937Y-97787484D01*
X101925454Y-97746234D01*
X101930973Y-97704700D01*
X101934493Y-97662944D01*
X101936013Y-97621032D01*
X101935534Y-97579027D01*
X101933055Y-97536992D01*
X101928574Y-97494993D01*
X101922092Y-97453092D01*
X101913607Y-97411354D01*
X101903120Y-97369843D01*
X101890629Y-97328622D01*
X101876135Y-97287756D01*
X101859636Y-97247309D01*
X101841131Y-97207344D01*
X101820621Y-97167926D01*
X101798105Y-97129118D01*
X101773582Y-97090984D01*
X101747051Y-97053589D01*
X101718513Y-97016996D01*
X101687966Y-96981269D01*
X101667696Y-96959180D01*
X101647324Y-96938128D01*
X101626784Y-96918071D01*
X101606012Y-96898968D01*
X101584942Y-96880776D01*
X101563509Y-96863454D01*
X101541648Y-96846959D01*
X101519295Y-96831251D01*
X101496383Y-96816287D01*
X101472848Y-96802025D01*
X101448625Y-96788423D01*
X101423648Y-96775440D01*
X101397853Y-96763034D01*
X101371174Y-96751163D01*
X101343546Y-96739785D01*
X101314904Y-96728857D01*
X101280683Y-96717366D01*
X101248601Y-96707773D01*
X101217375Y-96699892D01*
X101201682Y-96696534D01*
X101185721Y-96693535D01*
X101169333Y-96690871D01*
X101152356Y-96688519D01*
X101115995Y-96684655D01*
X101075356Y-96681759D01*
X101029154Y-96679644D01*
X100961760Y-96678801D01*
X100930509Y-96678696D01*
X100901956Y-96678851D01*
X100876900Y-96679304D01*
X100856141Y-96680091D01*
X100840480Y-96681251D01*
X100834811Y-96681982D01*
X100830716Y-96682820D01*
X100747990Y-96703367D01*
X100711718Y-96713324D01*
X100678193Y-96723376D01*
X100646927Y-96733753D01*
X100617437Y-96744686D01*
X100589234Y-96756405D01*
X100561834Y-96769140D01*
X100534750Y-96783122D01*
X100507496Y-96798580D01*
X100479587Y-96815746D01*
X100450535Y-96834848D01*
X100419856Y-96856118D01*
X100387063Y-96879785D01*
X100313192Y-96935232D01*
X100161967Y-97054044D01*
X99987729Y-97194268D01*
X99802441Y-97345914D01*
X99618065Y-97498993D01*
X99446562Y-97643514D01*
X99299895Y-97769488D01*
X99190026Y-97866924D01*
X99152628Y-97901818D01*
X99128916Y-97925832D01*
X99109728Y-97948572D01*
X99091492Y-97973215D01*
X99074271Y-97999579D01*
X99058124Y-98027482D01*
X99043112Y-98056743D01*
X99029295Y-98087180D01*
X99016734Y-98118613D01*
X99005489Y-98150860D01*
X98995620Y-98183740D01*
X98987189Y-98217070D01*
X98980255Y-98250670D01*
X98974879Y-98284359D01*
X98971122Y-98317955D01*
X98969044Y-98351276D01*
X98968705Y-98384141D01*
X98836737Y-98384141D01*
X98830467Y-98311595D01*
X98258967Y-98708470D01*
X96954041Y-99611757D01*
X96763911Y-99744127D01*
X96605164Y-99855438D01*
X96475550Y-99947402D01*
X96372819Y-100021729D01*
X96330830Y-100052814D01*
X96294718Y-100080132D01*
X96264201Y-100103896D01*
X96238997Y-100124321D01*
X96218826Y-100141621D01*
X96203406Y-100156009D01*
X96192455Y-100167700D01*
X96188567Y-100172601D01*
X96185692Y-100176907D01*
X96178237Y-100190282D01*
X96171370Y-100205253D01*
X96165122Y-100221590D01*
X96159523Y-100239068D01*
X96154602Y-100257456D01*
X96150391Y-100276529D01*
X96146920Y-100296057D01*
X96144218Y-100315813D01*
X96142316Y-100335569D01*
X96141245Y-100355098D01*
X96141034Y-100374170D01*
X95891485Y-100374170D01*
X95923357Y-100277911D01*
X95956249Y-100181744D01*
X95969290Y-100145055D01*
X95979317Y-100118170D01*
X95993040Y-100085080D01*
X95999402Y-100071010D01*
X96005759Y-100058241D01*
X96012358Y-100046515D01*
X96019445Y-100035570D01*
X96027267Y-100025146D01*
X96036070Y-100014982D01*
X96046101Y-100004818D01*
X96057607Y-99994394D01*
X96070833Y-99983449D01*
X96086027Y-99971723D01*
X96103434Y-99958955D01*
X96123302Y-99944884D01*
X96171404Y-99911795D01*
X96322217Y-99808607D01*
X96250779Y-99797495D01*
X96010471Y-99762966D01*
X95533229Y-99697482D01*
X95075037Y-99635967D01*
X94877592Y-99610170D01*
X94873543Y-99610486D01*
X94872185Y-99611153D01*
X94871391Y-99612402D01*
X94871247Y-99614414D01*
X94448605Y-99614414D01*
X94418805Y-99494283D01*
X94466430Y-99456182D01*
X94477065Y-99448638D01*
X94489597Y-99440481D01*
X94503544Y-99431988D01*
X94518420Y-99423440D01*
X94533743Y-99415115D01*
X94549029Y-99407292D01*
X94563794Y-99400250D01*
X94577554Y-99394269D01*
X94605314Y-99385919D01*
X94645147Y-99382239D01*
X94712253Y-99384921D01*
X94821831Y-99395659D01*
X95229198Y-99448071D01*
X95988842Y-99553019D01*
X96297412Y-99595088D01*
X96412779Y-99610170D01*
X96480967Y-99618107D01*
X96576217Y-99629220D01*
X96769892Y-99492694D01*
X96845844Y-99437876D01*
X96909592Y-99391095D01*
X96934750Y-99372299D01*
X96954290Y-99357410D01*
X96967356Y-99347060D01*
X96971193Y-99343785D01*
X96973092Y-99341882D01*
X96973366Y-99341124D01*
X96973594Y-99340340D01*
X96973777Y-99339530D01*
X96973913Y-99338698D01*
X96974005Y-99337843D01*
X96974051Y-99336967D01*
X96974010Y-99335160D01*
X96973791Y-99333287D01*
X96973399Y-99331362D01*
X96972834Y-99329394D01*
X96972100Y-99327396D01*
X96971198Y-99325379D01*
X96970131Y-99323356D01*
X96968901Y-99321337D01*
X96967511Y-99319335D01*
X96965963Y-99317360D01*
X96964259Y-99315425D01*
X96962401Y-99313541D01*
X96960392Y-99311720D01*
X96816649Y-99285501D01*
X96440287Y-99226987D01*
X95218904Y-99048194D01*
X93989981Y-98873173D01*
X93606873Y-98820041D01*
X93455192Y-98800545D01*
X93449751Y-98800642D01*
X93444442Y-98800932D01*
X93439268Y-98801413D01*
X93434232Y-98802083D01*
X93429335Y-98802938D01*
X93424580Y-98803977D01*
X93419969Y-98805197D01*
X93415505Y-98806597D01*
X93411189Y-98808173D01*
X93407024Y-98809924D01*
X93403013Y-98811847D01*
X93399158Y-98813939D01*
X93395461Y-98816199D01*
X93391925Y-98818624D01*
X93388551Y-98821212D01*
X93385342Y-98823960D01*
X93382301Y-98826867D01*
X93379429Y-98829929D01*
X93376730Y-98833145D01*
X93374205Y-98836511D01*
X93371856Y-98840027D01*
X93369687Y-98843689D01*
X93367699Y-98847496D01*
X93365895Y-98851444D01*
X93364277Y-98855532D01*
X93362847Y-98859756D01*
X93361608Y-98864116D01*
X93360562Y-98868609D01*
X93359712Y-98873231D01*
X93359059Y-98877982D01*
X93358606Y-98882858D01*
X93358355Y-98887857D01*
X92361967Y-98887857D01*
X92526504Y-98806894D01*
X92678297Y-98733373D01*
X92744459Y-98702306D01*
X92805012Y-98674735D01*
X92860616Y-98650439D01*
X92911932Y-98629194D01*
X92959621Y-98610777D01*
X93004342Y-98594964D01*
X93046757Y-98581532D01*
X93087525Y-98570258D01*
X93127307Y-98560919D01*
X93166763Y-98553292D01*
X93206555Y-98547152D01*
X93247341Y-98542278D01*
X93289784Y-98538446D01*
X93334542Y-98535432D01*
X93357984Y-98533976D01*
X93378976Y-98532564D01*
X93397639Y-98531166D01*
X93414091Y-98529752D01*
X93421524Y-98529029D01*
X93428449Y-98528291D01*
X93434880Y-98527534D01*
X93440833Y-98526754D01*
X93446322Y-98525947D01*
X93451362Y-98525109D01*
X93455967Y-98524237D01*
X93460153Y-98523327D01*
X93463934Y-98522376D01*
X93467326Y-98521378D01*
X93470342Y-98520332D01*
X93472999Y-98519232D01*
X93475310Y-98518075D01*
X93476340Y-98517474D01*
X93477290Y-98516857D01*
X93478161Y-98516224D01*
X93478955Y-98515575D01*
X93479674Y-98514908D01*
X93480319Y-98514224D01*
X93480893Y-98513522D01*
X93481397Y-98512801D01*
X93481833Y-98512062D01*
X93482204Y-98511303D01*
X93482510Y-98510524D01*
X93482754Y-98509725D01*
X93482938Y-98508905D01*
X93483063Y-98508063D01*
X93483132Y-98507200D01*
X93483145Y-98506314D01*
X93483016Y-98504474D01*
X93482689Y-98502540D01*
X93482180Y-98500507D01*
X93478577Y-98487852D01*
X93474937Y-98472713D01*
X93467694Y-98436213D01*
X93460748Y-98393462D01*
X93454398Y-98346916D01*
X93448941Y-98299031D01*
X93444675Y-98252262D01*
X93441897Y-98209064D01*
X93440905Y-98171894D01*
X93440733Y-98153024D01*
X93440127Y-98136197D01*
X93438948Y-98121264D01*
X93437060Y-98108072D01*
X93435807Y-98102082D01*
X93434326Y-98096471D01*
X93432598Y-98091220D01*
X93430608Y-98086309D01*
X93428337Y-98081721D01*
X93425769Y-98077436D01*
X93422886Y-98073435D01*
X93419672Y-98069699D01*
X93416109Y-98066210D01*
X93412180Y-98062949D01*
X93407868Y-98059896D01*
X93403155Y-98057033D01*
X93398025Y-98054341D01*
X93392461Y-98051802D01*
X93386445Y-98049395D01*
X93379960Y-98047102D01*
X93365514Y-98042784D01*
X93348988Y-98038697D01*
X93330243Y-98034688D01*
X93309142Y-98030607D01*
X93300404Y-98028977D01*
X93292588Y-98027686D01*
X93285615Y-98026777D01*
X93282418Y-98026478D01*
X93279401Y-98026291D01*
X93276555Y-98026220D01*
X93273867Y-98026270D01*
X93271329Y-98026447D01*
X93268931Y-98026756D01*
X93266661Y-98027202D01*
X93264510Y-98027791D01*
X93262468Y-98028527D01*
X93260525Y-98029416D01*
X93258670Y-98030464D01*
X93256893Y-98031674D01*
X93255184Y-98033053D01*
X93253533Y-98034607D01*
X93251930Y-98036339D01*
X93250364Y-98038255D01*
X93248825Y-98040361D01*
X93247304Y-98042662D01*
X93245790Y-98045163D01*
X93244272Y-98047869D01*
X93241186Y-98053917D01*
X93237966Y-98060849D01*
X93234529Y-98068707D01*
X93229719Y-98079304D01*
X93224233Y-98089660D01*
X93218091Y-98099763D01*
X93211315Y-98109604D01*
X93195947Y-98128459D01*
X93178297Y-98146147D01*
X93158536Y-98162589D01*
X93136833Y-98177705D01*
X93113358Y-98191416D01*
X93088281Y-98203644D01*
X93061771Y-98214310D01*
X93033999Y-98223333D01*
X93005134Y-98230636D01*
X92975345Y-98236139D01*
X92944803Y-98239762D01*
X92913678Y-98241428D01*
X92882138Y-98241057D01*
X92850355Y-98238569D01*
X92823890Y-98235206D01*
X92797508Y-98231081D01*
X92771257Y-98226218D01*
X92745183Y-98220636D01*
X92719332Y-98214356D01*
X92693750Y-98207399D01*
X92668485Y-98199787D01*
X92643583Y-98191540D01*
X92619090Y-98182679D01*
X92595052Y-98173225D01*
X92571517Y-98163199D01*
X92548531Y-98152622D01*
X92526140Y-98141514D01*
X92504391Y-98129897D01*
X92483330Y-98117792D01*
X92463004Y-98105220D01*
X92442953Y-98091090D01*
X92421358Y-98075231D01*
X92398906Y-98058144D01*
X92376287Y-98040331D01*
X92354190Y-98022295D01*
X92333301Y-98004537D01*
X92314310Y-97987562D01*
X92305741Y-97979524D01*
X92297904Y-97971870D01*
X92226467Y-97902019D01*
X92120105Y-97916307D01*
X92108689Y-97917867D01*
X92097691Y-97919563D01*
X92087152Y-97921379D01*
X92077118Y-97923302D01*
X92067633Y-97925318D01*
X92058741Y-97927413D01*
X92050486Y-97929574D01*
X92042912Y-97931785D01*
X92036064Y-97934034D01*
X92029986Y-97936306D01*
X92024722Y-97938587D01*
X92022408Y-97939727D01*
X92020315Y-97940864D01*
X92018448Y-97941996D01*
X92016811Y-97943122D01*
X92015411Y-97944239D01*
X92014254Y-97945347D01*
X92013343Y-97946443D01*
X92012687Y-97947526D01*
X92012288Y-97948594D01*
X92012154Y-97949644D01*
X92012657Y-97954717D01*
X92014089Y-97962543D01*
X92016340Y-97972750D01*
X92019298Y-97984967D01*
X92026889Y-98013939D01*
X92035967Y-98046482D01*
X92043310Y-98071942D01*
X92050431Y-98099918D01*
X92063872Y-98162320D01*
X92076011Y-98231494D01*
X92086569Y-98305245D01*
X92095266Y-98381377D01*
X92101823Y-98457694D01*
X92105963Y-98532003D01*
X92107405Y-98602107D01*
X92107187Y-98635705D01*
X92106561Y-98666996D01*
X92105563Y-98695311D01*
X92104230Y-98719979D01*
X92103449Y-98730737D01*
X92102599Y-98740331D01*
X92101683Y-98748680D01*
X92100707Y-98755698D01*
X92099676Y-98761302D01*
X92098593Y-98765409D01*
X92098034Y-98766875D01*
X92097463Y-98767934D01*
X92096883Y-98768578D01*
X92096292Y-98768795D01*
X92094475Y-98768556D01*
X92092026Y-98767855D01*
X92088981Y-98766712D01*
X92085378Y-98765149D01*
X92076647Y-98760842D01*
X92066130Y-98755103D01*
X92054124Y-98748098D01*
X92040928Y-98739997D01*
X92026839Y-98730965D01*
X92012154Y-98721170D01*
X92005055Y-98716485D01*
X91998075Y-98711973D01*
X91991257Y-98707656D01*
X91984646Y-98703558D01*
X91978286Y-98699702D01*
X91972222Y-98696110D01*
X91966497Y-98692808D01*
X91961156Y-98689816D01*
X91956243Y-98687160D01*
X91951802Y-98684862D01*
X91947877Y-98682945D01*
X91944512Y-98681432D01*
X91941752Y-98680348D01*
X91939641Y-98679715D01*
X91938843Y-98679574D01*
X91938223Y-98679556D01*
X91937788Y-98679661D01*
X91937543Y-98679894D01*
X91937460Y-98681312D01*
X91345801Y-98681312D01*
X91357385Y-98608668D01*
X91374476Y-98516977D01*
X91393799Y-98427668D01*
X91415652Y-98339773D01*
X91440332Y-98252324D01*
X91468138Y-98164354D01*
X91499367Y-98074896D01*
X91534317Y-97982982D01*
X91559965Y-97919150D01*
X91571850Y-97892817D01*
X91583827Y-97869699D01*
X91596437Y-97849418D01*
X91610220Y-97831596D01*
X91617719Y-97823488D01*
X91625713Y-97815852D01*
X91634270Y-97808642D01*
X91643458Y-97801809D01*
X91663993Y-97789086D01*
X91687858Y-97777305D01*
X91715593Y-97766087D01*
X91747737Y-97755052D01*
X91784829Y-97743822D01*
X91827409Y-97732018D01*
X91931192Y-97705170D01*
X91965180Y-97696428D01*
X91995259Y-97688594D01*
X92021650Y-97681569D01*
X92044574Y-97675255D01*
X92054805Y-97672335D01*
X92064252Y-97669555D01*
X92072942Y-97666905D01*
X92080904Y-97664372D01*
X92088164Y-97661943D01*
X92094751Y-97659607D01*
X92100693Y-97657351D01*
X92106015Y-97655163D01*
X92110748Y-97653031D01*
X92114917Y-97650943D01*
X92118551Y-97648886D01*
X92121677Y-97646848D01*
X92124322Y-97644817D01*
X92125474Y-97643800D01*
X92126515Y-97642780D01*
X92127451Y-97641756D01*
X92128284Y-97640727D01*
X92129017Y-97639690D01*
X92129654Y-97638643D01*
X92130199Y-97637587D01*
X92130655Y-97636518D01*
X92131026Y-97635436D01*
X92131314Y-97634339D01*
X92131524Y-97633225D01*
X92131659Y-97632094D01*
X92131716Y-97629770D01*
X92131514Y-97627355D01*
X92131081Y-97624837D01*
X92130443Y-97622205D01*
X92129630Y-97619444D01*
X92128609Y-97615840D01*
X92127348Y-97612186D01*
X92125862Y-97608509D01*
X92124173Y-97604834D01*
X92122297Y-97601188D01*
X92120253Y-97597595D01*
X92118061Y-97594081D01*
X92115739Y-97590671D01*
X92113305Y-97587392D01*
X92110778Y-97584269D01*
X92108177Y-97581326D01*
X92105519Y-97578591D01*
X92102825Y-97576089D01*
X92100112Y-97573844D01*
X92097399Y-97571884D01*
X92096048Y-97571018D01*
X92094705Y-97570232D01*
X92081732Y-97560385D01*
X92063550Y-97546221D01*
X92053296Y-97538032D01*
X92042689Y-97529379D01*
X92032045Y-97520465D01*
X92021680Y-97511495D01*
X91972467Y-97470220D01*
X91972467Y-97431963D01*
X92658346Y-97431963D01*
X92658454Y-97438198D01*
X92658863Y-97444795D01*
X92660569Y-97459106D01*
X92663439Y-97474954D01*
X92667443Y-97492398D01*
X92672555Y-97511495D01*
X92675378Y-97520679D01*
X92678477Y-97529754D01*
X92681826Y-97538685D01*
X92685403Y-97547437D01*
X92689185Y-97555974D01*
X92693149Y-97564263D01*
X92697270Y-97572269D01*
X92701526Y-97579955D01*
X92705894Y-97587289D01*
X92710351Y-97594234D01*
X92714872Y-97600755D01*
X92719436Y-97606819D01*
X92724017Y-97612390D01*
X92728595Y-97617432D01*
X92733144Y-97621912D01*
X92737642Y-97625795D01*
X92754416Y-97637643D01*
X92772487Y-97648175D01*
X92791702Y-97657377D01*
X92811908Y-97665234D01*
X92832950Y-97671734D01*
X92854677Y-97676861D01*
X92876934Y-97680603D01*
X92899567Y-97682945D01*
X92922424Y-97683873D01*
X92945350Y-97683373D01*
X92968193Y-97681431D01*
X92990799Y-97678033D01*
X93013014Y-97673166D01*
X93034684Y-97666815D01*
X93055658Y-97658967D01*
X93075780Y-97649607D01*
X93081343Y-97646461D01*
X93086725Y-97642969D01*
X93091930Y-97639118D01*
X93096963Y-97634898D01*
X93101828Y-97630296D01*
X93106531Y-97625302D01*
X93111076Y-97619902D01*
X93115467Y-97614087D01*
X93119709Y-97607843D01*
X93123808Y-97601160D01*
X93127766Y-97594026D01*
X93131590Y-97586430D01*
X93135284Y-97578358D01*
X93138852Y-97569801D01*
X93142299Y-97560746D01*
X93145629Y-97551182D01*
X93149076Y-97541084D01*
X93152271Y-97531327D01*
X93155216Y-97521906D01*
X93157911Y-97512819D01*
X93160356Y-97504060D01*
X93162551Y-97495626D01*
X93164496Y-97487514D01*
X93166193Y-97479720D01*
X93167640Y-97472239D01*
X93168839Y-97465069D01*
X93169790Y-97458205D01*
X93170493Y-97451644D01*
X93170948Y-97445382D01*
X93171156Y-97439414D01*
X93171117Y-97433738D01*
X93170831Y-97428349D01*
X93170299Y-97423244D01*
X93169520Y-97418419D01*
X93168495Y-97413870D01*
X93167225Y-97409594D01*
X93165710Y-97405586D01*
X93163949Y-97401843D01*
X93161944Y-97398361D01*
X93159694Y-97395136D01*
X93157200Y-97392164D01*
X93154462Y-97389443D01*
X93151481Y-97386967D01*
X93148256Y-97384733D01*
X93144788Y-97382738D01*
X93141078Y-97380977D01*
X93137125Y-97379447D01*
X93132930Y-97378144D01*
X93128223Y-97376749D01*
X93123628Y-97374945D01*
X93119145Y-97372731D01*
X93114773Y-97370108D01*
X93110512Y-97367076D01*
X93106364Y-97363634D01*
X93102327Y-97359783D01*
X93098402Y-97355523D01*
X93094588Y-97350853D01*
X93090886Y-97345775D01*
X93087295Y-97340286D01*
X93083816Y-97334389D01*
X93080449Y-97328082D01*
X93077194Y-97321367D01*
X93074049Y-97314241D01*
X93071017Y-97306707D01*
X93068148Y-97299768D01*
X93065196Y-97293239D01*
X93062164Y-97287121D01*
X93059052Y-97281415D01*
X93055862Y-97276122D01*
X93052596Y-97271243D01*
X93049255Y-97266778D01*
X93045840Y-97262728D01*
X93042354Y-97259095D01*
X93038796Y-97255879D01*
X93035170Y-97253081D01*
X93031475Y-97250701D01*
X93027715Y-97248742D01*
X93023890Y-97247203D01*
X93020001Y-97246085D01*
X93016050Y-97245390D01*
X93012039Y-97245118D01*
X93007969Y-97245270D01*
X93003841Y-97245848D01*
X92999657Y-97246851D01*
X92995419Y-97248280D01*
X92991127Y-97250138D01*
X92986784Y-97252423D01*
X92982390Y-97255138D01*
X92977948Y-97258284D01*
X92973458Y-97261860D01*
X92968922Y-97265868D01*
X92964342Y-97270310D01*
X92959718Y-97275184D01*
X92955053Y-97280494D01*
X92950348Y-97286239D01*
X92945605Y-97292420D01*
X92938334Y-97301683D01*
X92930226Y-97310416D01*
X92921299Y-97318609D01*
X92911572Y-97326254D01*
X92901064Y-97333340D01*
X92889794Y-97339859D01*
X92877779Y-97345801D01*
X92865039Y-97351157D01*
X92851592Y-97355918D01*
X92837456Y-97360075D01*
X92822651Y-97363617D01*
X92807194Y-97366536D01*
X92791106Y-97368823D01*
X92774403Y-97370468D01*
X92757105Y-97371462D01*
X92739230Y-97371795D01*
X92724808Y-97372195D01*
X92711883Y-97373435D01*
X92705973Y-97374388D01*
X92700428Y-97375572D01*
X92695242Y-97376996D01*
X92690414Y-97378666D01*
X92685939Y-97380589D01*
X92681815Y-97382773D01*
X92678036Y-97385225D01*
X92674601Y-97387952D01*
X92671505Y-97390962D01*
X92668746Y-97394261D01*
X92666319Y-97397858D01*
X92664220Y-97401759D01*
X92662448Y-97405971D01*
X92660997Y-97410503D01*
X92659865Y-97415360D01*
X92659049Y-97420551D01*
X92658543Y-97426083D01*
X92658346Y-97431963D01*
X91972467Y-97431963D01*
X91972467Y-97297182D01*
X91972591Y-97259354D01*
X91973010Y-97225462D01*
X91973796Y-97195241D01*
X91974350Y-97181422D01*
X91975022Y-97168421D01*
X91975822Y-97156203D01*
X91976759Y-97144736D01*
X91977843Y-97133985D01*
X91979081Y-97123918D01*
X91980483Y-97114501D01*
X91982058Y-97105700D01*
X91983814Y-97097483D01*
X91985762Y-97089815D01*
X91987910Y-97082663D01*
X91990267Y-97075994D01*
X91992842Y-97069775D01*
X91995644Y-97063972D01*
X91998682Y-97058551D01*
X92001965Y-97053479D01*
X92005502Y-97048723D01*
X92009302Y-97044249D01*
X92013374Y-97040024D01*
X92017727Y-97036014D01*
X92022371Y-97032186D01*
X92027313Y-97028507D01*
X92032564Y-97024943D01*
X92038131Y-97021461D01*
X92044025Y-97018027D01*
X92050254Y-97014607D01*
X92057700Y-97010453D01*
X92064576Y-97006301D01*
X92070908Y-97002116D01*
X92074296Y-96999638D01*
G37*
D12*
X71140400Y-121779000D02*
X77140400Y-121779000D01*
X77140400Y-118289000D02*
X77140400Y-126029000D01*
X82670400Y-125079000D02*
X82283329Y-125079000D01*
X71140400Y-119999000D02*
X71140400Y-119239000D01*
X79800400Y-118289000D02*
X77140400Y-118289000D01*
X80197471Y-122539000D02*
X79800400Y-122539000D01*
X71140400Y-122539000D02*
X71140400Y-121779000D01*
X80197471Y-119999000D02*
X79800400Y-119999000D01*
X77140400Y-126029000D02*
X79800400Y-126029000D01*
X80197471Y-125079000D02*
X79800400Y-125079000D01*
X80197471Y-124319000D02*
X79800400Y-124319000D01*
X82737471Y-119239000D02*
X82283329Y-119239000D01*
X82670400Y-124319000D02*
X82283329Y-124319000D01*
X85050400Y-125969000D02*
X83780400Y-125969000D01*
X79800400Y-126029000D02*
X79800400Y-118289000D01*
X77140400Y-122539000D02*
X71140400Y-122539000D01*
X77140400Y-124899000D02*
X71140400Y-124899000D01*
X80197471Y-119239000D02*
X79800400Y-119239000D01*
X77140400Y-125019000D02*
X71140400Y-125019000D01*
X82737471Y-122539000D02*
X82283329Y-122539000D01*
X82737471Y-119999000D02*
X82283329Y-119999000D01*
X77140400Y-124659000D02*
X71140400Y-124659000D01*
X80197471Y-121779000D02*
X79800400Y-121779000D01*
X77140400Y-124419000D02*
X71140400Y-124419000D01*
X79800400Y-123429000D02*
X77140400Y-123429000D01*
X85050400Y-124699000D02*
X85050400Y-125969000D01*
X82737471Y-121779000D02*
X82283329Y-121779000D01*
X79800400Y-120889000D02*
X77140400Y-120889000D01*
X71140400Y-119239000D02*
X77140400Y-119239000D01*
X71140400Y-124319000D02*
X77140400Y-124319000D01*
X77140400Y-124779000D02*
X71140400Y-124779000D01*
X77140400Y-125079000D02*
X71140400Y-125079000D01*
X77140400Y-119999000D02*
X71140400Y-119999000D01*
X77140400Y-124539000D02*
X71140400Y-124539000D01*
X71140400Y-125079000D02*
X71140400Y-124319000D01*
X110336800Y-136168800D02*
X110336800Y-133508800D01*
X109386800Y-136168800D02*
X109386800Y-142168800D01*
X108626800Y-142168800D02*
X108626800Y-136168800D01*
X106086800Y-130571729D02*
X106086800Y-131025871D01*
X105196800Y-133508800D02*
X105196800Y-136168800D01*
X100056800Y-133508800D02*
X100056800Y-136168800D01*
X102656800Y-133508800D02*
X102656800Y-136168800D01*
X109206800Y-136168800D02*
X109206800Y-142168800D01*
X109006800Y-128258800D02*
X110276800Y-128258800D01*
X103546800Y-133111729D02*
X103546800Y-133508800D01*
X101766800Y-130571729D02*
X101766800Y-131025871D01*
X106086800Y-133111729D02*
X106086800Y-133508800D01*
X103546800Y-130571729D02*
X103546800Y-131025871D01*
X101006800Y-142168800D02*
X101006800Y-136168800D01*
X104306800Y-136168800D02*
X104306800Y-142168800D01*
X100056800Y-136168800D02*
X110336800Y-136168800D01*
X108846800Y-136168800D02*
X108846800Y-142168800D01*
X109386800Y-130638800D02*
X109386800Y-131025871D01*
X101766800Y-136168800D02*
X101766800Y-142168800D01*
X108966800Y-136168800D02*
X108966800Y-142168800D01*
X106846800Y-136168800D02*
X106846800Y-142168800D01*
X106846800Y-130571729D02*
X106846800Y-131025871D01*
X108626800Y-133111729D02*
X108626800Y-133508800D01*
X110276800Y-128258800D02*
X110276800Y-129528800D01*
X108726800Y-136168800D02*
X108726800Y-142168800D01*
X101006800Y-130571729D02*
X101006800Y-131025871D01*
X104306800Y-133111729D02*
X104306800Y-133508800D01*
X107736800Y-133508800D02*
X107736800Y-136168800D01*
X106846800Y-133111729D02*
X106846800Y-133508800D01*
X106846800Y-142168800D02*
X106086800Y-142168800D01*
X109326800Y-136168800D02*
X109326800Y-142168800D01*
X108626800Y-130638800D02*
X108626800Y-131025871D01*
X106086800Y-142168800D02*
X106086800Y-136168800D01*
X101766800Y-133111729D02*
X101766800Y-133508800D01*
X104306800Y-130571729D02*
X104306800Y-131025871D01*
X110336800Y-133508800D02*
X100056800Y-133508800D01*
X104306800Y-142168800D02*
X103546800Y-142168800D01*
X109386800Y-133111729D02*
X109386800Y-133508800D01*
X101766800Y-142168800D02*
X101006800Y-142168800D01*
X109086800Y-136168800D02*
X109086800Y-142168800D01*
X103546800Y-142168800D02*
X103546800Y-136168800D01*
X109386800Y-142168800D02*
X108626800Y-142168800D01*
X101006800Y-133111729D02*
X101006800Y-133508800D01*
X97230400Y-136168800D02*
X97230400Y-133508800D01*
X96280400Y-136168800D02*
X96280400Y-142168800D01*
X95520400Y-142168800D02*
X95520400Y-136168800D01*
X92980400Y-130571729D02*
X92980400Y-131025871D01*
X92090400Y-133508800D02*
X92090400Y-136168800D01*
X86950400Y-133508800D02*
X86950400Y-136168800D01*
X89550400Y-133508800D02*
X89550400Y-136168800D01*
X96100400Y-136168800D02*
X96100400Y-142168800D01*
X95900400Y-128258800D02*
X97170400Y-128258800D01*
X90440400Y-133111729D02*
X90440400Y-133508800D01*
X88660400Y-130571729D02*
X88660400Y-131025871D01*
X92980400Y-133111729D02*
X92980400Y-133508800D01*
X90440400Y-130571729D02*
X90440400Y-131025871D01*
X87900400Y-142168800D02*
X87900400Y-136168800D01*
X91200400Y-136168800D02*
X91200400Y-142168800D01*
X86950400Y-136168800D02*
X97230400Y-136168800D01*
X95740400Y-136168800D02*
X95740400Y-142168800D01*
X96280400Y-130638800D02*
X96280400Y-131025871D01*
X88660400Y-136168800D02*
X88660400Y-142168800D01*
X95860400Y-136168800D02*
X95860400Y-142168800D01*
X93740400Y-136168800D02*
X93740400Y-142168800D01*
X93740400Y-130571729D02*
X93740400Y-131025871D01*
X95520400Y-133111729D02*
X95520400Y-133508800D01*
X97170400Y-128258800D02*
X97170400Y-129528800D01*
X95620400Y-136168800D02*
X95620400Y-142168800D01*
X87900400Y-130571729D02*
X87900400Y-131025871D01*
X91200400Y-133111729D02*
X91200400Y-133508800D01*
X94630400Y-133508800D02*
X94630400Y-136168800D01*
X93740400Y-133111729D02*
X93740400Y-133508800D01*
X93740400Y-142168800D02*
X92980400Y-142168800D01*
X96220400Y-136168800D02*
X96220400Y-142168800D01*
X95520400Y-130638800D02*
X95520400Y-131025871D01*
X92980400Y-142168800D02*
X92980400Y-136168800D01*
X88660400Y-133111729D02*
X88660400Y-133508800D01*
X91200400Y-130571729D02*
X91200400Y-131025871D01*
X97230400Y-133508800D02*
X86950400Y-133508800D01*
X91200400Y-142168800D02*
X90440400Y-142168800D01*
X96280400Y-133111729D02*
X96280400Y-133508800D01*
X88660400Y-142168800D02*
X87900400Y-142168800D01*
X95980400Y-136168800D02*
X95980400Y-142168800D01*
X90440400Y-142168800D02*
X90440400Y-136168800D01*
X96280400Y-142168800D02*
X95520400Y-142168800D01*
X87900400Y-133111729D02*
X87900400Y-133508800D01*
X115196251Y-122672801D02*
X114673747Y-122672801D01*
X115196251Y-124142801D02*
X114673747Y-124142801D01*
X115196251Y-126160200D02*
X114673747Y-126160200D01*
X115196251Y-124690200D02*
X114673747Y-124690200D01*
X103532000Y-115465549D02*
X103532000Y-115988053D01*
X105002000Y-115465549D02*
X105002000Y-115988053D01*
X86412400Y-115272549D02*
X86412400Y-115795053D01*
X87882400Y-115272549D02*
X87882400Y-115795053D01*
X97924252Y-122799800D02*
X97401748Y-122799800D01*
X97924252Y-124269800D02*
X97401748Y-124269800D01*
X97924252Y-124791800D02*
X97401748Y-124791800D01*
X97924252Y-126261800D02*
X97401748Y-126261800D01*
X106788852Y-108942200D02*
X106266348Y-108942200D01*
X106788852Y-110412200D02*
X106266348Y-110412200D01*
X115035000Y-119986053D02*
X115035000Y-119463549D01*
X113565000Y-119986053D02*
X113565000Y-119463549D01*
X113003000Y-115922053D02*
X113003000Y-115399549D01*
X111533000Y-115922053D02*
X111533000Y-115399549D01*
X95858000Y-115795053D02*
X95858000Y-115272549D01*
X94388000Y-115795053D02*
X94388000Y-115272549D01*
X97889999Y-119986053D02*
X97889999Y-119463549D01*
X96419999Y-119986053D02*
X96419999Y-119463549D01*
D10*
X107897000Y-115654800D02*
X107897000Y-114904800D01*
X107897000Y-114904800D02*
X110797000Y-114904800D01*
X110797000Y-114904800D02*
X110797000Y-115654800D01*
X110797000Y-115654800D02*
X107897000Y-115654800D01*
X107797000Y-117154800D02*
X107797000Y-116004800D01*
X90726600Y-115527800D02*
X90726600Y-114777800D01*
X90726600Y-114777800D02*
X93626600Y-114777800D01*
X93626600Y-114777800D02*
X93626600Y-115527800D01*
X93626600Y-115527800D02*
X90726600Y-115527800D01*
X90626600Y-117027800D02*
X90626600Y-115877800D01*
D12*
X104719000Y-121740801D02*
X104719000Y-118880801D01*
X102799000Y-118880801D02*
X102799000Y-121740801D01*
X104719000Y-118880801D02*
X102799000Y-118880801D01*
X115851000Y-120078864D02*
X115851000Y-119624736D01*
X117321000Y-120078864D02*
X117321000Y-119624736D01*
X85879000Y-124904864D02*
X85879000Y-124450736D01*
X87349000Y-124904864D02*
X87349000Y-124450736D01*
X100302999Y-119824865D02*
X100302999Y-119370737D01*
X98832999Y-119824865D02*
X98832999Y-119370737D01*
X109517464Y-104783200D02*
X105163336Y-104783200D01*
X109517464Y-101363200D02*
X105163336Y-101363200D01*
X115162000Y-115306737D02*
X115162000Y-115760865D01*
X113692000Y-115306737D02*
X113692000Y-115760865D01*
X109517464Y-100871600D02*
X105163336Y-100871600D01*
X109517464Y-97451600D02*
X105163336Y-97451600D01*
X104493999Y-124904865D02*
X104493999Y-124450737D01*
X103023999Y-124904865D02*
X103023999Y-124450737D01*
X115851000Y-115760864D02*
X115851000Y-115306736D01*
X117321000Y-115760864D02*
X117321000Y-115306736D01*
X87574000Y-121904000D02*
X87574000Y-119044000D01*
X85654000Y-119044000D02*
X85654000Y-121904000D01*
X87574000Y-119044000D02*
X85654000Y-119044000D01*
X95431000Y-121464801D02*
X95431000Y-123064801D01*
X88211000Y-121464801D02*
X88211000Y-123064801D01*
X106578400Y-108443200D02*
X108378400Y-108443200D01*
X106578400Y-108443200D02*
X105778400Y-108443200D01*
X106578400Y-105323200D02*
X107378400Y-105323200D01*
X106578400Y-105323200D02*
X105778400Y-105323200D01*
X98017000Y-115179737D02*
X98017000Y-115633865D01*
X96547000Y-115179737D02*
X96547000Y-115633865D01*
X90015999Y-115179737D02*
X90015999Y-115633865D01*
X88545999Y-115179737D02*
X88545999Y-115633865D01*
X107160998Y-115322737D02*
X107160998Y-115776865D01*
X105690998Y-115322737D02*
X105690998Y-115776865D01*
X100303000Y-115633865D02*
X100303000Y-115179737D01*
X98833000Y-115633865D02*
X98833000Y-115179737D01*
X112576000Y-121464800D02*
X112576000Y-123064800D01*
X105356000Y-121464800D02*
X105356000Y-123064800D01*
%LPC*%
D13*
X83058000Y-109791200D03*
X83058000Y-104991200D03*
X114858800Y-105296000D03*
X114858800Y-110096000D03*
D14*
X83780400Y-124699000D03*
D15*
X81240400Y-124699000D03*
X83780400Y-122159000D03*
X81240400Y-122159000D03*
X83780400Y-119619000D03*
X81240400Y-119619000D03*
D14*
X109006800Y-129528800D03*
D15*
X109006800Y-132068800D03*
X106466800Y-129528800D03*
X106466800Y-132068800D03*
X103926800Y-129528800D03*
X103926800Y-132068800D03*
X101386800Y-129528800D03*
X101386800Y-132068800D03*
D14*
X95900400Y-129528800D03*
D15*
X95900400Y-132068800D03*
X93360400Y-129528800D03*
X93360400Y-132068800D03*
X90820400Y-129528800D03*
X90820400Y-132068800D03*
X88280400Y-129528800D03*
X88280400Y-132068800D03*
D16*
X100789600Y-89086000D03*
X113789600Y-89086000D03*
D17*
X103789600Y-94086000D03*
X107289600Y-94086000D03*
X110789600Y-94086000D03*
D16*
X83827600Y-89081600D03*
X96827600Y-89081600D03*
D17*
X86827600Y-94081600D03*
X90327600Y-94081600D03*
X93827600Y-94081600D03*
D18*
X115884999Y-123407801D03*
X113984999Y-123407801D03*
X113984999Y-125425200D03*
X115884999Y-125425200D03*
D19*
X104267000Y-114776801D03*
X104267000Y-116676801D03*
X87147400Y-114583801D03*
X87147400Y-116483801D03*
D18*
X98613000Y-123534800D03*
X96713000Y-123534800D03*
X98613000Y-125526800D03*
X96713000Y-125526800D03*
X107477600Y-109677200D03*
X105577600Y-109677200D03*
D20*
X114300000Y-120674801D03*
X114300000Y-118774801D03*
X112268000Y-116610801D03*
X112268000Y-114710801D03*
X95123000Y-116483801D03*
X95123000Y-114583801D03*
X97154999Y-120674801D03*
X97154999Y-118774801D03*
D21*
X108372000Y-116579800D03*
X109022000Y-116579800D03*
X109672000Y-116579800D03*
X110322000Y-116579800D03*
X110322000Y-113979800D03*
X109672000Y-113979800D03*
X109022000Y-113979800D03*
X108372000Y-113979800D03*
X91201600Y-116452800D03*
X91851600Y-116452800D03*
X92501600Y-116452800D03*
X93151600Y-116452800D03*
X93151600Y-113852800D03*
X92501600Y-113852800D03*
X91851600Y-113852800D03*
X91201600Y-113852800D03*
D22*
X103759000Y-121765801D03*
X103759000Y-119715801D03*
D23*
X116586000Y-120851800D03*
X116586000Y-118851800D03*
X86614000Y-125677800D03*
X86614000Y-123677800D03*
X99567999Y-118597801D03*
X99567999Y-120597801D03*
D24*
X110390400Y-103073200D03*
X104290400Y-103073200D03*
D25*
X114427000Y-114533801D03*
X114427000Y-116533801D03*
D24*
X110390400Y-99161600D03*
X104290400Y-99161600D03*
D23*
X103758999Y-123677801D03*
X103758999Y-125677801D03*
X116586000Y-116533800D03*
X116586000Y-114533800D03*
D22*
X86614000Y-121929000D03*
X86614000Y-119879000D03*
D26*
X91821000Y-119764801D03*
X91821000Y-124764801D03*
D27*
X107715900Y-107833200D03*
X107715900Y-106883200D03*
X107715900Y-105933200D03*
X105440900Y-105933200D03*
X105440900Y-107833200D03*
D25*
X97282000Y-114406801D03*
X97282000Y-116406801D03*
X89280999Y-114406801D03*
X89280999Y-116406801D03*
X106425998Y-114549801D03*
X106425998Y-116549801D03*
D23*
X99568000Y-114406801D03*
X99568000Y-116406801D03*
D26*
X108966000Y-119764800D03*
X108966000Y-124764800D03*
M02*
