G04 #@! TF.GenerationSoftware,KiCad,Pcbnew,7.0.1*
G04 #@! TF.CreationDate,2023-08-31T02:32:27+03:00*
G04 #@! TF.ProjectId,miranda-pdb,6d697261-6e64-4612-9d70-64622e6b6963,rev?*
G04 #@! TF.SameCoordinates,Original*
G04 #@! TF.FileFunction,Copper,L2,Bot*
G04 #@! TF.FilePolarity,Positive*
%FSLAX46Y46*%
G04 Gerber Fmt 4.6, Leading zero omitted, Abs format (unit mm)*
G04 Created by KiCad (PCBNEW 7.0.1) date 2023-08-31 02:32:27*
%MOMM*%
%LPD*%
G01*
G04 APERTURE LIST*
G04 Aperture macros list*
%AMRoundRect*
0 Rectangle with rounded corners*
0 $1 Rounding radius*
0 $2 $3 $4 $5 $6 $7 $8 $9 X,Y pos of 4 corners*
0 Add a 4 corners polygon primitive as box body*
4,1,4,$2,$3,$4,$5,$6,$7,$8,$9,$2,$3,0*
0 Add four circle primitives for the rounded corners*
1,1,$1+$1,$2,$3*
1,1,$1+$1,$4,$5*
1,1,$1+$1,$6,$7*
1,1,$1+$1,$8,$9*
0 Add four rect primitives between the rounded corners*
20,1,$1+$1,$2,$3,$4,$5,0*
20,1,$1+$1,$4,$5,$6,$7,0*
20,1,$1+$1,$6,$7,$8,$9,0*
20,1,$1+$1,$8,$9,$2,$3,0*%
G04 Aperture macros list end*
G04 #@! TA.AperFunction,ComponentPad*
%ADD10R,1.700000X1.700000*%
G04 #@! TD*
G04 #@! TA.AperFunction,ComponentPad*
%ADD11O,1.700000X1.700000*%
G04 #@! TD*
G04 #@! TA.AperFunction,ComponentPad*
%ADD12C,2.000000*%
G04 #@! TD*
G04 #@! TA.AperFunction,ComponentPad*
%ADD13C,3.000000*%
G04 #@! TD*
G04 #@! TA.AperFunction,SMDPad,CuDef*
%ADD14RoundRect,0.250000X0.450000X-0.350000X0.450000X0.350000X-0.450000X0.350000X-0.450000X-0.350000X0*%
G04 #@! TD*
G04 #@! TA.AperFunction,SMDPad,CuDef*
%ADD15RoundRect,0.250000X-0.450000X0.350000X-0.450000X-0.350000X0.450000X-0.350000X0.450000X0.350000X0*%
G04 #@! TD*
G04 #@! TA.AperFunction,ViaPad*
%ADD16C,0.650000*%
G04 #@! TD*
G04 #@! TA.AperFunction,Conductor*
%ADD17C,0.250000*%
G04 #@! TD*
G04 APERTURE END LIST*
D10*
X83780400Y-124699000D03*
D11*
X81240400Y-124699000D03*
X83780400Y-122159000D03*
X81240400Y-122159000D03*
X83780400Y-119619000D03*
X81240400Y-119619000D03*
D10*
X109006800Y-129528800D03*
D11*
X109006800Y-132068800D03*
X106466800Y-129528800D03*
X106466800Y-132068800D03*
X103926800Y-129528800D03*
X103926800Y-132068800D03*
X101386800Y-129528800D03*
X101386800Y-132068800D03*
D10*
X95900400Y-129528800D03*
D11*
X95900400Y-132068800D03*
X93360400Y-129528800D03*
X93360400Y-132068800D03*
X90820400Y-129528800D03*
X90820400Y-132068800D03*
X88280400Y-129528800D03*
X88280400Y-132068800D03*
D12*
X100789600Y-89086000D03*
X113789600Y-89086000D03*
D13*
X103789600Y-94086000D03*
X107289600Y-94086000D03*
X110789600Y-94086000D03*
D12*
X83827600Y-89081600D03*
X96827600Y-89081600D03*
D13*
X86827600Y-94081600D03*
X90327600Y-94081600D03*
X93827600Y-94081600D03*
D14*
X89280999Y-116406801D03*
X89280999Y-114406801D03*
D15*
X106451399Y-114483001D03*
X106451399Y-116483001D03*
X97307400Y-116397400D03*
X97307400Y-114397400D03*
X114427000Y-114483001D03*
X114427000Y-116483001D03*
D16*
X87934800Y-109474000D03*
X87934800Y-108610400D03*
X86817200Y-108610399D03*
X86817200Y-110337600D03*
X87934800Y-110337600D03*
X86817200Y-109474000D03*
X87934800Y-111201200D03*
X86817200Y-111201201D03*
X109982000Y-111252000D03*
X111099600Y-111252000D03*
X109982000Y-110388400D03*
X111099600Y-110388400D03*
X109982000Y-109524800D03*
X111099600Y-109524800D03*
X111099600Y-108661200D03*
X109982000Y-108661200D03*
X102412800Y-119938800D03*
X98094800Y-108762800D03*
X96570800Y-95504000D03*
X108813600Y-109016800D03*
X116941600Y-123190000D03*
X116941600Y-125831600D03*
X116941600Y-124510800D03*
X99771200Y-123291600D03*
X99771200Y-124612400D03*
X99771200Y-125933200D03*
X100482400Y-104190800D03*
X101346000Y-103378000D03*
X100431600Y-102514400D03*
X101295200Y-101904800D03*
X100431600Y-101041200D03*
X101346000Y-100330000D03*
X100431600Y-99517200D03*
X101396800Y-98704400D03*
X100431600Y-97993200D03*
X86258400Y-118618000D03*
X104495600Y-117754400D03*
X105511600Y-117754400D03*
X106476800Y-117754400D03*
X107442000Y-117754400D03*
X108305600Y-117754400D03*
X90932000Y-117602000D03*
X89966800Y-117602000D03*
X89052400Y-117551200D03*
X88138000Y-117551200D03*
X87223600Y-117551200D03*
X105181400Y-113908201D03*
X105943401Y-113349400D03*
X112953799Y-117616601D03*
X111887000Y-117616601D03*
X109042200Y-115178200D03*
X94716600Y-117565800D03*
X87350600Y-113197001D03*
X88823799Y-113197001D03*
X95783400Y-117565801D03*
X92024199Y-115127401D03*
X90297000Y-113044601D03*
X97815401Y-117515001D03*
X107518199Y-113095401D03*
X116586000Y-117718200D03*
X116408200Y-113349401D03*
X98424999Y-115432201D03*
D17*
X82597000Y-123342400D02*
X81240400Y-124699000D01*
X84683600Y-123342400D02*
X82597000Y-123342400D01*
X85191600Y-108305600D02*
X85191600Y-122834400D01*
X86156800Y-107340400D02*
X85191600Y-108305600D01*
X85191600Y-122834400D02*
X84683600Y-123342400D01*
X89916000Y-108712000D02*
X88544400Y-107340400D01*
X98044000Y-108712000D02*
X89916000Y-108712000D01*
X98094800Y-108762800D02*
X98044000Y-108712000D01*
X88544400Y-107340400D02*
X86156800Y-107340400D01*
X97307400Y-117007000D02*
X97307399Y-116397401D01*
X97815401Y-117515001D02*
X97307400Y-117007000D01*
X82448400Y-120951000D02*
X81240400Y-122159000D01*
X82448400Y-108813600D02*
X82448400Y-120951000D01*
X95758000Y-95504000D02*
X82448400Y-108813600D01*
X96570800Y-95504000D02*
X95758000Y-95504000D01*
X90327600Y-99105600D02*
X90327600Y-94081600D01*
X81240400Y-108192800D02*
X90327600Y-99105600D01*
X81240400Y-119619000D02*
X81240400Y-108192800D01*
X109042200Y-115178200D02*
X107146600Y-115178200D01*
X107146600Y-115178200D02*
X106451399Y-114482999D01*
X95852999Y-112943001D02*
X97307399Y-114397401D01*
X90398600Y-112943001D02*
X95852999Y-112943001D01*
X90297000Y-113044601D02*
X90398600Y-112943001D01*
X92024199Y-115127401D02*
X90001600Y-115127401D01*
X90001600Y-115127401D02*
X89281000Y-114406800D01*
X113090199Y-113146201D02*
X114427000Y-114483001D01*
X107568999Y-113146201D02*
X113090199Y-113146201D01*
X107518199Y-113095401D02*
X107568999Y-113146201D01*
X114731799Y-117718201D02*
X114427000Y-117413401D01*
X116586000Y-117718200D02*
X114731799Y-117718201D01*
X114427000Y-117413401D02*
X114427000Y-116483001D01*
G04 #@! TA.AperFunction,Conductor*
G36*
X114200211Y-87778188D02*
G01*
X114563673Y-87796044D01*
X114570871Y-87796753D01*
X114929029Y-87849882D01*
X114936151Y-87851299D01*
X115287356Y-87939271D01*
X115294306Y-87941379D01*
X115375077Y-87970279D01*
X115635210Y-88063355D01*
X115641912Y-88066131D01*
X115969218Y-88220936D01*
X115975608Y-88224351D01*
X116249966Y-88388794D01*
X116286174Y-88410497D01*
X116292212Y-88414532D01*
X116583029Y-88630217D01*
X116588628Y-88634813D01*
X116856902Y-88877962D01*
X116862037Y-88883097D01*
X117105181Y-89151364D01*
X117109788Y-89156977D01*
X117325467Y-89447787D01*
X117329502Y-89453825D01*
X117515644Y-89764383D01*
X117519067Y-89770788D01*
X117673866Y-90098084D01*
X117676645Y-90104793D01*
X117798620Y-90445693D01*
X117800728Y-90452643D01*
X117888700Y-90803848D01*
X117890117Y-90810970D01*
X117943244Y-91169113D01*
X117943956Y-91176340D01*
X117961811Y-91539788D01*
X117961900Y-91543419D01*
X117961900Y-129538181D01*
X117961811Y-129541812D01*
X117943956Y-129905259D01*
X117943244Y-129912486D01*
X117890117Y-130270629D01*
X117888700Y-130277751D01*
X117800728Y-130628956D01*
X117798620Y-130635906D01*
X117676645Y-130976806D01*
X117673866Y-130983515D01*
X117519067Y-131310811D01*
X117515644Y-131317216D01*
X117329502Y-131627774D01*
X117325467Y-131633812D01*
X117109788Y-131924622D01*
X117105181Y-131930235D01*
X116862037Y-132198502D01*
X116856902Y-132203637D01*
X116588635Y-132446781D01*
X116583022Y-132451388D01*
X116292212Y-132667067D01*
X116286174Y-132671102D01*
X115975616Y-132857244D01*
X115969211Y-132860667D01*
X115641915Y-133015466D01*
X115635206Y-133018245D01*
X115294306Y-133140220D01*
X115287356Y-133142328D01*
X114936151Y-133230300D01*
X114929029Y-133231717D01*
X114570886Y-133284844D01*
X114563659Y-133285556D01*
X114200212Y-133303411D01*
X114196581Y-133303500D01*
X83669419Y-133303500D01*
X83665788Y-133303411D01*
X83302340Y-133285556D01*
X83295113Y-133284844D01*
X82936970Y-133231717D01*
X82929848Y-133230300D01*
X82578643Y-133142328D01*
X82571693Y-133140220D01*
X82230793Y-133018245D01*
X82224084Y-133015466D01*
X81896788Y-132860667D01*
X81890383Y-132857244D01*
X81579825Y-132671102D01*
X81573787Y-132667067D01*
X81282977Y-132451388D01*
X81277364Y-132446781D01*
X81009097Y-132203637D01*
X81003962Y-132198502D01*
X80832364Y-132009173D01*
X80760813Y-131930228D01*
X80756217Y-131924629D01*
X80540532Y-131633812D01*
X80536497Y-131627774D01*
X80410303Y-131417233D01*
X80350351Y-131317208D01*
X80346932Y-131310811D01*
X80344087Y-131304796D01*
X80192131Y-130983512D01*
X80189354Y-130976806D01*
X80158473Y-130890500D01*
X80067379Y-130635906D01*
X80065271Y-130628956D01*
X79977299Y-130277751D01*
X79975882Y-130270629D01*
X79922753Y-129912471D01*
X79922044Y-129905273D01*
X79904188Y-129541811D01*
X79904144Y-129540000D01*
X81736514Y-129540000D01*
X81756428Y-129818432D01*
X81815766Y-130091207D01*
X81913319Y-130352755D01*
X82047097Y-130597752D01*
X82047100Y-130597756D01*
X82214387Y-130821225D01*
X82411775Y-131018613D01*
X82635244Y-131185900D01*
X82635247Y-131185902D01*
X82880244Y-131319680D01*
X82880247Y-131319681D01*
X83141794Y-131417234D01*
X83414563Y-131476571D01*
X83693000Y-131496485D01*
X83971437Y-131476571D01*
X84244206Y-131417234D01*
X84505753Y-131319681D01*
X84750756Y-131185900D01*
X84974225Y-131018613D01*
X85171613Y-130821225D01*
X85338900Y-130597756D01*
X85472681Y-130352753D01*
X85570234Y-130091206D01*
X85629571Y-129818437D01*
X85649485Y-129540000D01*
X85648684Y-129528800D01*
X87275059Y-129528800D01*
X87294376Y-129724932D01*
X87351586Y-129913528D01*
X87398037Y-130000432D01*
X87444490Y-130087338D01*
X87569517Y-130239683D01*
X87721862Y-130364710D01*
X87895673Y-130457614D01*
X88084268Y-130514824D01*
X88280400Y-130534141D01*
X88476532Y-130514824D01*
X88665127Y-130457614D01*
X88838938Y-130364710D01*
X88991283Y-130239683D01*
X89116310Y-130087338D01*
X89209214Y-129913527D01*
X89266424Y-129724932D01*
X89285741Y-129528800D01*
X89815059Y-129528800D01*
X89834376Y-129724932D01*
X89891586Y-129913528D01*
X89938037Y-130000432D01*
X89984490Y-130087338D01*
X90109517Y-130239683D01*
X90261862Y-130364710D01*
X90435673Y-130457614D01*
X90624268Y-130514824D01*
X90820400Y-130534141D01*
X91016532Y-130514824D01*
X91205127Y-130457614D01*
X91378938Y-130364710D01*
X91531283Y-130239683D01*
X91656310Y-130087338D01*
X91749214Y-129913527D01*
X91806424Y-129724932D01*
X91825741Y-129528800D01*
X92355059Y-129528800D01*
X92374376Y-129724932D01*
X92431586Y-129913528D01*
X92478037Y-130000432D01*
X92524490Y-130087338D01*
X92649517Y-130239683D01*
X92801862Y-130364710D01*
X92975673Y-130457614D01*
X93164268Y-130514824D01*
X93360400Y-130534141D01*
X93556532Y-130514824D01*
X93745127Y-130457614D01*
X93864851Y-130393620D01*
X94899900Y-130393620D01*
X94908633Y-130437522D01*
X94941896Y-130487304D01*
X94991678Y-130520567D01*
X95035580Y-130529300D01*
X96765219Y-130529300D01*
X96765220Y-130529300D01*
X96809122Y-130520567D01*
X96858904Y-130487304D01*
X96892167Y-130437522D01*
X96900900Y-130393620D01*
X96900900Y-129528800D01*
X100381459Y-129528800D01*
X100400776Y-129724932D01*
X100457986Y-129913528D01*
X100504437Y-130000432D01*
X100550890Y-130087338D01*
X100675917Y-130239683D01*
X100828262Y-130364710D01*
X101002073Y-130457614D01*
X101190668Y-130514824D01*
X101386800Y-130534141D01*
X101582932Y-130514824D01*
X101771527Y-130457614D01*
X101945338Y-130364710D01*
X102097683Y-130239683D01*
X102222710Y-130087338D01*
X102315614Y-129913527D01*
X102372824Y-129724932D01*
X102392141Y-129528800D01*
X102921459Y-129528800D01*
X102940776Y-129724932D01*
X102997986Y-129913528D01*
X103044437Y-130000432D01*
X103090890Y-130087338D01*
X103215917Y-130239683D01*
X103368262Y-130364710D01*
X103542073Y-130457614D01*
X103730668Y-130514824D01*
X103926800Y-130534141D01*
X104122932Y-130514824D01*
X104311527Y-130457614D01*
X104485338Y-130364710D01*
X104637683Y-130239683D01*
X104762710Y-130087338D01*
X104855614Y-129913527D01*
X104912824Y-129724932D01*
X104932141Y-129528800D01*
X105461459Y-129528800D01*
X105480776Y-129724932D01*
X105537986Y-129913528D01*
X105584437Y-130000432D01*
X105630890Y-130087338D01*
X105755917Y-130239683D01*
X105908262Y-130364710D01*
X106082073Y-130457614D01*
X106270668Y-130514824D01*
X106466800Y-130534141D01*
X106662932Y-130514824D01*
X106851527Y-130457614D01*
X106971251Y-130393620D01*
X108006300Y-130393620D01*
X108015033Y-130437522D01*
X108048296Y-130487304D01*
X108098078Y-130520567D01*
X108141980Y-130529300D01*
X109871619Y-130529300D01*
X109871620Y-130529300D01*
X109915522Y-130520567D01*
X109965304Y-130487304D01*
X109998567Y-130437522D01*
X110007300Y-130393620D01*
X110007300Y-129540000D01*
X112216514Y-129540000D01*
X112236428Y-129818432D01*
X112295766Y-130091207D01*
X112393319Y-130352755D01*
X112527097Y-130597752D01*
X112527100Y-130597756D01*
X112694387Y-130821225D01*
X112891775Y-131018613D01*
X113115244Y-131185900D01*
X113115247Y-131185902D01*
X113360244Y-131319680D01*
X113360247Y-131319681D01*
X113621794Y-131417234D01*
X113894563Y-131476571D01*
X114173000Y-131496485D01*
X114451437Y-131476571D01*
X114724206Y-131417234D01*
X114985753Y-131319681D01*
X115230756Y-131185900D01*
X115454225Y-131018613D01*
X115651613Y-130821225D01*
X115818900Y-130597756D01*
X115952681Y-130352753D01*
X116050234Y-130091206D01*
X116109571Y-129818437D01*
X116129485Y-129540000D01*
X116109571Y-129261563D01*
X116050234Y-128988794D01*
X115952681Y-128727247D01*
X115952680Y-128727244D01*
X115818902Y-128482247D01*
X115735199Y-128370433D01*
X115651613Y-128258775D01*
X115454225Y-128061387D01*
X115230756Y-127894100D01*
X115230752Y-127894097D01*
X114985755Y-127760319D01*
X114724207Y-127662766D01*
X114451432Y-127603428D01*
X114173000Y-127583514D01*
X113894567Y-127603428D01*
X113621792Y-127662766D01*
X113360244Y-127760319D01*
X113115247Y-127894097D01*
X112891775Y-128061387D01*
X112694387Y-128258775D01*
X112527097Y-128482247D01*
X112393319Y-128727244D01*
X112295766Y-128988792D01*
X112236428Y-129261567D01*
X112216514Y-129540000D01*
X110007300Y-129540000D01*
X110007300Y-128663980D01*
X109998567Y-128620078D01*
X109965304Y-128570296D01*
X109915522Y-128537033D01*
X109871620Y-128528300D01*
X108141980Y-128528300D01*
X108098078Y-128537033D01*
X108048296Y-128570296D01*
X108015033Y-128620078D01*
X108006300Y-128663980D01*
X108006300Y-130393620D01*
X106971251Y-130393620D01*
X107025338Y-130364710D01*
X107177683Y-130239683D01*
X107302710Y-130087338D01*
X107395614Y-129913527D01*
X107452824Y-129724932D01*
X107472141Y-129528800D01*
X107452824Y-129332668D01*
X107395614Y-129144073D01*
X107302710Y-128970262D01*
X107177683Y-128817917D01*
X107025338Y-128692890D01*
X106938432Y-128646437D01*
X106851528Y-128599986D01*
X106662932Y-128542776D01*
X106466800Y-128523459D01*
X106270667Y-128542776D01*
X106082071Y-128599986D01*
X105908262Y-128692890D01*
X105755917Y-128817917D01*
X105630890Y-128970262D01*
X105537986Y-129144071D01*
X105480776Y-129332667D01*
X105461459Y-129528800D01*
X104932141Y-129528800D01*
X104912824Y-129332668D01*
X104855614Y-129144073D01*
X104762710Y-128970262D01*
X104637683Y-128817917D01*
X104485338Y-128692890D01*
X104398432Y-128646437D01*
X104311528Y-128599986D01*
X104122932Y-128542776D01*
X103926800Y-128523459D01*
X103730667Y-128542776D01*
X103542071Y-128599986D01*
X103368262Y-128692890D01*
X103215917Y-128817917D01*
X103090890Y-128970262D01*
X102997986Y-129144071D01*
X102940776Y-129332667D01*
X102921459Y-129528800D01*
X102392141Y-129528800D01*
X102372824Y-129332668D01*
X102315614Y-129144073D01*
X102222710Y-128970262D01*
X102097683Y-128817917D01*
X101945338Y-128692890D01*
X101858432Y-128646437D01*
X101771528Y-128599986D01*
X101582932Y-128542776D01*
X101386800Y-128523459D01*
X101190667Y-128542776D01*
X101002071Y-128599986D01*
X100828262Y-128692890D01*
X100675917Y-128817917D01*
X100550890Y-128970262D01*
X100457986Y-129144071D01*
X100400776Y-129332667D01*
X100381459Y-129528800D01*
X96900900Y-129528800D01*
X96900900Y-128663980D01*
X96892167Y-128620078D01*
X96858904Y-128570296D01*
X96809122Y-128537033D01*
X96765220Y-128528300D01*
X95035580Y-128528300D01*
X94991678Y-128537033D01*
X94941896Y-128570296D01*
X94908633Y-128620078D01*
X94899900Y-128663980D01*
X94899900Y-130393620D01*
X93864851Y-130393620D01*
X93918938Y-130364710D01*
X94071283Y-130239683D01*
X94196310Y-130087338D01*
X94289214Y-129913527D01*
X94346424Y-129724932D01*
X94365741Y-129528800D01*
X94346424Y-129332668D01*
X94289214Y-129144073D01*
X94196310Y-128970262D01*
X94071283Y-128817917D01*
X93918938Y-128692890D01*
X93832032Y-128646437D01*
X93745128Y-128599986D01*
X93556532Y-128542776D01*
X93360400Y-128523459D01*
X93164267Y-128542776D01*
X92975671Y-128599986D01*
X92801862Y-128692890D01*
X92649517Y-128817917D01*
X92524490Y-128970262D01*
X92431586Y-129144071D01*
X92374376Y-129332667D01*
X92355059Y-129528800D01*
X91825741Y-129528800D01*
X91806424Y-129332668D01*
X91749214Y-129144073D01*
X91656310Y-128970262D01*
X91531283Y-128817917D01*
X91378938Y-128692890D01*
X91292032Y-128646437D01*
X91205128Y-128599986D01*
X91016532Y-128542776D01*
X90820400Y-128523459D01*
X90624267Y-128542776D01*
X90435671Y-128599986D01*
X90261862Y-128692890D01*
X90109517Y-128817917D01*
X89984490Y-128970262D01*
X89891586Y-129144071D01*
X89834376Y-129332667D01*
X89815059Y-129528800D01*
X89285741Y-129528800D01*
X89266424Y-129332668D01*
X89209214Y-129144073D01*
X89116310Y-128970262D01*
X88991283Y-128817917D01*
X88838938Y-128692890D01*
X88752032Y-128646437D01*
X88665128Y-128599986D01*
X88476532Y-128542776D01*
X88280400Y-128523459D01*
X88084267Y-128542776D01*
X87895671Y-128599986D01*
X87721862Y-128692890D01*
X87569517Y-128817917D01*
X87444490Y-128970262D01*
X87351586Y-129144071D01*
X87294376Y-129332667D01*
X87275059Y-129528800D01*
X85648684Y-129528800D01*
X85629571Y-129261563D01*
X85570234Y-128988794D01*
X85472681Y-128727247D01*
X85472680Y-128727244D01*
X85338902Y-128482247D01*
X85255199Y-128370433D01*
X85171613Y-128258775D01*
X84974225Y-128061387D01*
X84750756Y-127894100D01*
X84750752Y-127894097D01*
X84505755Y-127760319D01*
X84244207Y-127662766D01*
X83971432Y-127603428D01*
X83693000Y-127583514D01*
X83414567Y-127603428D01*
X83141792Y-127662766D01*
X82880244Y-127760319D01*
X82635247Y-127894097D01*
X82411775Y-128061387D01*
X82214387Y-128258775D01*
X82047097Y-128482247D01*
X81913319Y-128727244D01*
X81815766Y-128988792D01*
X81756428Y-129261567D01*
X81736514Y-129540000D01*
X79904144Y-129540000D01*
X79904100Y-129538181D01*
X79904100Y-124699000D01*
X80235059Y-124699000D01*
X80254376Y-124895132D01*
X80311586Y-125083728D01*
X80358037Y-125170632D01*
X80404490Y-125257538D01*
X80529517Y-125409883D01*
X80681862Y-125534910D01*
X80855673Y-125627814D01*
X81044268Y-125685024D01*
X81240400Y-125704341D01*
X81436532Y-125685024D01*
X81625127Y-125627814D01*
X81798938Y-125534910D01*
X81951283Y-125409883D01*
X82076310Y-125257538D01*
X82169214Y-125083727D01*
X82226424Y-124895132D01*
X82245741Y-124699000D01*
X82226424Y-124502868D01*
X82169214Y-124314273D01*
X82141277Y-124262008D01*
X82133341Y-124216268D01*
X82154212Y-124174802D01*
X82689441Y-123639574D01*
X82713449Y-123623533D01*
X82741768Y-123617900D01*
X84649180Y-123617900D01*
X84663615Y-123619321D01*
X84683600Y-123623297D01*
X84710732Y-123617900D01*
X84710733Y-123617900D01*
X84791095Y-123601915D01*
X84833065Y-123573871D01*
X84859222Y-123556394D01*
X84859222Y-123556392D01*
X84867237Y-123551038D01*
X84867239Y-123551036D01*
X84882224Y-123541024D01*
X84893548Y-123524076D01*
X84902741Y-123512874D01*
X85362073Y-123053541D01*
X85373281Y-123044344D01*
X85390224Y-123033024D01*
X85415692Y-122994910D01*
X85451115Y-122941895D01*
X85451114Y-122941895D01*
X85458494Y-122930850D01*
X85456280Y-122915924D01*
X85468522Y-122854384D01*
X85468522Y-122854379D01*
X85472496Y-122834399D01*
X85468522Y-122814421D01*
X85467100Y-122799984D01*
X85467100Y-113044601D01*
X89816610Y-113044601D01*
X89836068Y-113179942D01*
X89892870Y-113304320D01*
X89982410Y-113407656D01*
X90013031Y-113427334D01*
X90097439Y-113481579D01*
X90141170Y-113494419D01*
X90228631Y-113520101D01*
X90228633Y-113520101D01*
X90365367Y-113520101D01*
X90365369Y-113520101D01*
X90430964Y-113500839D01*
X90496561Y-113481579D01*
X90611589Y-113407656D01*
X90701130Y-113304319D01*
X90720566Y-113261759D01*
X90747872Y-113230248D01*
X90787879Y-113218501D01*
X95708231Y-113218501D01*
X95736550Y-113224134D01*
X95760557Y-113240175D01*
X96441089Y-113920707D01*
X96459141Y-113950165D01*
X96461852Y-113984607D01*
X96456900Y-114015878D01*
X96456900Y-114778918D01*
X96471753Y-114872703D01*
X96527194Y-114981512D01*
X96529350Y-114985742D01*
X96619058Y-115075450D01*
X96732096Y-115133046D01*
X96825881Y-115147900D01*
X97788918Y-115147899D01*
X97882704Y-115133046D01*
X97995742Y-115075450D01*
X98085450Y-114985742D01*
X98143046Y-114872704D01*
X98157900Y-114778919D01*
X98157899Y-114015882D01*
X98157898Y-114015878D01*
X98143046Y-113922096D01*
X98129067Y-113894661D01*
X98085450Y-113809058D01*
X97995742Y-113719350D01*
X97995739Y-113719348D01*
X97882705Y-113661754D01*
X97788919Y-113646900D01*
X96977166Y-113646900D01*
X96948847Y-113641267D01*
X96924840Y-113625226D01*
X96072144Y-112772530D01*
X96062941Y-112761316D01*
X96051623Y-112744377D01*
X96034678Y-112733054D01*
X96034673Y-112733050D01*
X96002464Y-112711529D01*
X95960493Y-112683485D01*
X95872986Y-112666079D01*
X95872982Y-112666079D01*
X95852999Y-112662104D01*
X95833014Y-112666079D01*
X95818579Y-112667501D01*
X90611462Y-112667501D01*
X90571455Y-112655754D01*
X90496559Y-112607622D01*
X90365369Y-112569101D01*
X90365367Y-112569101D01*
X90228633Y-112569101D01*
X90228631Y-112569101D01*
X90097440Y-112607622D01*
X89982410Y-112681545D01*
X89892870Y-112784881D01*
X89836068Y-112909259D01*
X89816610Y-113044601D01*
X85467100Y-113044601D01*
X85467100Y-108450368D01*
X85472733Y-108422049D01*
X85488774Y-108398042D01*
X86249242Y-107637574D01*
X86273249Y-107621533D01*
X86301568Y-107615900D01*
X88399632Y-107615900D01*
X88427951Y-107621533D01*
X88451958Y-107637574D01*
X89696854Y-108882470D01*
X89706052Y-108893677D01*
X89717376Y-108910624D01*
X89731487Y-108920053D01*
X89734316Y-108921943D01*
X89734318Y-108921945D01*
X89740378Y-108925994D01*
X89808505Y-108971515D01*
X89896016Y-108988922D01*
X89915999Y-108992897D01*
X89915999Y-108992896D01*
X89916000Y-108992897D01*
X89935984Y-108988921D01*
X89950420Y-108987500D01*
X97627121Y-108987500D01*
X97667133Y-108999250D01*
X97681773Y-109016149D01*
X97683703Y-109014478D01*
X97780210Y-109125855D01*
X97837725Y-109162816D01*
X97895239Y-109199778D01*
X97938970Y-109212618D01*
X98026431Y-109238300D01*
X98026433Y-109238300D01*
X98163167Y-109238300D01*
X98163169Y-109238300D01*
X98228763Y-109219039D01*
X98294361Y-109199778D01*
X98409389Y-109125855D01*
X98498930Y-109022518D01*
X98555731Y-108898142D01*
X98575190Y-108762800D01*
X98555731Y-108627458D01*
X98498930Y-108503082D01*
X98498929Y-108503081D01*
X98498929Y-108503080D01*
X98409389Y-108399744D01*
X98294359Y-108325821D01*
X98163169Y-108287300D01*
X98163167Y-108287300D01*
X98026433Y-108287300D01*
X98026431Y-108287300D01*
X97895240Y-108325821D01*
X97780211Y-108399744D01*
X97770494Y-108410959D01*
X97745309Y-108429813D01*
X97714568Y-108436500D01*
X90060768Y-108436500D01*
X90032449Y-108430867D01*
X90008442Y-108414826D01*
X88763545Y-107169929D01*
X88754342Y-107158715D01*
X88743024Y-107141776D01*
X88726079Y-107130453D01*
X88726074Y-107130449D01*
X88693865Y-107108928D01*
X88651894Y-107080884D01*
X88564387Y-107063478D01*
X88564383Y-107063478D01*
X88544400Y-107059503D01*
X88524415Y-107063478D01*
X88509980Y-107064900D01*
X86191220Y-107064900D01*
X86176784Y-107063478D01*
X86156800Y-107059503D01*
X86136817Y-107063478D01*
X86136812Y-107063478D01*
X86049303Y-107080884D01*
X86007334Y-107108927D01*
X86007333Y-107108927D01*
X86007334Y-107108928D01*
X85981178Y-107126406D01*
X85981177Y-107126406D01*
X85958175Y-107141775D01*
X85946854Y-107158718D01*
X85937653Y-107169929D01*
X85021129Y-108086453D01*
X85009919Y-108095653D01*
X84992976Y-108106975D01*
X84936133Y-108192045D01*
X84926932Y-108203257D01*
X84926123Y-108204065D01*
X84927705Y-108220124D01*
X84910702Y-108305599D01*
X84914678Y-108325582D01*
X84916100Y-108340020D01*
X84916100Y-122689632D01*
X84910467Y-122717951D01*
X84894426Y-122741958D01*
X84591158Y-123045226D01*
X84567151Y-123061267D01*
X84538832Y-123066900D01*
X82631420Y-123066900D01*
X82616984Y-123065478D01*
X82597000Y-123061503D01*
X82577017Y-123065478D01*
X82577014Y-123065478D01*
X82489504Y-123082885D01*
X82472998Y-123093915D01*
X82472996Y-123093916D01*
X82425240Y-123125823D01*
X82425239Y-123125826D01*
X82398375Y-123143776D01*
X82387054Y-123160718D01*
X82377853Y-123171929D01*
X81764598Y-123785184D01*
X81723130Y-123806057D01*
X81677389Y-123798120D01*
X81625130Y-123770187D01*
X81436532Y-123712976D01*
X81240400Y-123693659D01*
X81044267Y-123712976D01*
X80855671Y-123770186D01*
X80681862Y-123863090D01*
X80529517Y-123988117D01*
X80404490Y-124140462D01*
X80311586Y-124314271D01*
X80254376Y-124502867D01*
X80235059Y-124699000D01*
X79904100Y-124699000D01*
X79904100Y-122159000D01*
X80235059Y-122159000D01*
X80254376Y-122355132D01*
X80311586Y-122543728D01*
X80358038Y-122630632D01*
X80404490Y-122717538D01*
X80529517Y-122869883D01*
X80681862Y-122994910D01*
X80855673Y-123087814D01*
X81044268Y-123145024D01*
X81240400Y-123164341D01*
X81436532Y-123145024D01*
X81625127Y-123087814D01*
X81798938Y-122994910D01*
X81951283Y-122869883D01*
X82076310Y-122717538D01*
X82169214Y-122543727D01*
X82226424Y-122355132D01*
X82245741Y-122159000D01*
X82226424Y-121962868D01*
X82169214Y-121774273D01*
X82141277Y-121722008D01*
X82133341Y-121676268D01*
X82154212Y-121634802D01*
X82618873Y-121170141D01*
X82630081Y-121160944D01*
X82647024Y-121149624D01*
X82707915Y-121058495D01*
X82723900Y-120978133D01*
X82723900Y-120978132D01*
X82729297Y-120951000D01*
X82725321Y-120931015D01*
X82723900Y-120916580D01*
X82723900Y-108958368D01*
X82729533Y-108930049D01*
X82745574Y-108906042D01*
X95850442Y-95801174D01*
X95874449Y-95785133D01*
X95902768Y-95779500D01*
X96146550Y-95779500D01*
X96177291Y-95786187D01*
X96202476Y-95805041D01*
X96256210Y-95867055D01*
X96313724Y-95904016D01*
X96371239Y-95940978D01*
X96412645Y-95953136D01*
X96502431Y-95979500D01*
X96502433Y-95979500D01*
X96639167Y-95979500D01*
X96639169Y-95979500D01*
X96704764Y-95960238D01*
X96770361Y-95940978D01*
X96885389Y-95867055D01*
X96974930Y-95763718D01*
X97031731Y-95639342D01*
X97051190Y-95504000D01*
X97031731Y-95368658D01*
X96974930Y-95244282D01*
X96974929Y-95244281D01*
X96974929Y-95244280D01*
X96885389Y-95140944D01*
X96770359Y-95067021D01*
X96639169Y-95028500D01*
X96639167Y-95028500D01*
X96502433Y-95028500D01*
X96502431Y-95028500D01*
X96371240Y-95067021D01*
X96256210Y-95140944D01*
X96202476Y-95202959D01*
X96177291Y-95221813D01*
X96146550Y-95228500D01*
X95792420Y-95228500D01*
X95777984Y-95227078D01*
X95758000Y-95223103D01*
X95738017Y-95227078D01*
X95738014Y-95227078D01*
X95650504Y-95244485D01*
X95638826Y-95252289D01*
X95638824Y-95252290D01*
X95586240Y-95287423D01*
X95586239Y-95287426D01*
X95559375Y-95305376D01*
X95548054Y-95322318D01*
X95538853Y-95333529D01*
X82277929Y-108594453D01*
X82266719Y-108603653D01*
X82249777Y-108614974D01*
X82188884Y-108706105D01*
X82177608Y-108762800D01*
X82177608Y-108762801D01*
X82167502Y-108813599D01*
X82171478Y-108833582D01*
X82172900Y-108848020D01*
X82172900Y-118971342D01*
X82159401Y-119013952D01*
X82123830Y-119041016D01*
X82079163Y-119042661D01*
X82041698Y-119018287D01*
X81951283Y-118908117D01*
X81798938Y-118783090D01*
X81712032Y-118736637D01*
X81625128Y-118690186D01*
X81599441Y-118682394D01*
X81568418Y-118672983D01*
X81530463Y-118646252D01*
X81515900Y-118602170D01*
X81515900Y-108337568D01*
X81521533Y-108309249D01*
X81537574Y-108285242D01*
X82763313Y-107059503D01*
X90498073Y-99324741D01*
X90509281Y-99315544D01*
X90526224Y-99304224D01*
X90553115Y-99263980D01*
X90587115Y-99213095D01*
X90595951Y-99168672D01*
X90603100Y-99132733D01*
X90603100Y-99132729D01*
X90608496Y-99105600D01*
X90604521Y-99085619D01*
X90603100Y-99071184D01*
X90603100Y-95771195D01*
X90618987Y-95725382D01*
X90659825Y-95699240D01*
X90839207Y-95656174D01*
X90839208Y-95656173D01*
X90839210Y-95656173D01*
X91079228Y-95556754D01*
X91300740Y-95421012D01*
X91498289Y-95252289D01*
X91667012Y-95054740D01*
X91802754Y-94833228D01*
X91902173Y-94593210D01*
X91962821Y-94340594D01*
X91983204Y-94081600D01*
X91962821Y-93822606D01*
X91903230Y-93574392D01*
X91902174Y-93569992D01*
X91890112Y-93540873D01*
X91802754Y-93329972D01*
X91667012Y-93108460D01*
X91656590Y-93096257D01*
X91498289Y-92910910D01*
X91300744Y-92742191D01*
X91300742Y-92742189D01*
X91300740Y-92742188D01*
X91079228Y-92606446D01*
X91079225Y-92606445D01*
X91079224Y-92606444D01*
X91072560Y-92603684D01*
X91067206Y-92601466D01*
X91030263Y-92567983D01*
X91022948Y-92518663D01*
X91048581Y-92475897D01*
X91095526Y-92459100D01*
X95764538Y-92459100D01*
X95792857Y-92464733D01*
X95816864Y-92480774D01*
X99289226Y-95953136D01*
X99305267Y-95977143D01*
X99310900Y-96005462D01*
X99310900Y-117151338D01*
X99305267Y-117179657D01*
X99289226Y-117203664D01*
X98356864Y-118136026D01*
X98332857Y-118152067D01*
X98304538Y-118157700D01*
X94837062Y-118157700D01*
X94808743Y-118152067D01*
X94784736Y-118136026D01*
X93427628Y-116778918D01*
X96456900Y-116778918D01*
X96471753Y-116872703D01*
X96521502Y-116970339D01*
X96529350Y-116985742D01*
X96619058Y-117075450D01*
X96732096Y-117133046D01*
X96825881Y-117147900D01*
X97030651Y-117147899D01*
X97065534Y-117156637D01*
X97092179Y-117180786D01*
X97108775Y-117205623D01*
X97125715Y-117216942D01*
X97136929Y-117226145D01*
X97320228Y-117409444D01*
X97338115Y-117438400D01*
X97341149Y-117472299D01*
X97335010Y-117514999D01*
X97354469Y-117650342D01*
X97411271Y-117774720D01*
X97500811Y-117878056D01*
X97558326Y-117915017D01*
X97615840Y-117951979D01*
X97659571Y-117964819D01*
X97747032Y-117990501D01*
X97747034Y-117990501D01*
X97883768Y-117990501D01*
X97883770Y-117990501D01*
X97949365Y-117971239D01*
X98014962Y-117951979D01*
X98129990Y-117878056D01*
X98219531Y-117774719D01*
X98276332Y-117650343D01*
X98295791Y-117515001D01*
X98276332Y-117379659D01*
X98219531Y-117255283D01*
X98219530Y-117255282D01*
X98219530Y-117255281D01*
X98129990Y-117151945D01*
X98078946Y-117119142D01*
X98050927Y-117086019D01*
X98046291Y-117042883D01*
X98066626Y-117004564D01*
X98085450Y-116985742D01*
X98143046Y-116872704D01*
X98157900Y-116778919D01*
X98157899Y-116015882D01*
X98156602Y-116007695D01*
X98143046Y-115922096D01*
X98129067Y-115894661D01*
X98085450Y-115809058D01*
X97995742Y-115719350D01*
X97995739Y-115719348D01*
X97882705Y-115661754D01*
X97831853Y-115653700D01*
X97788918Y-115646900D01*
X96825881Y-115646900D01*
X96732096Y-115661753D01*
X96619059Y-115719349D01*
X96529348Y-115809060D01*
X96471754Y-115922094D01*
X96456900Y-116015881D01*
X96456900Y-116778918D01*
X93427628Y-116778918D01*
X93298824Y-116650114D01*
X93275270Y-116630784D01*
X93251257Y-116614739D01*
X93195202Y-116591520D01*
X93166891Y-116585889D01*
X93166889Y-116585888D01*
X93166885Y-116585888D01*
X93136548Y-116582900D01*
X93136543Y-116582900D01*
X91179462Y-116582900D01*
X91151143Y-116577267D01*
X91127136Y-116561226D01*
X90095137Y-115529227D01*
X90074885Y-115491338D01*
X90079096Y-115448582D01*
X90106351Y-115415372D01*
X90147463Y-115402901D01*
X91599949Y-115402901D01*
X91630690Y-115409588D01*
X91655875Y-115428442D01*
X91709609Y-115490456D01*
X91744971Y-115513181D01*
X91824638Y-115564379D01*
X91868369Y-115577219D01*
X91955830Y-115602901D01*
X91955832Y-115602901D01*
X92092566Y-115602901D01*
X92092568Y-115602901D01*
X92170471Y-115580026D01*
X92223760Y-115564379D01*
X92338788Y-115490456D01*
X92428329Y-115387119D01*
X92485130Y-115262743D01*
X92504589Y-115127401D01*
X92485130Y-114992059D01*
X92428329Y-114867683D01*
X92428328Y-114867682D01*
X92428328Y-114867681D01*
X92338788Y-114764345D01*
X92223758Y-114690422D01*
X92092568Y-114651901D01*
X92092566Y-114651901D01*
X91955832Y-114651901D01*
X91955830Y-114651901D01*
X91824639Y-114690422D01*
X91709609Y-114764345D01*
X91655875Y-114826360D01*
X91630690Y-114845214D01*
X91599949Y-114851901D01*
X90205499Y-114851901D01*
X90168499Y-114841987D01*
X90141413Y-114814901D01*
X90131499Y-114777901D01*
X90131498Y-114025282D01*
X90116645Y-113931497D01*
X90097876Y-113894661D01*
X90059049Y-113818459D01*
X89969341Y-113728751D01*
X89969338Y-113728749D01*
X89856304Y-113671155D01*
X89796947Y-113661754D01*
X89762517Y-113656301D01*
X88799480Y-113656301D01*
X88705695Y-113671154D01*
X88592658Y-113728750D01*
X88502947Y-113818461D01*
X88445353Y-113931495D01*
X88430499Y-114025282D01*
X88430499Y-114788319D01*
X88445352Y-114882104D01*
X88498157Y-114985739D01*
X88502949Y-114995143D01*
X88592657Y-115084851D01*
X88705695Y-115142447D01*
X88799480Y-115157301D01*
X89611231Y-115157300D01*
X89639550Y-115162933D01*
X89663557Y-115178974D01*
X89772757Y-115288174D01*
X89793009Y-115326063D01*
X89788798Y-115368819D01*
X89761543Y-115402029D01*
X89720431Y-115414500D01*
X88676652Y-115414500D01*
X88646315Y-115417488D01*
X88646311Y-115417488D01*
X88646308Y-115417489D01*
X88617997Y-115423120D01*
X88561942Y-115446339D01*
X88537929Y-115462384D01*
X88514375Y-115481714D01*
X88100514Y-115895575D01*
X88081184Y-115919129D01*
X88065139Y-115943142D01*
X88041920Y-115999197D01*
X88036289Y-116027508D01*
X88033300Y-116057857D01*
X88033300Y-116338538D01*
X88027667Y-116366857D01*
X88011626Y-116390864D01*
X87587264Y-116815226D01*
X87563257Y-116831267D01*
X87534938Y-116836900D01*
X86898652Y-116836900D01*
X86868315Y-116839888D01*
X86868311Y-116839888D01*
X86868308Y-116839889D01*
X86839997Y-116845520D01*
X86783942Y-116868739D01*
X86759929Y-116884784D01*
X86736375Y-116904114D01*
X86525714Y-117114775D01*
X86506384Y-117138329D01*
X86490339Y-117162342D01*
X86467120Y-117218397D01*
X86462144Y-117243415D01*
X86461488Y-117246715D01*
X86459146Y-117270501D01*
X86458500Y-117277057D01*
X86458500Y-117723743D01*
X86461489Y-117754091D01*
X86467120Y-117782402D01*
X86490339Y-117838457D01*
X86506384Y-117862470D01*
X86525714Y-117886024D01*
X86888775Y-118249085D01*
X86912329Y-118268415D01*
X86912335Y-118268419D01*
X86936342Y-118284460D01*
X86992396Y-118307679D01*
X87020715Y-118313312D01*
X87051052Y-118316300D01*
X91548138Y-118316300D01*
X91576457Y-118321933D01*
X91600464Y-118337974D01*
X93035575Y-119773085D01*
X93059129Y-119792415D01*
X93059135Y-119792419D01*
X93083142Y-119808460D01*
X93139196Y-119831679D01*
X93167515Y-119837312D01*
X93197852Y-119840300D01*
X99129340Y-119840300D01*
X99129344Y-119840300D01*
X99159726Y-119837302D01*
X99159730Y-119837301D01*
X99159732Y-119837301D01*
X99188098Y-119831648D01*
X99244232Y-119808350D01*
X99244235Y-119808348D01*
X99268252Y-119792265D01*
X99268261Y-119792258D01*
X99291843Y-119772857D01*
X100570699Y-118490446D01*
X100594731Y-118474353D01*
X100623097Y-118468700D01*
X108528943Y-118468700D01*
X108528948Y-118468700D01*
X108559285Y-118465712D01*
X108587604Y-118460079D01*
X108643658Y-118436860D01*
X108667665Y-118420819D01*
X108691229Y-118401481D01*
X108952681Y-118140029D01*
X108972019Y-118116465D01*
X108988060Y-118092458D01*
X109011279Y-118036404D01*
X109016912Y-118008085D01*
X109019900Y-117977748D01*
X109019900Y-117480252D01*
X109016912Y-117449915D01*
X109011279Y-117421596D01*
X108988060Y-117365542D01*
X108972019Y-117341535D01*
X108972015Y-117341529D01*
X108952685Y-117317975D01*
X108640424Y-117005714D01*
X108616870Y-116986384D01*
X108592857Y-116970339D01*
X108536802Y-116947120D01*
X108508491Y-116941489D01*
X108508489Y-116941488D01*
X108508485Y-116941488D01*
X108478148Y-116938500D01*
X108478143Y-116938500D01*
X108095862Y-116938500D01*
X108067543Y-116932867D01*
X108043536Y-116916826D01*
X107991229Y-116864519D01*
X113576500Y-116864519D01*
X113591353Y-116958304D01*
X113634449Y-117042883D01*
X113648950Y-117071343D01*
X113738658Y-117161051D01*
X113851696Y-117218647D01*
X113945481Y-117233501D01*
X114077500Y-117233501D01*
X114114500Y-117243415D01*
X114141586Y-117270501D01*
X114151500Y-117307501D01*
X114151500Y-117378981D01*
X114150078Y-117393419D01*
X114146103Y-117413401D01*
X114150078Y-117433383D01*
X114150078Y-117433385D01*
X114167485Y-117520896D01*
X114181974Y-117542580D01*
X114181975Y-117542582D01*
X114210366Y-117585074D01*
X114228374Y-117612024D01*
X114245315Y-117623343D01*
X114256529Y-117632546D01*
X114512654Y-117888671D01*
X114521852Y-117899879D01*
X114533175Y-117916825D01*
X114550114Y-117928143D01*
X114550120Y-117928148D01*
X114556177Y-117932195D01*
X114624304Y-117977716D01*
X114731799Y-117999098D01*
X114749783Y-117995520D01*
X114751785Y-117995122D01*
X114766223Y-117993700D01*
X116161750Y-117993700D01*
X116192491Y-118000387D01*
X116217676Y-118019241D01*
X116271410Y-118081255D01*
X116288843Y-118092458D01*
X116386439Y-118155178D01*
X116430170Y-118168018D01*
X116517631Y-118193700D01*
X116517633Y-118193700D01*
X116654367Y-118193700D01*
X116654369Y-118193700D01*
X116719964Y-118174438D01*
X116785561Y-118155178D01*
X116900589Y-118081255D01*
X116990130Y-117977918D01*
X117046931Y-117853542D01*
X117066390Y-117718200D01*
X117046931Y-117582858D01*
X116990130Y-117458482D01*
X116990129Y-117458481D01*
X116990129Y-117458480D01*
X116900589Y-117355144D01*
X116785559Y-117281221D01*
X116654369Y-117242700D01*
X116654367Y-117242700D01*
X116517633Y-117242700D01*
X116517631Y-117242700D01*
X116386440Y-117281221D01*
X116271410Y-117355145D01*
X116217674Y-117417160D01*
X116192490Y-117436013D01*
X116161749Y-117442700D01*
X114876566Y-117442700D01*
X114848247Y-117437067D01*
X114824240Y-117421026D01*
X114763040Y-117359826D01*
X114742788Y-117321937D01*
X114746999Y-117279181D01*
X114774254Y-117245971D01*
X114815366Y-117233500D01*
X114908518Y-117233500D01*
X115002304Y-117218647D01*
X115115342Y-117161051D01*
X115205050Y-117071343D01*
X115262646Y-116958305D01*
X115277500Y-116864520D01*
X115277499Y-116101483D01*
X115265783Y-116027508D01*
X115262646Y-116007697D01*
X115258315Y-115999197D01*
X115205050Y-115894659D01*
X115115342Y-115804951D01*
X115115339Y-115804949D01*
X115002305Y-115747355D01*
X114955411Y-115739928D01*
X114908518Y-115732501D01*
X113945481Y-115732501D01*
X113851696Y-115747354D01*
X113738659Y-115804950D01*
X113648948Y-115894661D01*
X113591354Y-116007695D01*
X113576500Y-116101482D01*
X113576500Y-116864519D01*
X107991229Y-116864519D01*
X107568374Y-116441664D01*
X107552333Y-116417657D01*
X107546700Y-116389338D01*
X107546700Y-116007057D01*
X107545926Y-115999196D01*
X107543712Y-115976715D01*
X107538079Y-115948396D01*
X107514860Y-115892342D01*
X107498819Y-115868335D01*
X107498815Y-115868329D01*
X107479485Y-115844775D01*
X107214736Y-115580026D01*
X107194484Y-115542137D01*
X107198695Y-115499381D01*
X107225950Y-115466171D01*
X107267062Y-115453700D01*
X108617950Y-115453700D01*
X108648691Y-115460387D01*
X108673876Y-115479241D01*
X108727610Y-115541255D01*
X108763593Y-115564379D01*
X108842639Y-115615178D01*
X108886370Y-115628018D01*
X108973831Y-115653700D01*
X108973833Y-115653700D01*
X109110567Y-115653700D01*
X109110569Y-115653700D01*
X109176164Y-115634438D01*
X109241761Y-115615178D01*
X109356789Y-115541255D01*
X109446330Y-115437918D01*
X109503131Y-115313542D01*
X109522590Y-115178200D01*
X109503131Y-115042858D01*
X109446330Y-114918482D01*
X109446329Y-114918481D01*
X109446329Y-114918480D01*
X109356789Y-114815144D01*
X109241759Y-114741221D01*
X109110569Y-114702700D01*
X109110567Y-114702700D01*
X108973833Y-114702700D01*
X108973831Y-114702700D01*
X108842640Y-114741221D01*
X108727610Y-114815144D01*
X108673876Y-114877159D01*
X108648691Y-114896013D01*
X108617950Y-114902700D01*
X107375899Y-114902700D01*
X107338899Y-114892786D01*
X107311813Y-114865700D01*
X107301899Y-114828700D01*
X107301898Y-114101482D01*
X107287045Y-114007697D01*
X107229450Y-113894661D01*
X107229449Y-113894659D01*
X107139741Y-113804951D01*
X107139738Y-113804949D01*
X107026704Y-113747355D01*
X106979810Y-113739927D01*
X106932917Y-113732501D01*
X105969880Y-113732501D01*
X105876095Y-113747354D01*
X105763058Y-113804950D01*
X105673347Y-113894661D01*
X105615753Y-114007695D01*
X105600899Y-114101482D01*
X105600899Y-114864519D01*
X105615752Y-114958304D01*
X105634522Y-114995141D01*
X105673349Y-115071343D01*
X105763057Y-115161051D01*
X105876095Y-115218647D01*
X105969880Y-115233501D01*
X106781632Y-115233500D01*
X106809951Y-115239133D01*
X106833958Y-115255174D01*
X106917758Y-115338974D01*
X106938010Y-115376863D01*
X106933799Y-115419619D01*
X106906544Y-115452829D01*
X106865432Y-115465300D01*
X103320662Y-115465300D01*
X103292343Y-115459667D01*
X103268336Y-115443626D01*
X102234374Y-114409664D01*
X102218333Y-114385657D01*
X102212700Y-114357338D01*
X102212700Y-113095401D01*
X107037809Y-113095401D01*
X107057267Y-113230742D01*
X107114069Y-113355120D01*
X107203609Y-113458456D01*
X107261124Y-113495417D01*
X107318638Y-113532379D01*
X107362369Y-113545219D01*
X107449830Y-113570901D01*
X107449832Y-113570901D01*
X107586566Y-113570901D01*
X107586568Y-113570901D01*
X107652162Y-113551640D01*
X107717760Y-113532379D01*
X107832788Y-113458456D01*
X107842504Y-113447242D01*
X107867690Y-113428388D01*
X107898431Y-113421701D01*
X112945431Y-113421701D01*
X112973750Y-113427334D01*
X112997757Y-113443375D01*
X113281250Y-113726868D01*
X113560689Y-114006306D01*
X113578741Y-114035763D01*
X113581452Y-114070206D01*
X113576500Y-114101478D01*
X113576500Y-114864519D01*
X113591353Y-114958304D01*
X113610123Y-114995141D01*
X113648950Y-115071343D01*
X113738658Y-115161051D01*
X113851696Y-115218647D01*
X113945481Y-115233501D01*
X114908518Y-115233500D01*
X115002304Y-115218647D01*
X115115342Y-115161051D01*
X115205050Y-115071343D01*
X115262646Y-114958305D01*
X115277500Y-114864520D01*
X115277499Y-114101483D01*
X115262646Y-114007697D01*
X115205050Y-113894659D01*
X115115342Y-113804951D01*
X115115339Y-113804949D01*
X115002305Y-113747355D01*
X114908519Y-113732501D01*
X114096767Y-113732501D01*
X114068448Y-113726868D01*
X114044441Y-113710827D01*
X113309344Y-112975730D01*
X113300141Y-112964516D01*
X113297163Y-112960059D01*
X113288823Y-112947577D01*
X113271878Y-112936254D01*
X113271873Y-112936250D01*
X113234793Y-112911475D01*
X113197694Y-112886686D01*
X113110184Y-112869279D01*
X113110182Y-112869279D01*
X113090199Y-112865304D01*
X113070214Y-112869279D01*
X113055779Y-112870701D01*
X107985878Y-112870701D01*
X107945866Y-112858951D01*
X107931225Y-112842051D01*
X107929296Y-112843723D01*
X107832788Y-112732345D01*
X107729673Y-112666079D01*
X107717760Y-112658423D01*
X107717759Y-112658422D01*
X107717758Y-112658422D01*
X107586568Y-112619901D01*
X107586566Y-112619901D01*
X107449832Y-112619901D01*
X107449830Y-112619901D01*
X107318639Y-112658422D01*
X107203609Y-112732345D01*
X107114069Y-112835681D01*
X107057267Y-112960059D01*
X107037809Y-113095401D01*
X102212700Y-113095401D01*
X102212700Y-99060000D01*
X112216514Y-99060000D01*
X112236428Y-99338432D01*
X112295766Y-99611207D01*
X112393319Y-99872755D01*
X112527097Y-100117752D01*
X112527100Y-100117756D01*
X112694387Y-100341225D01*
X112891775Y-100538613D01*
X113115244Y-100705900D01*
X113115247Y-100705902D01*
X113360244Y-100839680D01*
X113360247Y-100839681D01*
X113621794Y-100937234D01*
X113894563Y-100996571D01*
X114173000Y-101016485D01*
X114451437Y-100996571D01*
X114724206Y-100937234D01*
X114985753Y-100839681D01*
X115230756Y-100705900D01*
X115454225Y-100538613D01*
X115651613Y-100341225D01*
X115818900Y-100117756D01*
X115952681Y-99872753D01*
X116050234Y-99611206D01*
X116109571Y-99338437D01*
X116129485Y-99060000D01*
X116109571Y-98781563D01*
X116050234Y-98508794D01*
X115952681Y-98247247D01*
X115952680Y-98247244D01*
X115818902Y-98002247D01*
X115735199Y-97890433D01*
X115651613Y-97778775D01*
X115454225Y-97581387D01*
X115230756Y-97414100D01*
X115230752Y-97414097D01*
X114985755Y-97280319D01*
X114724207Y-97182766D01*
X114451432Y-97123428D01*
X114173000Y-97103514D01*
X113894567Y-97123428D01*
X113621792Y-97182766D01*
X113360244Y-97280319D01*
X113115247Y-97414097D01*
X112891775Y-97581387D01*
X112694387Y-97778775D01*
X112527097Y-98002247D01*
X112393319Y-98247244D01*
X112295766Y-98508792D01*
X112236428Y-98781567D01*
X112216514Y-99060000D01*
X102212700Y-99060000D01*
X102212700Y-97224662D01*
X102218333Y-97196343D01*
X102234374Y-97172336D01*
X103166736Y-96239974D01*
X103190743Y-96223933D01*
X103219062Y-96218300D01*
X104617343Y-96218300D01*
X104617348Y-96218300D01*
X104647685Y-96215312D01*
X104676004Y-96209679D01*
X104732058Y-96186460D01*
X104756065Y-96170419D01*
X104779629Y-96151081D01*
X105650681Y-95280029D01*
X105670019Y-95256465D01*
X105686060Y-95232458D01*
X105709279Y-95176404D01*
X105714912Y-95148085D01*
X105717900Y-95117748D01*
X105717900Y-94942463D01*
X105732898Y-94897800D01*
X105771814Y-94871241D01*
X105818871Y-94873553D01*
X105854993Y-94903795D01*
X105950188Y-95059140D01*
X105950189Y-95059142D01*
X105950191Y-95059144D01*
X106118910Y-95256689D01*
X106311308Y-95421012D01*
X106316460Y-95425412D01*
X106537972Y-95561154D01*
X106726732Y-95639341D01*
X106777992Y-95660574D01*
X106995772Y-95712858D01*
X107030606Y-95721221D01*
X107289600Y-95741604D01*
X107548594Y-95721221D01*
X107674902Y-95690896D01*
X107801207Y-95660574D01*
X107801208Y-95660573D01*
X107801210Y-95660573D01*
X108041228Y-95561154D01*
X108262740Y-95425412D01*
X108460289Y-95256689D01*
X108629012Y-95059140D01*
X108764754Y-94837628D01*
X108864173Y-94597610D01*
X108865230Y-94593210D01*
X108924820Y-94344997D01*
X108924821Y-94344994D01*
X108945204Y-94086000D01*
X108924821Y-93827006D01*
X108916244Y-93791279D01*
X108864174Y-93574392D01*
X108852112Y-93545273D01*
X108764754Y-93334372D01*
X108629012Y-93112860D01*
X108614832Y-93096257D01*
X108460289Y-92915310D01*
X108262744Y-92746591D01*
X108262742Y-92746589D01*
X108262740Y-92746588D01*
X108041228Y-92610846D01*
X107929743Y-92564667D01*
X107801207Y-92511425D01*
X107548597Y-92450779D01*
X107289600Y-92430395D01*
X107030602Y-92450779D01*
X106777992Y-92511425D01*
X106579155Y-92593786D01*
X106537972Y-92610846D01*
X106332162Y-92736965D01*
X106316455Y-92746591D01*
X106118910Y-92915310D01*
X105950191Y-93112855D01*
X105950187Y-93112860D01*
X105950188Y-93112860D01*
X105854993Y-93268204D01*
X105818871Y-93298447D01*
X105771814Y-93300759D01*
X105732898Y-93274200D01*
X105717900Y-93229537D01*
X105717900Y-92994657D01*
X105717900Y-92994652D01*
X105714912Y-92964315D01*
X105709279Y-92935996D01*
X105686060Y-92879942D01*
X105670019Y-92855935D01*
X105670015Y-92855929D01*
X105650685Y-92832375D01*
X104728824Y-91910514D01*
X104705270Y-91891184D01*
X104681257Y-91875139D01*
X104625202Y-91851920D01*
X104596891Y-91846289D01*
X104596889Y-91846288D01*
X104596885Y-91846288D01*
X104566548Y-91843300D01*
X104566543Y-91843300D01*
X99713862Y-91843300D01*
X99685543Y-91837667D01*
X99661536Y-91821626D01*
X98175624Y-90335714D01*
X98152070Y-90316384D01*
X98128057Y-90300339D01*
X98072002Y-90277120D01*
X98043691Y-90271489D01*
X98043689Y-90271488D01*
X98043685Y-90271488D01*
X98013348Y-90268500D01*
X97344573Y-90268500D01*
X97297298Y-90251431D01*
X97271833Y-90208097D01*
X97279925Y-90158491D01*
X97317841Y-90125497D01*
X97318670Y-90125175D01*
X97342619Y-90115898D01*
X97523902Y-90003652D01*
X97681472Y-89860007D01*
X97809966Y-89689855D01*
X97809965Y-89689855D01*
X97809967Y-89689854D01*
X97905005Y-89498989D01*
X97917855Y-89453825D01*
X97963356Y-89293910D01*
X97982621Y-89086000D01*
X99634170Y-89086000D01*
X99653843Y-89298309D01*
X99712194Y-89503389D01*
X99807232Y-89694254D01*
X99932402Y-89860003D01*
X99935728Y-89864407D01*
X100093298Y-90008052D01*
X100274581Y-90120298D01*
X100473402Y-90197321D01*
X100682990Y-90236500D01*
X100896209Y-90236500D01*
X100896210Y-90236500D01*
X101105798Y-90197321D01*
X101304619Y-90120298D01*
X101485902Y-90008052D01*
X101643472Y-89864407D01*
X101771966Y-89694255D01*
X101771965Y-89694255D01*
X101771967Y-89694254D01*
X101867005Y-89503389D01*
X101925356Y-89298309D01*
X101945029Y-89086000D01*
X112634170Y-89086000D01*
X112653843Y-89298309D01*
X112712194Y-89503389D01*
X112807232Y-89694254D01*
X112932402Y-89860003D01*
X112935728Y-89864407D01*
X113093298Y-90008052D01*
X113274581Y-90120298D01*
X113473402Y-90197321D01*
X113682990Y-90236500D01*
X113896209Y-90236500D01*
X113896210Y-90236500D01*
X114105798Y-90197321D01*
X114304619Y-90120298D01*
X114485902Y-90008052D01*
X114643472Y-89864407D01*
X114771966Y-89694255D01*
X114771965Y-89694255D01*
X114771967Y-89694254D01*
X114867005Y-89503389D01*
X114925356Y-89298309D01*
X114945029Y-89086000D01*
X114925356Y-88873690D01*
X114867005Y-88668610D01*
X114771967Y-88477745D01*
X114643474Y-88307596D01*
X114643472Y-88307593D01*
X114485902Y-88163948D01*
X114304619Y-88051702D01*
X114105798Y-87974679D01*
X113896210Y-87935500D01*
X113682990Y-87935500D01*
X113578196Y-87955089D01*
X113473401Y-87974679D01*
X113274580Y-88051702D01*
X113100407Y-88159546D01*
X113093298Y-88163948D01*
X112935728Y-88307593D01*
X112935725Y-88307596D01*
X112807232Y-88477745D01*
X112712194Y-88668610D01*
X112653843Y-88873690D01*
X112634170Y-89086000D01*
X101945029Y-89086000D01*
X101925356Y-88873690D01*
X101867005Y-88668610D01*
X101771967Y-88477745D01*
X101643474Y-88307596D01*
X101643472Y-88307593D01*
X101485902Y-88163948D01*
X101304619Y-88051702D01*
X101105798Y-87974679D01*
X100896210Y-87935500D01*
X100682990Y-87935500D01*
X100578196Y-87955089D01*
X100473401Y-87974679D01*
X100274580Y-88051702D01*
X100100407Y-88159546D01*
X100093298Y-88163948D01*
X99935728Y-88307593D01*
X99935725Y-88307596D01*
X99807232Y-88477745D01*
X99712194Y-88668610D01*
X99653843Y-88873690D01*
X99634170Y-89086000D01*
X97982621Y-89086000D01*
X97983029Y-89081600D01*
X97963356Y-88869290D01*
X97905005Y-88664211D01*
X97905005Y-88664210D01*
X97809967Y-88473345D01*
X97681474Y-88303196D01*
X97681472Y-88303193D01*
X97523902Y-88159548D01*
X97342619Y-88047302D01*
X97143798Y-87970279D01*
X96934210Y-87931100D01*
X96720990Y-87931100D01*
X96666003Y-87941379D01*
X96511401Y-87970279D01*
X96312580Y-88047302D01*
X96131301Y-88159546D01*
X96131298Y-88159548D01*
X96060209Y-88224355D01*
X95973725Y-88303196D01*
X95845232Y-88473345D01*
X95750194Y-88664210D01*
X95691843Y-88869290D01*
X95672170Y-89081600D01*
X95691843Y-89293909D01*
X95750194Y-89498989D01*
X95845232Y-89689854D01*
X95906352Y-89770788D01*
X95973728Y-89860007D01*
X96131298Y-90003652D01*
X96312581Y-90115898D01*
X96336033Y-90124983D01*
X96337359Y-90125497D01*
X96375275Y-90158491D01*
X96383367Y-90208097D01*
X96357902Y-90251431D01*
X96310627Y-90268500D01*
X87559052Y-90268500D01*
X87528715Y-90271488D01*
X87528711Y-90271488D01*
X87528708Y-90271489D01*
X87500397Y-90277120D01*
X87444342Y-90300339D01*
X87420329Y-90316384D01*
X87396775Y-90335714D01*
X84798514Y-92933975D01*
X84779184Y-92957529D01*
X84763139Y-92981542D01*
X84739920Y-93037597D01*
X84734289Y-93065908D01*
X84731300Y-93096257D01*
X84731300Y-94863743D01*
X84734289Y-94894091D01*
X84739920Y-94922402D01*
X84763139Y-94978457D01*
X84779184Y-95002470D01*
X84798514Y-95026024D01*
X85720375Y-95947885D01*
X85743929Y-95967215D01*
X85743935Y-95967219D01*
X85767942Y-95983260D01*
X85823996Y-96006479D01*
X85852315Y-96012112D01*
X85882652Y-96015100D01*
X87548543Y-96015100D01*
X87548548Y-96015100D01*
X87578885Y-96012112D01*
X87607204Y-96006479D01*
X87663258Y-95983260D01*
X87687265Y-95967219D01*
X87710829Y-95947881D01*
X88632681Y-95026029D01*
X88652019Y-95002465D01*
X88668060Y-94978458D01*
X88691279Y-94922404D01*
X88696912Y-94894085D01*
X88699900Y-94863748D01*
X88699900Y-94836972D01*
X88716697Y-94790027D01*
X88759463Y-94764394D01*
X88808783Y-94771710D01*
X88842266Y-94808652D01*
X88852446Y-94833228D01*
X88988188Y-95054740D01*
X88988189Y-95054742D01*
X88988191Y-95054744D01*
X89156910Y-95252289D01*
X89293161Y-95368658D01*
X89354460Y-95421012D01*
X89575972Y-95556754D01*
X89786873Y-95644112D01*
X89815992Y-95656174D01*
X89995375Y-95699240D01*
X90036213Y-95725382D01*
X90052100Y-95771195D01*
X90052100Y-98960832D01*
X90046467Y-98989151D01*
X90030426Y-99013158D01*
X81069929Y-107973653D01*
X81058719Y-107982853D01*
X81041777Y-107994174D01*
X80980885Y-108085304D01*
X80971999Y-108129978D01*
X80959502Y-108192799D01*
X80963478Y-108212782D01*
X80964900Y-108227220D01*
X80964900Y-118602170D01*
X80950337Y-118646252D01*
X80912381Y-118672983D01*
X80891028Y-118679460D01*
X80855671Y-118690186D01*
X80681862Y-118783090D01*
X80529517Y-118908117D01*
X80404490Y-119060462D01*
X80311586Y-119234271D01*
X80254376Y-119422867D01*
X80235059Y-119618999D01*
X80254376Y-119815132D01*
X80311586Y-120003728D01*
X80358037Y-120090632D01*
X80404490Y-120177538D01*
X80529517Y-120329883D01*
X80681862Y-120454910D01*
X80855673Y-120547814D01*
X81044268Y-120605024D01*
X81240400Y-120624341D01*
X81436532Y-120605024D01*
X81625127Y-120547814D01*
X81798938Y-120454910D01*
X81951283Y-120329883D01*
X82041698Y-120219712D01*
X82079163Y-120195339D01*
X82123830Y-120196984D01*
X82159401Y-120224048D01*
X82172900Y-120266658D01*
X82172900Y-120806232D01*
X82167267Y-120834551D01*
X82151226Y-120858558D01*
X81764598Y-121245184D01*
X81723130Y-121266057D01*
X81677389Y-121258120D01*
X81625130Y-121230187D01*
X81436532Y-121172976D01*
X81240400Y-121153659D01*
X81044267Y-121172976D01*
X80855671Y-121230186D01*
X80681862Y-121323090D01*
X80529517Y-121448117D01*
X80404490Y-121600462D01*
X80311586Y-121774271D01*
X80254376Y-121962867D01*
X80235059Y-122159000D01*
X79904100Y-122159000D01*
X79904100Y-99060000D01*
X81736514Y-99060000D01*
X81756428Y-99338432D01*
X81815766Y-99611207D01*
X81913319Y-99872755D01*
X82047097Y-100117752D01*
X82047100Y-100117756D01*
X82214387Y-100341225D01*
X82411775Y-100538613D01*
X82635244Y-100705900D01*
X82635247Y-100705902D01*
X82880244Y-100839680D01*
X82880247Y-100839681D01*
X83141794Y-100937234D01*
X83414563Y-100996571D01*
X83693000Y-101016485D01*
X83971437Y-100996571D01*
X84244206Y-100937234D01*
X84505753Y-100839681D01*
X84750756Y-100705900D01*
X84974225Y-100538613D01*
X85171613Y-100341225D01*
X85338900Y-100117756D01*
X85472681Y-99872753D01*
X85570234Y-99611206D01*
X85629571Y-99338437D01*
X85649485Y-99060000D01*
X85629571Y-98781563D01*
X85570234Y-98508794D01*
X85472681Y-98247247D01*
X85472680Y-98247244D01*
X85338902Y-98002247D01*
X85255199Y-97890433D01*
X85171613Y-97778775D01*
X84974225Y-97581387D01*
X84750756Y-97414100D01*
X84750752Y-97414097D01*
X84505755Y-97280319D01*
X84244207Y-97182766D01*
X83971432Y-97123428D01*
X83693000Y-97103514D01*
X83414567Y-97123428D01*
X83141792Y-97182766D01*
X82880244Y-97280319D01*
X82635247Y-97414097D01*
X82411775Y-97581387D01*
X82214387Y-97778775D01*
X82047097Y-98002247D01*
X81913319Y-98247244D01*
X81815766Y-98508792D01*
X81756428Y-98781567D01*
X81736514Y-99060000D01*
X79904100Y-99060000D01*
X79904100Y-91543419D01*
X79904189Y-91539788D01*
X79905468Y-91513756D01*
X79922044Y-91176324D01*
X79922753Y-91169130D01*
X79975882Y-90810966D01*
X79977299Y-90803848D01*
X80065271Y-90452643D01*
X80067379Y-90445693D01*
X80142229Y-90236500D01*
X80189358Y-90104782D01*
X80192128Y-90098094D01*
X80346940Y-89770772D01*
X80350346Y-89764399D01*
X80536502Y-89453817D01*
X80540526Y-89447795D01*
X80756224Y-89156960D01*
X80760804Y-89151380D01*
X80824049Y-89081600D01*
X82672170Y-89081600D01*
X82691843Y-89293909D01*
X82750194Y-89498989D01*
X82845232Y-89689854D01*
X82906352Y-89770788D01*
X82973728Y-89860007D01*
X83131298Y-90003652D01*
X83312581Y-90115898D01*
X83511402Y-90192921D01*
X83720990Y-90232100D01*
X83934209Y-90232100D01*
X83934210Y-90232100D01*
X84143798Y-90192921D01*
X84342619Y-90115898D01*
X84523902Y-90003652D01*
X84681472Y-89860007D01*
X84809966Y-89689855D01*
X84809965Y-89689855D01*
X84809967Y-89689854D01*
X84905005Y-89498989D01*
X84917855Y-89453825D01*
X84963356Y-89293910D01*
X84983029Y-89081600D01*
X84963356Y-88869290D01*
X84905005Y-88664211D01*
X84905005Y-88664210D01*
X84809967Y-88473345D01*
X84681474Y-88303196D01*
X84681472Y-88303193D01*
X84523902Y-88159548D01*
X84342619Y-88047302D01*
X84143798Y-87970279D01*
X83934210Y-87931100D01*
X83720990Y-87931100D01*
X83666003Y-87941379D01*
X83511401Y-87970279D01*
X83312580Y-88047302D01*
X83131301Y-88159546D01*
X83131298Y-88159548D01*
X83060209Y-88224355D01*
X82973725Y-88303196D01*
X82845232Y-88473345D01*
X82750194Y-88664210D01*
X82691843Y-88869290D01*
X82672170Y-89081600D01*
X80824049Y-89081600D01*
X81003974Y-88883084D01*
X81009084Y-88877974D01*
X81277380Y-88634804D01*
X81282960Y-88630224D01*
X81573795Y-88414526D01*
X81579817Y-88410502D01*
X81890399Y-88224346D01*
X81896772Y-88220940D01*
X82224094Y-88066128D01*
X82230782Y-88063358D01*
X82571693Y-87941378D01*
X82578643Y-87939271D01*
X82611264Y-87931100D01*
X82929852Y-87851298D01*
X82936966Y-87849882D01*
X83295130Y-87796753D01*
X83302324Y-87796044D01*
X83665788Y-87778188D01*
X83669419Y-87778100D01*
X83715195Y-87778100D01*
X114150805Y-87778100D01*
X114196581Y-87778100D01*
X114200211Y-87778188D01*
G37*
G04 #@! TD.AperFunction*
G04 #@! TA.AperFunction,Conductor*
G36*
X98041667Y-90429633D02*
G01*
X98065674Y-90445674D01*
X99618800Y-91998800D01*
X104566548Y-91998800D01*
X104594867Y-92004433D01*
X104618874Y-92020474D01*
X105540726Y-92942326D01*
X105556767Y-92966333D01*
X105562400Y-92994652D01*
X105562400Y-95117748D01*
X105556767Y-95146067D01*
X105540726Y-95170074D01*
X104669674Y-96041126D01*
X104645667Y-96057167D01*
X104617348Y-96062800D01*
X103124000Y-96062800D01*
X102057200Y-97129600D01*
X102057200Y-114452400D01*
X103225600Y-115620800D01*
X107004948Y-115620800D01*
X107033267Y-115626433D01*
X107057274Y-115642474D01*
X107369526Y-115954726D01*
X107385567Y-115978733D01*
X107391200Y-116007052D01*
X107391200Y-116484400D01*
X108000800Y-117094000D01*
X108478148Y-117094000D01*
X108506467Y-117099633D01*
X108530474Y-117115674D01*
X108842726Y-117427926D01*
X108858767Y-117451933D01*
X108864400Y-117480252D01*
X108864400Y-117977748D01*
X108858767Y-118006067D01*
X108842726Y-118030074D01*
X108581274Y-118291526D01*
X108557267Y-118307567D01*
X108528948Y-118313200D01*
X100527849Y-118313200D01*
X99181735Y-119663055D01*
X99157706Y-119679147D01*
X99129340Y-119684800D01*
X93197852Y-119684800D01*
X93169533Y-119679167D01*
X93145526Y-119663126D01*
X91643200Y-118160800D01*
X87051052Y-118160800D01*
X87022733Y-118155167D01*
X86998726Y-118139126D01*
X86635674Y-117776074D01*
X86619633Y-117752067D01*
X86614000Y-117723748D01*
X86614000Y-117277052D01*
X86619633Y-117248733D01*
X86635674Y-117224726D01*
X86846326Y-117014074D01*
X86870333Y-116998033D01*
X86898652Y-116992400D01*
X87630000Y-116992400D01*
X88188800Y-116433600D01*
X88188800Y-116057852D01*
X88194433Y-116029533D01*
X88210474Y-116005526D01*
X88624326Y-115591674D01*
X88648333Y-115575633D01*
X88676652Y-115570000D01*
X89885348Y-115570000D01*
X89913667Y-115575633D01*
X89937674Y-115591674D01*
X91084400Y-116738400D01*
X93136548Y-116738400D01*
X93164867Y-116744033D01*
X93188874Y-116760074D01*
X94742000Y-118313200D01*
X98399600Y-118313200D01*
X99466400Y-117246400D01*
X99466400Y-95910400D01*
X95859600Y-92303600D01*
X89458800Y-92303600D01*
X88544400Y-93217999D01*
X88544400Y-94863748D01*
X88538767Y-94892067D01*
X88522726Y-94916074D01*
X87600874Y-95837926D01*
X87576867Y-95853967D01*
X87548548Y-95859600D01*
X85882652Y-95859600D01*
X85854333Y-95853967D01*
X85830326Y-95837926D01*
X84908474Y-94916074D01*
X84892433Y-94892067D01*
X84886800Y-94863748D01*
X84886800Y-93096252D01*
X84892433Y-93067933D01*
X84908474Y-93043926D01*
X87506726Y-90445674D01*
X87530733Y-90429633D01*
X87559052Y-90424000D01*
X98013348Y-90424000D01*
X98041667Y-90429633D01*
G37*
G04 #@! TD.AperFunction*
M02*
