G04 #@! TF.GenerationSoftware,KiCad,Pcbnew,7.0.1*
G04 #@! TF.CreationDate,2023-08-31T02:32:27+03:00*
G04 #@! TF.ProjectId,miranda-pdb,6d697261-6e64-4612-9d70-64622e6b6963,rev?*
G04 #@! TF.SameCoordinates,Original*
G04 #@! TF.FileFunction,Legend,Bot*
G04 #@! TF.FilePolarity,Positive*
%FSLAX46Y46*%
G04 Gerber Fmt 4.6, Leading zero omitted, Abs format (unit mm)*
G04 Created by KiCad (PCBNEW 7.0.1) date 2023-08-31 02:32:27*
%MOMM*%
%LPD*%
G01*
G04 APERTURE LIST*
G04 Aperture macros list*
%AMRoundRect*
0 Rectangle with rounded corners*
0 $1 Rounding radius*
0 $2 $3 $4 $5 $6 $7 $8 $9 X,Y pos of 4 corners*
0 Add a 4 corners polygon primitive as box body*
4,1,4,$2,$3,$4,$5,$6,$7,$8,$9,$2,$3,0*
0 Add four circle primitives for the rounded corners*
1,1,$1+$1,$2,$3*
1,1,$1+$1,$4,$5*
1,1,$1+$1,$6,$7*
1,1,$1+$1,$8,$9*
0 Add four rect primitives between the rounded corners*
20,1,$1+$1,$2,$3,$4,$5,0*
20,1,$1+$1,$4,$5,$6,$7,0*
20,1,$1+$1,$6,$7,$8,$9,0*
20,1,$1+$1,$8,$9,$2,$3,0*%
G04 Aperture macros list end*
%ADD10C,0.120000*%
%ADD11R,1.700000X1.700000*%
%ADD12O,1.700000X1.700000*%
%ADD13C,2.000000*%
%ADD14C,3.000000*%
%ADD15RoundRect,0.250000X0.450000X-0.350000X0.450000X0.350000X-0.450000X0.350000X-0.450000X-0.350000X0*%
%ADD16RoundRect,0.250000X-0.450000X0.350000X-0.450000X-0.350000X0.450000X-0.350000X0.450000X0.350000X0*%
G04 APERTURE END LIST*
D10*
X90015999Y-115633865D02*
X90015999Y-115179737D01*
X88545999Y-115633865D02*
X88545999Y-115179737D01*
X105716399Y-115255937D02*
X105716399Y-115710065D01*
X107186399Y-115255937D02*
X107186399Y-115710065D01*
X98042400Y-115170336D02*
X98042400Y-115624464D01*
X96572400Y-115170336D02*
X96572400Y-115624464D01*
X113692000Y-115255937D02*
X113692000Y-115710065D01*
X115162000Y-115255937D02*
X115162000Y-115710065D01*
%LPC*%
D11*
X83780400Y-124699000D03*
D12*
X81240400Y-124699000D03*
X83780400Y-122159000D03*
X81240400Y-122159000D03*
X83780400Y-119619000D03*
X81240400Y-119619000D03*
D11*
X109006800Y-129528800D03*
D12*
X109006800Y-132068800D03*
X106466800Y-129528800D03*
X106466800Y-132068800D03*
X103926800Y-129528800D03*
X103926800Y-132068800D03*
X101386800Y-129528800D03*
X101386800Y-132068800D03*
D11*
X95900400Y-129528800D03*
D12*
X95900400Y-132068800D03*
X93360400Y-129528800D03*
X93360400Y-132068800D03*
X90820400Y-129528800D03*
X90820400Y-132068800D03*
X88280400Y-129528800D03*
X88280400Y-132068800D03*
D13*
X100789600Y-89086000D03*
X113789600Y-89086000D03*
D14*
X103789600Y-94086000D03*
X107289600Y-94086000D03*
X110789600Y-94086000D03*
D13*
X83827600Y-89081600D03*
X96827600Y-89081600D03*
D14*
X86827600Y-94081600D03*
X90327600Y-94081600D03*
X93827600Y-94081600D03*
D15*
X89280999Y-116406801D03*
X89280999Y-114406801D03*
D16*
X106451399Y-114483001D03*
X106451399Y-116483001D03*
X97307400Y-116397400D03*
X97307400Y-114397400D03*
X114427000Y-114483001D03*
X114427000Y-116483001D03*
M02*
